<?xml version="1.0" encoding="UTF-8"?> <svg xmlns="http://www.w3.org/2000/svg" width="994" height="989" viewBox="0 0 994 989" fill="none"> <path d="M845.23 0H148.148C66.3282 0 0 66.3282 0 148.148V840.267C0 922.087 66.3282 988.415 148.148 988.415H845.23C927.05 988.415 993.378 922.087 993.378 840.267V148.148C993.378 66.3282 927.05 0 845.23 0Z" fill="#8E8E8E"></path> <path fill-rule="evenodd" clip-rule="evenodd" d="M342.512 385.387C342.447 385.495 342.014 387.428 341.55 389.684C340.436 395.097 335.625 418.228 331.76 436.754C330.057 444.918 328.268 453.532 327.784 455.895C326.507 462.129 326.512 472.404 327.794 477.184C331.12 489.586 339.016 498.37 350.964 502.96C362.216 507.283 377.644 507.061 389.048 502.411C398.932 498.382 407.428 490.271 412.61 479.918C415.447 474.249 416.654 470.216 419.272 457.653C420.145 453.463 421.369 447.663 421.991 444.762C422.614 441.862 423.584 437.291 424.148 434.606C424.712 431.92 425.595 427.789 426.11 425.426C426.625 423.063 428.19 415.68 429.587 409.02C430.985 402.36 432.664 394.393 433.32 391.317C433.976 388.24 434.423 385.578 434.313 385.4C434.204 385.223 428.209 385.084 420.992 385.092C408.015 385.105 407.868 385.114 407.534 385.93C407.348 386.383 403.579 404.21 399.157 425.545C394.679 447.152 390.689 465.476 390.149 466.91C387.511 473.918 383.596 477.742 377.581 479.185C375.02 479.8 368.362 479.783 365.75 479.156C360.856 477.98 357.45 475.392 355.509 471.374C354.388 469.055 354.241 468.342 354.1 464.533C353.933 460.054 354.282 457.078 355.804 450.036C356.314 447.672 357.698 441.168 358.879 435.582C360.061 429.996 361.663 422.438 362.441 418.786C363.219 415.133 364.273 410.123 364.784 407.653C365.295 405.182 366.512 399.396 367.489 394.794C368.466 390.193 369.266 386.15 369.266 385.81C369.266 385.258 367.831 385.192 355.948 385.192C348.622 385.192 342.576 385.28 342.512 385.387ZM448.784 385.346C448.676 385.519 447.436 391.093 446.027 397.731C444.618 404.37 443.211 410.944 442.9 412.34C442.402 414.577 439.996 425.959 436.996 440.27C436.456 442.848 435.505 447.33 434.884 450.231C434.263 453.131 433.3 457.702 432.746 460.387C432.191 463.073 431.487 466.413 431.18 467.809C430.873 469.205 430.17 472.545 429.617 475.231C429.065 477.916 428.359 481.256 428.048 482.653C426.498 489.63 424.714 498.388 424.821 498.495C424.93 498.604 437.907 492.998 442.962 490.659C444.072 490.146 446.908 488.908 449.264 487.908L453.548 486.09L455.716 474.899C456.909 468.743 458.873 458.522 460.082 452.184C463.498 434.272 464.938 427.084 465.158 426.865C465.269 426.754 465.359 426.855 465.359 427.089C465.359 427.451 471.38 441.293 482.359 466.17C483.874 469.603 485.182 472.077 485.432 471.979C485.671 471.886 491.229 469.434 497.781 466.531C524.584 454.655 533.983 450.51 535.286 449.988C536.86 449.358 536.34 451.19 540.323 432.262C541.612 426.139 544.351 413.231 546.41 403.577C548.469 393.923 550.071 385.809 549.97 385.546C549.83 385.182 546.682 385.059 536.859 385.033L523.932 385L523.606 385.877C523.427 386.359 522.373 391.061 521.263 396.325C520.154 401.588 518.987 407.082 518.67 408.532C518.353 409.982 517.834 412.355 517.516 413.805C517.198 415.255 516.328 419.342 515.584 422.887C514.839 426.432 512.99 435.15 511.474 442.261C509.959 449.371 508.719 455.509 508.719 455.9C508.719 457.05 508.265 456.28 506.927 452.861C506.234 451.092 503.041 442.965 499.829 434.801C496.618 426.637 490.948 412.223 487.231 402.77C483.513 393.317 480.279 385.451 480.045 385.291C479.464 384.895 449.029 384.948 448.784 385.346ZM246.089 388.805C245.719 390.685 244.908 394.596 244.286 397.496C243.665 400.397 241.302 411.559 239.035 422.301C236.768 433.043 233.491 448.512 231.754 456.676C230.016 464.84 228.437 472.311 228.246 473.278C228.054 474.245 226.57 481.268 224.949 488.885C223.327 496.502 222 502.963 222 503.241C222 503.645 224.671 503.746 235.281 503.746C242.586 503.746 248.562 503.665 248.562 503.565C248.562 503.465 249.101 500.872 249.759 497.803C250.418 494.734 251.546 489.411 252.266 485.973C257.847 459.356 261.951 440.022 262.3 438.707L262.715 437.145L263.852 440.075C264.478 441.686 268.694 452.76 273.223 464.684C277.751 476.608 282.598 489.352 283.995 493.004C285.392 496.657 286.88 500.568 287.303 501.696L288.072 503.746H301.693C309.184 503.746 315.399 503.608 315.503 503.439C315.607 503.271 314.46 500.239 312.954 496.701C311.448 493.164 308.666 486.579 306.774 482.067C304.881 477.555 301.715 470.084 299.739 465.465C295.832 456.333 295.477 455.309 296.226 455.309C297.117 455.309 303.892 451.917 306.393 450.219C312.415 446.129 318.146 439.23 320.783 432.895C323.013 427.54 323.626 424.479 323.848 417.598C324.026 412.081 323.951 410.941 323.223 408.062C320.238 396.257 311.523 388.455 298.582 386C295.864 385.484 291.493 385.387 271.056 385.387H246.761L246.089 388.805ZM707.742 386.388C706.668 386.912 702.537 388.757 698.562 390.488C694.588 392.219 690.545 394.002 689.578 394.452C687.507 395.414 679.218 399.041 675.32 400.69C673.816 401.327 671.795 402.209 670.828 402.651C669.861 403.092 668.159 403.871 667.045 404.381C665.93 404.891 664.929 405.309 664.819 405.309C664.709 405.309 663.336 405.914 661.767 406.655C657.682 408.581 635.092 418.544 622.586 423.935C619.363 425.324 615.672 426.957 614.383 427.563C611.591 428.878 603.134 432.62 598.758 434.478C597.039 435.208 594.93 436.143 594.07 436.557C593.211 436.97 590.838 438.039 588.797 438.932C577.608 443.827 573.082 445.818 570.633 446.923C569.559 447.408 567.537 448.282 566.141 448.865C564.744 449.448 562.547 450.414 561.258 451.014C559.969 451.613 557.068 452.894 554.812 453.861C552.557 454.827 549.393 456.231 547.781 456.98C546.17 457.729 543.709 458.816 542.312 459.396C540.916 459.976 538.279 461.123 536.453 461.946C530.808 464.488 519.673 469.397 513.016 472.277C511.404 472.975 509.295 473.911 508.328 474.358C507.361 474.805 504.285 476.173 501.492 477.396C498.699 478.62 493.426 480.937 489.773 482.546C486.121 484.154 481.99 485.957 480.594 486.553C479.197 487.148 476.912 488.166 475.516 488.815C474.119 489.464 469.9 491.339 466.141 492.983C462.381 494.627 458.162 496.478 456.766 497.096C455.369 497.713 449.568 500.271 443.875 502.78C438.182 505.289 430.595 508.642 427.016 510.232C423.438 511.821 420.415 513.121 420.299 513.121C420.183 513.121 418.805 513.726 417.236 514.464C415.666 515.203 410.516 517.502 405.789 519.573C401.062 521.645 396.492 523.662 395.633 524.055C394.773 524.448 392.752 525.33 391.141 526.015C389.529 526.699 387.112 527.77 385.768 528.393C384.425 529.017 383.246 529.528 383.148 529.528C383.051 529.528 381.074 530.389 378.755 531.443C376.436 532.495 367.068 536.643 357.938 540.66C348.807 544.676 339.842 548.638 338.016 549.463C333.202 551.638 314.946 559.606 314.777 559.606C314.697 559.606 312.994 560.376 310.992 561.318C308.99 562.259 307.04 563.134 306.659 563.262C305.891 563.52 305.861 563.591 305.243 566.637C305.003 567.819 304.375 570.807 303.847 573.278C303.32 575.748 301.737 583.307 300.33 590.075C298.923 596.842 297.684 602.772 297.576 603.253C297.357 604.221 297.311 604.231 301.297 602.468C302.264 602.039 303.758 601.386 304.617 601.015C307.697 599.686 310.112 598.612 311.648 597.887C312.508 597.482 316.639 595.666 320.828 593.852C325.018 592.037 329.412 590.108 330.594 589.563C332.413 588.725 335.393 587.412 347.781 581.993C348.533 581.664 349.852 581.077 350.711 580.689C352.964 579.671 357.795 577.546 363.406 575.107C366.092 573.939 369.08 572.623 370.047 572.183C375.109 569.878 399.321 559.215 399.493 559.215C399.603 559.215 400.977 558.619 402.546 557.89C404.115 557.161 406.277 556.177 407.352 555.704C408.426 555.23 409.832 554.61 410.477 554.325C414.881 552.383 425.673 547.642 429.422 546.003C431.893 544.923 435.936 543.134 438.406 542.028C440.877 540.922 444.744 539.221 447 538.249C449.256 537.277 452.068 536.039 453.25 535.5C456.957 533.807 458.309 533.207 466.727 529.517C471.238 527.539 475.633 525.607 476.492 525.222C477.352 524.837 481.746 522.902 486.258 520.922C490.77 518.941 495.552 516.816 496.886 516.198C498.22 515.58 499.391 515.075 499.488 515.075C499.585 515.075 501.043 514.444 502.727 513.674C504.411 512.903 506.717 511.848 507.85 511.33C508.984 510.811 510.002 510.387 510.112 510.387C510.299 510.387 516.896 507.468 519.461 506.251C520.105 505.945 522.039 505.104 523.758 504.382C526.748 503.127 533.343 500.218 541.727 496.459C543.875 495.495 546.6 494.293 547.781 493.786C548.963 493.279 551.775 492.042 554.031 491.038C556.287 490.033 558.66 488.985 559.305 488.707C559.949 488.43 561.656 487.657 563.097 486.99C564.538 486.323 565.824 485.778 565.954 485.778C566.084 485.778 567.102 485.348 568.216 484.824C569.33 484.299 574.725 481.911 580.203 479.518C585.682 477.124 591.658 474.49 593.484 473.664C595.311 472.839 597.684 471.783 598.758 471.317C599.832 470.852 601.59 470.066 602.664 469.571C603.738 469.076 605.76 468.193 607.156 467.609C610.303 466.293 632.188 456.603 635.735 454.955C637.166 454.29 638.429 453.746 638.54 453.746C638.651 453.746 639.853 453.239 641.211 452.618C642.569 451.997 644.998 450.922 646.609 450.229C649.841 448.839 658.416 445.073 660.867 443.968C661.727 443.58 664.891 442.181 667.898 440.858C670.906 439.535 674.07 438.132 674.93 437.741C675.789 437.349 677.986 436.38 679.812 435.587C683.006 434.201 687.422 432.228 692.623 429.864C693.975 429.249 695.198 428.746 695.34 428.746C695.482 428.746 696.943 428.116 698.586 427.345L701.574 425.942L703.598 416.309C706.176 404.04 706.844 400.894 708.301 394.176C709.555 388.39 710.086 385.371 709.843 385.411C709.762 385.424 708.816 385.864 707.742 386.388ZM289.262 409.112C294.032 410.848 296.213 413.821 296.525 419.014C296.916 425.546 293.818 431.105 288.099 434.13C284.32 436.13 283.381 436.275 272.665 436.522L262.588 436.754L262.804 435.895C262.923 435.423 264.252 429.183 265.758 422.028C267.263 414.874 268.583 408.78 268.69 408.486C268.85 408.049 270.527 407.984 277.962 408.128C285.888 408.281 287.321 408.406 289.262 409.112ZM616.404 487.243C615.659 488.478 614.088 491.159 612.914 493.2C610.416 497.542 603.403 509.629 595.236 523.668C592.049 529.147 588.272 535.651 586.843 538.121C583.619 543.692 571.654 564.283 558.962 586.1C553.672 595.194 549.344 602.797 549.344 602.995C549.344 603.209 555.333 603.356 564.102 603.356H578.86L585.489 591.251L592.117 579.146L613.711 579.141C630.636 579.138 635.344 579.243 635.482 579.625C635.617 579.999 637.722 595.494 638.547 602.184L638.667 603.161H652.502C661.507 603.161 666.314 603.024 666.272 602.77C666.236 602.555 666.022 601.061 665.794 599.45C665.241 595.542 661.559 571.069 652.276 509.606C651.514 504.557 650.454 497.526 649.921 493.981C649.388 490.436 648.856 486.964 648.739 486.266L648.527 484.996H633.143H617.76L616.404 487.243ZM698.064 489.977C695.673 501.548 693.911 509.915 693.52 511.559C693.291 512.526 691.419 521.315 689.361 531.09C687.303 540.866 683.082 560.879 679.982 575.566C676.881 590.252 674.344 602.521 674.344 602.831C674.344 603.318 678.125 603.376 702.176 603.257C726.664 603.137 730.42 603.039 733.438 602.441C748.463 599.468 759.15 590.793 763.357 578.152C766.375 569.082 765.732 560.088 761.575 553.231C759.681 550.106 755.518 546.008 752.78 544.575L750.622 543.445L754.377 541.596C762.254 537.719 768.697 529.763 771.111 520.934C772.085 517.37 772.082 508.463 771.105 504.918C768.292 494.704 760.835 488.12 749.454 485.8C745.735 485.042 744.189 484.996 722.302 484.996H699.093L698.064 489.977ZM738.602 508.048C743.087 509.716 745.137 512.714 745.104 517.561C745.059 524.355 741.582 528.981 734.891 531.152C732.728 531.854 731.093 532.004 723.855 532.166C717.2 532.315 715.359 532.25 715.359 531.866C715.359 531.597 716.502 525.974 717.898 519.371C719.295 512.769 720.438 507.23 720.438 507.063C720.438 506.896 723.997 506.853 728.348 506.968C735.251 507.15 736.556 507.287 738.602 508.048ZM629.642 533.629C630.843 543.082 631.924 551.739 632.045 552.868L632.266 554.918H618.901H605.536L606.693 552.868C607.329 551.739 612.109 542.995 617.316 533.434C622.522 523.873 626.888 515.875 627.018 515.661C627.323 515.158 627.122 513.784 629.642 533.629ZM519.266 518.857C517.654 519.597 511.238 522.421 505.008 525.134C498.777 527.846 493.614 530.113 493.533 530.171C493.453 530.229 492.709 533.492 491.88 537.421C491.052 541.352 490.027 546.149 489.603 548.082C489.18 550.016 488.131 554.938 487.273 559.02C484.977 569.94 481.551 586.13 479.792 594.374C478.944 598.35 478.25 601.997 478.25 602.479V603.356H509.863H541.476L541.923 601.11C542.17 599.875 542.788 596.93 543.298 594.567C545.474 584.47 546.609 578.877 546.609 578.248C546.609 577.62 545.363 577.575 528.243 577.575H509.876L510.077 576.696C510.35 575.509 512.531 565.32 517.71 541.051C520.094 529.879 522.192 520.079 522.372 519.272C522.552 518.464 522.586 517.739 522.447 517.659C522.309 517.579 520.877 518.118 519.266 518.857ZM729.5 554.576C733.801 555.489 737.337 558.191 738.441 561.41C738.727 562.244 738.949 564.381 738.933 566.16C738.908 569.066 738.76 569.686 737.473 572.291C735.82 575.636 733.876 577.523 730.366 579.192C726.546 581.008 723.025 581.481 713.326 581.481H704.721L704.913 580.602C705.52 577.818 707.338 569.37 708.716 562.926C709.589 558.844 710.398 555.197 710.514 554.821C710.706 554.198 711.463 554.137 719.077 554.137C723.774 554.137 728.336 554.329 729.5 554.576Z" fill="white"></path> </svg> 