<?xml version="1.0" encoding="UTF-8"?> <svg xmlns="http://www.w3.org/2000/svg" width="135" height="134" viewBox="0 0 135 134" fill="none"> <rect x="0.111816" width="134.777" height="133.436" rx="20" fill="#8E8E8E"></rect> <path fill-rule="evenodd" clip-rule="evenodd" d="M64.2407 37.8028C59.917 38.2201 55.4141 39.7795 51.5073 42.2127C49.5362 43.4405 45.1893 47.3925 43.9255 49.1061L43.4128 49.8009L42.2422 49.4106C39.9084 48.6321 34.155 45.6129 29.2696 42.603C23.2376 38.8868 23.0853 38.811 22.5529 39.2547C22.2514 39.5059 22.1849 39.8566 22.2789 40.697C22.3815 41.612 22.579 41.9637 23.401 42.6965C24.4281 43.6122 24.6619 44.1307 24.0474 44.1307C23.0038 44.1307 23.4302 45.1276 25.329 47.1269C26.0636 47.9005 26.6126 48.5332 26.549 48.5332C26.4857 48.5332 25.9189 48.3571 25.2898 48.1419C23.9809 47.6941 23.4241 47.8105 23.4241 48.532C23.4241 49.0417 25.3933 51.2237 25.8534 51.2237C25.9908 51.2237 26.1033 51.3753 26.1033 51.5607C26.1033 51.7461 26.3501 52.0665 26.6513 52.2727C27.1772 52.6325 27.1589 52.6425 26.1959 52.5193C25.5504 52.4366 25.1276 52.4958 25.011 52.6853C24.7973 53.0321 26.3018 54.6657 27.5647 55.4582L28.4172 55.9931L27.5839 56.1154C27.1258 56.1826 26.7091 56.3649 26.6579 56.5204C26.5322 56.903 27.9566 58.4994 28.8266 58.9511C29.2129 59.1517 29.4676 59.4156 29.3926 59.5376C29.3174 59.6597 29.5015 59.8915 29.8018 60.053L30.3476 60.3462L29.8086 60.5465C28.368 61.0817 30.2794 63.1489 32.9881 63.9854L34.7498 64.5294L33.501 64.8143C31.951 65.1677 31.7053 65.3174 31.7053 65.9069C31.7053 66.7355 34.1738 67.616 36.7329 67.6999L37.7414 67.7332L37.8937 69.0339C37.9775 69.7493 37.9765 70.4478 37.8915 70.586C37.8065 70.7242 37.8425 71.0742 37.9716 71.364C38.1009 71.6539 38.4921 73.0779 38.8411 74.5285C41.1352 84.0614 48.7726 92.1929 58.2535 95.1964C61.5962 96.2552 63.7904 96.5776 67.5089 96.5553C78.5174 96.4895 88.2823 90.4387 93.3001 80.5739C95.233 76.774 96.4927 72.2803 96.4927 69.1848V67.6109H97.6962C98.3582 67.6109 98.9673 67.5008 99.0501 67.3663C99.1329 67.2318 99.5265 67.1217 99.9248 67.1217C100.816 67.1217 102.103 66.601 102.551 66.059C103.03 65.4791 102.552 64.9987 101.289 64.7898C99.7211 64.5303 99.4515 64.2801 100.523 64.0783C102.567 63.6934 105.017 61.9986 105.017 60.9702C105.017 60.7092 104.777 60.4127 104.473 60.3L103.929 60.098L104.487 59.9204C104.793 59.8226 105.002 59.6161 104.951 59.4618C104.9 59.3072 105.308 58.8941 105.858 58.5439C107.716 57.3603 108.264 55.6959 106.719 55.9234C105.911 56.0427 105.726 55.7439 106.463 55.5088C107.197 55.275 109.471 53.0197 109.343 52.6526C109.268 52.4376 108.901 52.3466 108.28 52.3886C107.436 52.4456 107.378 52.4158 107.757 52.1169C107.992 51.9322 108.184 51.6683 108.184 51.5306C108.184 51.3927 108.479 51.0857 108.84 50.8485C110.382 49.8335 111.356 48.1346 110.648 47.6948C110.529 47.6212 109.899 47.7237 109.247 47.9223C108.595 48.1209 107.964 48.2845 107.843 48.286C107.723 48.2874 108.292 47.6244 109.108 46.8123C110.686 45.2428 111.126 44.445 110.596 44.1163C110.421 44.0074 110.19 43.9727 110.083 44.039C109.976 44.1053 109.889 43.9507 109.889 43.6954C109.889 43.4371 110.159 43.1071 110.498 42.9521C111.789 42.3611 112.603 39.7341 111.722 38.9998C111.301 38.6488 110.443 39.1003 104.53 42.7872C101.078 44.9401 94.4127 48.4173 91.9579 49.3467L90.9546 49.7266L89.7112 48.1686C86.3311 43.9326 80.2839 40.0848 74.7427 38.6442C72.6877 38.11 67.9044 37.4589 66.7782 37.5602C66.5772 37.5783 65.4354 37.6874 64.2407 37.8028ZM28.111 42.1907C33.3191 45.4104 36.0925 46.9723 38.9461 48.2921L41.0824 49.2802L39.3468 49.2125C38.2473 49.1697 37.5132 49.2501 37.3444 49.4323C37.1506 49.6417 37.1591 49.7579 37.3751 49.8582C37.5388 49.9342 37.4124 49.9306 37.0943 49.8501C36.7765 49.7699 36.338 49.6691 36.1201 49.6265C35.9023 49.584 35.6967 49.5268 35.6631 49.4998C35.6295 49.4727 35.5199 49.4328 35.4196 49.4113C35.3192 49.3895 35.0177 49.2513 34.7498 49.1039C34.4819 48.9564 33.8985 48.7573 33.4535 48.6612C32.5127 48.4582 32.6142 48.2681 33.8564 47.9061L34.7498 47.6457L33.7146 47.1061C33.1454 46.8094 32.6795 46.6671 32.6795 46.7896C32.6795 46.9124 32.9535 47.0819 33.2884 47.1663C34.1845 47.392 34.0301 47.7339 32.9496 47.9174C32.1736 48.049 31.7213 47.9372 30.4531 47.3005C28.0304 46.0842 24.8366 43.8778 24.9749 43.5158C25.0468 43.328 24.7925 43.0717 24.3531 42.889C23.4517 42.514 22.6957 41.3427 22.6944 40.3193C22.6932 39.4354 22.8915 39.1691 23.4037 39.3664C23.6073 39.445 25.7256 40.7158 28.111 42.1907ZM111.745 39.5959C112.145 40.6412 110.491 42.9031 109.322 42.9115C108.926 42.9144 108.877 42.9689 109.128 43.1289C109.314 43.2468 109.383 43.4745 109.282 43.6376C108.993 44.1075 105.018 46.6409 103.552 47.29C102.817 47.6151 101.557 48.1808 100.751 48.5469C98.6546 49.4991 97.4507 49.8024 97.06 49.4769C96.8159 49.2736 97.1379 49.0217 98.4483 48.3911C99.8592 47.7122 100.265 47.6124 100.793 47.8139C101.144 47.948 101.484 48.0049 101.548 47.9406C101.612 47.876 101.362 47.7469 100.992 47.6535L100.318 47.484L100.985 47.1335C101.351 46.9405 101.606 46.738 101.551 46.6832C101.497 46.6284 100.364 47.1232 99.0333 47.7829C97.051 48.7659 96.3154 49.0031 94.9568 49.0975C94.0452 49.1611 93.3359 49.176 93.3807 49.131C93.4256 49.0858 95.1032 48.2319 97.1087 47.233C99.1142 46.2341 103.002 44.0287 105.748 42.3318C108.494 40.6346 110.936 39.2446 111.175 39.2427C111.414 39.2407 111.67 39.3995 111.745 39.5959ZM64.4356 40.7457C64.7004 42.0755 64.0537 41.9842 63.7244 40.6454C63.5999 40.1393 63.6484 39.9728 63.9205 39.9728C64.1309 39.9728 64.3457 40.2949 64.4356 40.7457ZM65.3687 40.7065C65.442 41.2072 65.3733 41.4403 65.1529 41.4403C64.9751 41.4403 64.8282 41.3576 64.8263 41.2568C64.8246 41.1561 64.7569 40.8256 64.6762 40.5231C64.5715 40.131 64.6346 39.9728 64.8954 39.9728C65.1161 39.9728 65.3041 40.2646 65.3687 40.7065ZM67.9453 41.8683L67.8742 43.7638L66.8391 43.8389L65.8039 43.9143V41.9434V39.9728H66.9102H68.0164L67.9453 41.8683ZM69.4793 40.7677L69.5012 41.5626L69.7299 40.7677C70.0585 39.6247 70.6752 39.7221 70.6752 40.9169C70.6752 42.8647 70.3868 44.1579 69.9708 44.0772C69.6868 44.0219 69.5942 43.7665 69.6344 43.1487L69.6895 42.2963L69.3692 43.1524C69.1929 43.6232 68.9761 43.981 68.8877 43.9473C68.799 43.9135 68.6212 43.8861 68.4924 43.8861C68.2788 43.8861 68.3769 41.0646 68.6178 40.2785C68.8224 39.6103 69.4574 39.9708 69.4793 40.7677ZM72.989 40.7391C73.151 40.9005 73.0957 41.0592 72.8236 41.2133C72.5572 41.3645 72.3555 41.9202 72.2452 42.8075C72.1426 43.6298 71.9388 44.2222 71.7303 44.3027C71.1479 44.5272 71.0841 44.2063 71.3954 42.6172C71.5985 41.5804 71.6136 41.0614 71.4424 41.0042C71.3033 40.9575 71.2531 40.7532 71.3308 40.5502C71.4816 40.1555 72.5219 40.2739 72.989 40.7391ZM62.1948 41.4848C62.1468 42.0363 62.3105 42.753 62.6262 43.3742C63.1296 44.3653 63.1299 44.3753 62.6503 44.3753C62.3768 44.3753 62.0002 44.0825 61.7849 43.7027L61.404 43.0301L61.5462 43.7939C61.6514 44.3589 61.5876 44.5967 61.3014 44.707C60.8579 44.8779 60.8367 44.8317 60.3326 42.5869C59.8734 40.5417 59.8635 40.7065 60.4456 40.7065C60.7702 40.7065 60.9327 40.8697 60.9327 41.1957C60.9327 41.4647 61.0423 41.6849 61.1763 41.6849C61.3102 41.6849 61.4198 41.4016 61.4198 41.0556C61.4198 40.5867 61.5284 40.4478 61.846 40.5113C62.1766 40.5774 62.255 40.796 62.1948 41.4848ZM66.7782 41.2365C66.7782 41.5278 66.8544 41.6898 66.9477 41.5963C67.2107 41.3319 67.2478 40.7065 67.0003 40.7065C66.878 40.7065 66.7782 40.945 66.7782 41.2365ZM74.9643 41.0308L75.7218 41.318L75.2001 43.1524C74.8554 44.3643 74.5571 44.9868 74.3208 44.9868C74.0738 44.9868 73.9801 44.7598 74.0176 44.253C74.0692 43.5559 74.0582 43.5466 73.7976 44.0696C73.4635 44.7402 72.4758 44.8549 72.7457 44.1919C72.8417 43.9563 73.0533 43.2067 73.2163 42.5255C73.6817 40.582 73.7119 40.5561 74.9643 41.0308ZM59.69 42.6593C59.9716 43.3167 60.202 43.9717 60.202 44.1148C60.202 44.6487 59.2816 45.2724 58.4469 45.3037C57.6142 45.3353 57.5654 45.2878 57.0574 43.9549L56.531 42.5734L57.1631 42.0679C57.5109 41.79 58.1064 41.5403 58.4866 41.5132C59.0979 41.4696 59.237 41.6022 59.69 42.6593ZM77.1374 41.7331C77.8371 42.053 77.8366 42.2044 77.1325 44.1307C76.6191 45.5354 76.4505 45.6951 75.686 45.5024C74.957 45.3184 74.835 44.6199 75.532 44.6199C76.1726 44.6199 76.3804 44.2131 75.8828 43.9333C75.4181 43.6724 75.6667 43.0526 76.1597 43.2426C76.6225 43.4209 76.8609 42.6148 76.4188 42.3663C76.2182 42.2535 76.1159 41.9989 76.1916 41.8008C76.3575 41.3667 76.3394 41.3679 77.1374 41.7331ZM74.2677 41.826C74.1674 41.9277 74.085 42.2347 74.085 42.5084C74.085 42.8682 74.1586 42.9318 74.3515 42.7381C74.4979 42.5911 74.5802 42.2839 74.5342 42.0559C74.4881 41.8277 74.3681 41.7242 74.2677 41.826ZM66.7782 42.6488C66.7782 42.9256 66.8878 43.1524 67.0217 43.1524C67.1557 43.1524 67.2653 42.9939 67.2653 42.7999C67.2653 42.606 67.1557 42.3795 67.0217 42.2963C66.8878 42.2132 66.7782 42.3719 66.7782 42.6488ZM58.4971 42.4639C58.4971 42.5426 58.6668 42.9775 58.8743 43.43C59.2507 44.2501 59.2514 44.2506 59.1009 43.5193C58.9703 42.8855 58.4971 42.0583 58.4971 42.4639ZM79.0749 42.6581C79.156 42.7899 79.0939 43.1389 78.9368 43.4337C78.7003 43.8771 78.7244 44.0236 79.0768 44.2824C79.5645 44.6404 79.4212 45.676 78.786 46.3841C78.4385 46.7713 78.3522 46.7735 77.6481 46.4142C77.2289 46.2002 76.8517 45.9954 76.8095 45.959C76.6583 45.8284 78.4804 42.4186 78.7015 42.4186C78.8257 42.4186 78.9938 42.5265 79.0749 42.6581ZM56.1864 43.6489C56.43 44.1909 56.8849 44.9829 57.1977 45.4084C57.8514 46.2982 57.9266 46.8212 57.401 46.8212C57.2001 46.8212 57.0357 46.7145 57.0357 46.5842C57.0357 46.1441 56.2695 46.6387 56.0488 47.2213C55.9285 47.5393 55.7353 47.7995 55.6194 47.7995C55.3697 47.7995 54.7735 46.5656 54.9418 46.3966C55.0056 46.3322 54.7905 45.6723 54.4637 44.9303C54.1368 44.188 53.8694 43.543 53.8694 43.4968C53.8694 43.3588 55.1871 42.6835 55.4764 42.673C55.6235 42.6676 55.9431 43.1066 56.1864 43.6489ZM57.7937 43.5804C58.0694 44.4103 58.2535 44.6006 58.2535 44.0551C58.2535 43.879 58.0906 43.5215 57.8916 43.2602C57.5603 42.8259 57.5521 42.8533 57.7937 43.5804ZM55.3948 44.8522C55.6749 45.518 55.9908 46.0089 56.0968 45.9431C56.3113 45.81 55.3342 43.6415 55.0597 43.6415C54.964 43.6415 55.1147 44.1862 55.3948 44.8522ZM81.7757 44.0432L82.3861 44.4448L81.8595 45.0076C81.3697 45.5312 81.2928 45.5442 80.7623 45.1954C80.2238 44.841 80.2133 44.7869 80.5764 44.2308C81.0331 43.5308 81.0039 43.5352 81.7757 44.0432ZM81.1483 44.4976C80.9761 44.706 80.8902 44.9312 80.9571 44.9985C81.0241 45.0658 81.2197 44.9506 81.3919 44.7422C81.5641 44.5338 81.6501 44.3085 81.5831 44.2413C81.5161 44.174 81.3205 44.2892 81.1483 44.4976ZM25.4944 44.8319C26.0303 45.0773 27.0715 45.6655 27.8083 46.1393C30.0144 47.5578 33.0587 48.9997 35.7718 49.9115C38.5764 50.8539 40.2226 51.6891 39.3775 51.741C39.1095 51.7574 38.8148 51.7601 38.7225 51.7469C38.6304 51.7336 38.5961 51.9384 38.6468 52.2018C38.6972 52.4654 38.6358 52.7448 38.5101 52.8228C38.3842 52.9008 38.2814 52.8602 38.2814 52.7328C38.2814 52.6053 38.1443 52.506 37.977 52.5124C36.6837 52.5606 36.414 52.314 36.9021 51.5294C37.0178 51.3435 36.9674 51.2225 36.7735 51.2203C36.5982 51.2185 36.2216 51.1542 35.9367 51.0774C35.5404 50.9705 35.4259 51.0432 35.4495 51.3866C35.4802 51.8325 35.3506 51.9574 34.8572 51.9574C34.7154 51.9574 34.6575 51.8628 34.7286 51.7473C34.7997 51.6317 34.561 51.5698 34.1979 51.6099C32.5285 51.7938 27.9337 49.1134 25.4296 46.4949C23.4049 44.3773 23.4239 43.8842 25.4944 44.8319ZM110.376 44.6001C110.376 44.7238 109.811 45.4451 109.122 46.2031C107.082 48.4437 102.585 51.1809 100.412 51.5042C99.587 51.627 99.4854 50.7876 100.301 50.5821C101.162 50.3649 100.814 50.1668 99.9179 50.3642C99.4301 50.4718 99.2299 50.6296 99.3456 50.8155C99.65 51.3046 99.6247 51.6737 99.2774 51.8075C98.8738 51.9631 98.5737 51.5661 98.9284 51.346C99.454 51.0197 98.8877 50.781 98.1336 51.0107C97.6998 51.143 96.9616 51.2998 96.4927 51.3592C96.0239 51.4189 95.3938 51.5248 95.0923 51.5947C94.7907 51.6649 94.5442 51.6759 94.5442 51.6194C94.5442 51.3452 96.3873 50.4958 98.7715 49.6716C101.713 48.6543 104.125 47.495 107.189 45.6259C109.082 44.4707 110.376 44.0544 110.376 44.6001ZM78.0661 45.2419C77.8395 45.8347 78.1557 45.9419 78.4579 45.3747C78.6465 45.0208 78.6501 44.8645 78.4701 44.8645C78.3272 44.8645 78.1455 45.0342 78.0661 45.2419ZM110.19 48.8598C109.942 49.2856 109.174 50.0313 108.482 50.5171C107.789 51.0028 107.286 51.4634 107.362 51.5402C107.674 51.8532 102.785 53.909 100.862 54.2734C99.2479 54.5794 98.9269 54.6036 99.0462 54.4096C99.1125 54.302 98.9759 54.0694 98.743 53.8926C98.392 53.626 98.3684 53.6262 98.6049 53.8946C99.0022 54.3453 98.7389 54.9976 98.3056 54.6361C98.1283 54.4884 98.0133 54.238 98.0506 54.0797C98.0876 53.9215 98.0718 53.875 98.0152 53.9767C97.9587 54.0785 97.7848 54.09 97.629 54.0022C97.4161 53.8823 97.4166 53.9197 97.6307 54.1526C98.0308 54.5877 97.7627 55.2403 97.3313 54.8807C97.154 54.733 97.0688 54.4551 97.1421 54.2631C97.2894 53.8774 97.2037 53.8432 96.6379 54.0611C96.3159 54.1854 96.3412 54.2795 96.8006 54.6645C97.1002 54.9154 97.23 55.1243 97.0895 55.129C96.9487 55.1334 96.6861 54.9996 96.5056 54.8313C96.3076 54.6467 96.2394 54.6364 96.3339 54.8056C96.4197 54.9597 96.3205 55.151 96.1133 55.231C95.9062 55.3107 95.7991 55.2747 95.8751 55.1512C95.9513 55.0275 95.8904 54.8499 95.7401 54.7565C95.5463 54.6361 95.5628 54.5253 95.7969 54.3764C96.0346 54.2252 95.963 54.1651 95.5416 54.1624C94.9814 54.1589 94.9741 54.179 95.3748 54.6237C95.6364 54.9137 95.6999 55.1466 95.5443 55.2434C95.2311 55.4376 94.3007 54.8729 94.3007 54.4884C94.3007 53.8809 95.7238 53.0038 96.9818 52.8362C98.9583 52.5731 102.043 51.5204 104.043 50.4263C105.997 49.3575 110.128 47.7716 110.447 47.9675C110.553 48.0326 110.437 48.4342 110.19 48.8598ZM25.3892 48.4291C26.117 48.6406 28.1393 49.5211 29.8834 50.3855C32.6973 51.7801 36.7957 53.1537 38.2517 53.1904C38.469 53.1958 39.0304 53.5323 39.4992 53.9381C40.282 54.6156 40.3171 54.7017 39.9294 54.9918C39.697 55.1657 39.5553 55.3562 39.6144 55.4156C39.6734 55.4751 39.5182 55.5391 39.2693 55.558C38.9736 55.5802 38.8377 55.4496 38.8774 55.1811C38.9108 54.9551 39.1112 54.7687 39.3231 54.767C39.535 54.7653 39.7893 54.6829 39.888 54.5835C39.9868 54.4845 39.8434 54.4033 39.5696 54.4033C39.0294 54.4033 38.43 54.96 38.6894 55.2207C38.7776 55.3092 38.5954 55.3816 38.2843 55.3816C37.7232 55.3816 37.7225 55.3772 38.1811 54.8313L38.6434 54.281L38.013 54.8382C37.2368 55.5247 36.5697 55.3535 36.7226 54.507C36.803 54.0616 36.7224 53.9151 36.3987 53.9178C36.1483 53.92 36.0733 53.997 36.2192 54.1012C36.5073 54.3069 36.5463 54.8925 36.272 54.8925C36.1717 54.8925 35.9861 54.8925 35.8597 54.8925C35.7335 54.8925 35.6753 54.6574 35.7304 54.3703C35.7854 54.0829 35.7518 53.9271 35.6556 54.0237C35.5591 54.1203 35.4805 54.3003 35.4805 54.4236C35.4805 54.5469 35.3981 54.6479 35.2978 54.6479C35.1974 54.6479 34.8345 54.6479 34.4918 54.6479C34.1492 54.6479 33.9299 54.5481 34.005 54.426C34.0802 54.3042 33.9382 54.2578 33.6896 54.3231C33.4409 54.3884 32.3721 54.1435 31.3146 53.7794C29.2173 53.0571 26.5003 51.7434 27.0644 51.7246C27.2581 51.7182 26.9292 51.3973 26.3337 51.0119C25.1534 50.248 24.0689 49.1467 23.8328 48.4721C23.6497 47.9487 23.731 47.9465 25.3892 48.4291ZM35.6536 48.3875C35.8263 48.5765 36.0224 48.7182 36.0894 48.7025C36.1563 48.6868 36.4579 48.8113 36.7592 48.9791C37.0604 49.1469 37.3072 49.1907 37.3072 49.0762C37.3072 48.8938 35.7886 48.0441 35.4627 48.0441C35.395 48.0441 35.4807 48.1987 35.6536 48.3875ZM44.7022 50.5807C46.2605 51.1369 46.9289 51.494 46.931 51.7713C46.9327 51.9892 47.0148 52.2487 47.1137 52.3478C47.4783 52.7139 47.2745 53.1777 46.5935 53.5311C46.2086 53.7312 45.825 53.8256 45.741 53.7412C45.4456 53.4448 45.5929 52.9705 46.0145 52.8597C46.3294 52.777 46.2951 52.7406 45.8825 52.7196C44.8503 52.6672 41.6255 51.9259 40.3588 51.4499C38.9602 50.9246 37.9424 50.1091 38.1877 49.7107C38.4919 49.2161 42.3073 49.7256 44.7022 50.5807ZM96.2492 49.7383C96.2492 50.5442 92.3914 52.0775 89.6374 52.3666C88.4769 52.4884 88.2847 52.5687 88.5999 52.8C88.9452 53.0537 88.9469 53.1165 88.6152 53.3932C88.3127 53.6451 88.1308 53.6275 87.6293 53.2978C87.1173 52.9607 87.0389 52.7638 87.1609 52.1196C87.2415 51.694 87.3336 51.313 87.3655 51.2728C87.3974 51.2325 88.4503 50.8253 89.7051 50.3679C91.6273 49.6671 92.3227 49.5341 94.118 49.5238C95.2903 49.517 96.2492 49.6136 96.2492 49.7383ZM97.1016 49.7562C97.1845 49.8907 97.136 50.0008 96.9942 50.0008C96.8525 50.0008 96.7363 49.8907 96.7363 49.7562C96.7363 49.6217 96.7845 49.5116 96.8437 49.5116C96.9029 49.5116 97.0188 49.6217 97.1016 49.7562ZM64.5861 50.2074C64.5861 50.3212 64.3652 50.6149 64.0951 50.8602C63.6068 51.3042 63.6068 51.309 64.0837 51.8188C64.9804 52.7775 65.3205 54.1108 65.6164 57.8289L65.9079 61.4963H67.1805H68.4532L68.5959 60.4568C68.6743 59.8849 68.8404 58.1878 68.9651 56.6848C69.2045 53.7953 69.5631 52.578 70.4075 51.7879L70.9243 51.3044L70.4343 50.8593C70.1649 50.6144 69.9445 50.3212 69.9445 50.2074C69.9445 50.0937 71.5934 50.0008 73.6089 50.0008C77.1568 50.0008 77.2923 50.0196 77.8607 50.5905C78.1837 50.9148 78.8089 51.2572 79.25 51.3514C79.6913 51.4455 80.2401 51.6889 80.4695 51.8921C80.8375 52.2179 80.8468 52.3373 80.5489 52.9042C80.3631 53.2579 80.0545 53.7573 79.8631 54.0144C79.5352 54.4542 79.4814 54.4578 78.9378 54.0755C78.2894 53.6194 75.4371 53.4983 75.1801 53.9158C74.9543 54.2827 75.751 54.5241 77.1905 54.5248C77.8936 54.5253 78.4692 54.6002 78.4692 54.6912C78.4692 54.7824 78.1803 55.0852 77.8274 55.3638C77.3439 55.7458 76.8336 55.8708 75.7571 55.8708C74.7453 55.8708 74.3286 55.9637 74.3286 56.1897C74.3286 56.9475 75.6319 59.0279 76.8536 60.22C77.5816 60.9305 78.3722 61.9211 78.6102 62.4213C79.1881 63.6354 79.3331 65.6478 78.9436 67.0452C78.628 68.1773 78.6301 68.1864 79.3811 68.8142C81.7356 70.7822 85.1866 72.3018 87.4067 72.3483C88.2513 72.3659 88.9423 72.4691 88.9423 72.5774C88.9423 72.686 88.4289 73.0028 87.8015 73.2813C86.8348 73.7108 86.3418 73.7681 84.5743 73.6563C83.4086 73.5827 81.8522 73.2987 81.0475 73.0128C80.2552 72.7315 79.5608 72.5478 79.504 72.6048C79.288 72.8215 80.6317 73.4866 83.0359 74.3521C84.4089 74.8464 85.5324 75.3449 85.5324 75.4599C85.5324 75.5746 84.906 75.8514 84.1405 76.0747C82.9619 76.4189 82.5125 76.4375 81.2063 76.1958C80.358 76.0388 79.0493 75.6374 78.2984 75.3041C76.8858 74.6767 76.4783 74.6745 76.9927 75.2972C77.2859 75.6519 78.3756 76.2249 80.2959 77.0338C81.1559 77.3962 81.2129 77.4682 80.783 77.6467C80.5151 77.758 79.3642 77.8544 78.2256 77.861C76.6605 77.8698 75.8947 77.7541 75.0875 77.3862C74.2755 77.0162 73.9401 76.966 73.6871 77.1768C73.226 77.5611 73.2367 77.6298 74.305 81.1937C74.8279 82.9378 75.2215 84.4007 75.1801 84.4442C74.9894 84.644 73.5926 83.6897 72.875 82.8691L72.08 81.9597L72.2235 82.9178C72.5655 85.1992 72.612 86.1543 72.4405 87.3694C72.3404 88.0802 72.1487 88.6848 72.0148 88.7127C71.6765 88.7839 70.5237 86.6117 69.9835 84.8854L69.5338 83.4495L69.3814 85.2523C69.1256 88.2747 68.1424 90.6019 67.1209 90.6019C66.2618 90.6019 65.0754 87.1417 65.0701 84.6193L65.0667 83.142L64.3776 85.1298C63.6732 87.162 62.7606 88.8898 62.3916 88.8898C61.8619 88.8898 61.8185 84.6553 62.3266 82.5306C62.4652 81.9509 62.4384 81.9597 61.8141 82.7006C61.1426 83.4972 59.531 84.6286 59.3403 84.4374C59.2373 84.3339 61.1334 77.6144 61.3214 77.4161C61.374 77.361 61.6247 77.5046 61.8787 77.7355C62.3237 78.1398 62.3436 78.1205 62.4313 77.1964C62.5144 76.3213 62.4026 76.1048 61.1463 74.7117C60.0459 73.4914 59.6691 73.218 59.2662 73.3464C58.6683 73.5369 58.8091 74.0789 59.8776 75.7005C60.5296 76.6899 60.5347 76.7241 60.0773 77.0597C59.0025 77.8492 55.3023 78.219 53.856 77.6817C53.3355 77.4885 53.486 77.3689 55.3612 76.4866C56.5069 75.9473 57.5136 75.3256 57.5978 75.105C57.791 74.5992 57.8314 74.5938 56.2741 75.2855C54.5521 76.05 52.3328 76.4989 51.2263 76.3061C50.1098 76.1117 48.9982 75.6797 48.9982 75.4403C48.9982 75.3398 50.1536 74.8442 51.5658 74.3389C52.978 73.8339 54.3755 73.2045 54.6712 72.9411C55.1693 72.497 55.1729 72.4732 54.7219 72.6202C51.019 73.8268 48.3632 74.0361 46.6534 73.2564C45.134 72.5635 45.212 72.358 47.0044 72.3297C47.9942 72.314 49.1423 72.109 49.932 71.8075C51.339 71.2699 54.0501 69.7001 55.1863 68.7653C55.8466 68.2219 55.8754 68.1282 55.6126 67.3712C55.4577 66.9248 55.3308 65.8562 55.3308 64.9965C55.3308 62.9907 55.8388 61.9815 57.8706 59.951C59.0614 58.7611 59.5198 58.1002 59.785 57.1898L60.134 55.9931L58.4303 55.8527C57.158 55.748 56.6423 55.5969 56.3939 55.2557C55.8961 54.5718 55.9538 54.5266 57.3411 54.5138C58.8057 54.5004 59.5702 54.2727 59.3505 53.9158C59.1108 53.5262 56.2266 53.6147 55.6817 54.0286C55.0197 54.5315 54.9895 54.5187 54.2328 53.422C53.5864 52.4853 53.5747 52.4195 53.9778 51.9724C54.2099 51.7148 54.8285 51.4311 55.3524 51.3423C55.9462 51.2415 56.305 51.0476 56.305 50.8275C56.305 50.633 56.5515 50.3747 56.853 50.2529C57.5494 49.9719 64.5861 49.9306 64.5861 50.2074ZM33.6537 50.3625C33.6537 50.4016 33.9222 50.6103 34.25 50.826C34.6794 51.1085 34.8942 51.14 35.0182 50.9385C35.1244 50.7663 35.0825 50.726 34.9093 50.8336C34.7546 50.9294 34.628 50.9043 34.628 50.7776C34.628 50.6506 34.4088 50.4894 34.1409 50.419C33.873 50.3488 33.6537 50.3231 33.6537 50.3625ZM54.3565 50.5841C54.3565 50.7705 54.0825 51.1031 53.7476 51.3235C53.3533 51.583 53.1387 51.9511 53.1387 52.3681C53.1387 52.7223 53.4127 53.3726 53.7476 53.8136C54.3224 54.5703 54.3565 54.787 54.3565 57.6888C54.3565 59.3794 54.3007 60.7625 54.2325 60.7625C54.0053 60.7625 52.0449 59.2639 51.8897 58.9716C51.8054 58.8132 51.6576 58.0231 51.5609 57.216C51.4642 56.4089 51.2221 55.2655 51.0229 54.6753L50.661 53.602L52.3196 51.9237C54.0109 50.2121 54.3565 49.9849 54.3565 50.5841ZM82.5863 52.2911L83.659 53.398L83.2676 54.6956C83.0523 55.4093 82.8055 56.609 82.7196 57.3618C82.5337 58.9866 82.5313 58.9905 81.2092 59.8512L80.1741 60.5248V57.5812C80.1741 54.8161 80.2128 54.5787 80.811 53.6708C81.5285 52.5824 81.4708 51.6588 80.6583 51.2222C80.3921 51.0789 80.1741 50.7932 80.1741 50.587C80.1741 50.0974 81.0828 50.7392 82.5863 52.2911ZM98.7637 51.2848C98.6575 51.4531 98.5689 51.7006 98.5667 51.8351C98.5647 51.9697 98.3314 52.0915 98.0481 52.1059C97.7649 52.1203 97.3917 52.2199 97.2188 52.327C96.9976 52.4645 96.9638 52.4261 97.1043 52.1976C97.229 51.9951 97.0853 52.0269 96.7224 52.282C96.0115 52.7822 95.7621 52.7983 95.7621 52.3446C95.7621 52.1541 95.6252 51.9428 95.4576 51.8748C95.2903 51.807 95.4272 51.7288 95.7621 51.7009C96.7589 51.6182 97.3045 51.5145 98.0759 51.2611C98.4778 51.129 98.8404 51.0116 98.8818 51.0001C98.9232 50.9886 98.8701 51.1168 98.7637 51.2848ZM36.4954 51.8273C36.4954 52.0135 36.3074 52.1512 36.0777 52.1338C35.7372 52.1081 35.6478 51.8073 35.8271 51.2924C35.9004 51.0826 36.4954 51.5588 36.4954 51.8273ZM57.5837 51.3964C57.007 51.5079 56.8674 51.8241 57.2815 52.0812C57.6599 52.316 58.4971 51.967 58.4971 51.5742C58.4971 51.3814 58.4147 51.2386 58.3144 51.2569C58.2141 51.2753 57.8852 51.3379 57.5837 51.3964ZM75.79 51.4311C75.79 51.8144 76.6639 52.2253 77.112 52.0526C77.5682 51.8767 77.6225 51.4697 77.1905 51.4648C77.0231 51.4631 76.6395 51.3951 76.338 51.3142C76.017 51.2278 75.79 51.2763 75.79 51.4311ZM86.7503 52.0538C86.7503 52.6325 86.5362 53.1143 86.0437 53.6436C85.4338 54.2991 85.3999 54.4033 85.7955 54.4033C86.0885 54.4033 86.3123 54.6376 86.4161 55.0527C86.6022 55.7972 86.3196 56.3671 85.5768 56.7457C85.0638 57.0071 85.0651 57.013 85.7224 57.5159C86.2717 57.9361 86.3389 58.1002 86.116 58.4754C85.9682 58.7244 85.475 58.9961 85.02 59.0793C84.5034 59.1739 84.3955 59.2426 84.7323 59.2627C85.029 59.2806 85.3848 59.507 85.5229 59.7666C86.0809 60.8134 84.9177 61.6494 84.0212 60.8457C83.5265 60.4022 83.5221 60.4044 83.7155 61.0071C84.1013 62.2082 83.9961 62.5915 83.2581 62.6764C82.8776 62.7202 82.3844 62.59 82.162 62.3875C81.7908 62.0495 81.7572 62.1033 81.7572 63.0364C81.7572 63.847 81.6615 64.0727 81.2862 64.1468C81.027 64.1979 80.6843 64.0602 80.5246 63.8406C80.2644 63.4835 80.2165 63.5001 80.0686 63.9976C79.9288 64.468 79.8509 64.3655 79.562 63.3306L79.2205 62.1077L80.4888 60.9445C81.1866 60.3044 81.9952 59.5743 82.286 59.3216C82.6372 59.0167 82.863 58.4622 82.958 57.6722C83.3299 54.5784 83.9057 53.3528 85.6364 51.9716C86.1518 51.5602 86.6134 51.2237 86.6621 51.2237C86.7106 51.2237 86.7503 51.5972 86.7503 52.0538ZM37.3072 51.5644C37.3072 51.7965 38.0362 51.9134 38.1662 51.7021C38.2454 51.5734 38.0844 51.4683 37.8087 51.4683C37.533 51.4683 37.3072 51.5116 37.3072 51.5644ZM49.0549 52.4403C50.3962 53.6258 50.9113 54.664 51.219 56.8029C51.5358 59.0064 51.7399 59.4188 52.8664 60.1329C53.3966 60.469 54.1154 61.1191 54.4634 61.5772C55.0896 62.4015 55.0926 62.4269 54.7501 63.9013C54.4174 65.3333 54.4452 65.7611 54.9912 67.6109C55.153 68.1585 55.1296 68.1876 54.7684 67.8902C54.2995 67.5042 53.8653 66.0991 53.8879 65.0427C53.9013 64.412 53.933 64.3777 54.113 64.7982C54.2808 65.1905 54.3256 65.1058 54.3395 64.3701L54.3565 63.4529L53.8545 63.957C53.0359 64.7791 52.5279 64.4817 52.542 63.189C52.5539 62.1239 52.5381 62.0994 52.1157 62.5235C51.5972 63.0442 50.8707 63.0944 50.4914 62.6355C50.3424 62.455 50.2586 62.2623 50.3056 62.2075C50.3526 62.1527 50.468 61.7858 50.5623 61.3923C50.7106 60.7735 50.6843 60.7182 50.3665 60.9831C49.7393 61.5058 48.8866 61.2196 48.7994 60.4568C48.7383 59.9241 48.852 59.7348 49.3474 59.5457C50.128 59.2478 50.1563 59.0829 49.402 59.2277C48.8574 59.3322 48.0239 58.7814 48.0239 58.3169C48.0239 58.2017 48.293 57.895 48.6221 57.635L49.2203 57.1625L48.6289 56.8919C47.9287 56.5715 47.631 55.6296 48.0069 54.9243C48.1876 54.5853 48.4126 54.4735 48.6974 54.5813C48.9631 54.6819 48.826 54.4028 48.3284 53.83C47.5826 52.9715 47.2121 51.4683 47.746 51.4683C47.8612 51.4683 48.4501 51.9056 49.0549 52.4403ZM94.667 51.9579C96.455 52.6406 94.0708 54.4691 91.0126 54.7606C89.4579 54.9088 89.2806 54.8788 89.0013 54.4187C88.6028 53.7627 89.0488 52.9708 89.9166 52.7929C90.544 52.6643 93.9 51.7975 93.9804 51.7432C94.0052 51.7266 94.3141 51.8232 94.667 51.9579ZM42.2376 52.4466C43.2043 52.7157 44.2275 52.9358 44.511 52.9358C45.1781 52.9358 45.6063 53.8429 45.2804 54.5659C45.0661 55.0419 44.9027 55.083 43.671 54.9722C41.8418 54.8076 40.7582 54.4649 39.8037 53.749C38.9196 53.0862 38.8019 52.5939 39.4383 52.2216C40.0309 51.875 40.245 51.8921 42.2376 52.4466ZM108.914 52.6601C108.914 53.0561 106.775 54.8575 105.586 55.4626C103.236 56.6584 97.6353 58.0542 98.0788 57.3334C98.2074 57.1248 98.1765 57.0781 97.9877 57.1952C97.8309 57.2926 97.7744 57.4887 97.8623 57.6316C97.9541 57.7805 97.8781 57.8429 97.6835 57.7776C97.2841 57.644 97.222 57.0477 97.5807 56.7917C97.7191 56.6929 97.5793 56.6104 97.2699 56.6082C96.8805 56.6058 96.766 56.6985 96.8978 56.9103C97.1528 57.3202 97.2183 57.8238 97.0193 57.8431C95.3292 58.0082 93.8589 58.0474 93.57 57.9349C93.2665 57.8167 93.2872 57.7279 93.6918 57.4102C94.0844 57.102 94.0961 57.0565 93.7527 57.1754C93.5184 57.2566 93.3264 57.2238 93.3264 57.1028C93.3264 56.7687 94.6804 55.8713 95.1907 55.8669C96.1337 55.8588 100.146 54.8956 102.73 54.0567C104.918 53.3464 107.712 52.6083 108.732 52.4711C108.832 52.4576 108.914 52.5427 108.914 52.6601ZM27.488 53.0449C28.4008 53.2396 30.3094 53.7823 31.7289 54.2509C33.1486 54.7198 35.5599 55.3525 37.0872 55.657C38.7683 55.9921 40.1364 56.4086 40.5534 56.7122L41.2422 57.2138L40.6752 57.374C40.2487 57.4944 40.219 57.5401 40.5546 57.5584C40.8003 57.5719 40.9553 57.7206 40.8987 57.8886C40.7129 58.4441 37.3744 58.1714 37.4959 57.6108C37.5327 57.4408 37.4487 57.3728 37.3091 57.4594C37.1698 57.546 37.1255 57.7301 37.2107 57.8688C37.3138 58.0361 37.2129 58.0459 36.9104 57.8977C36.6598 57.7747 36.208 57.6937 35.9067 57.7174C35.6054 57.7411 35.3587 57.6758 35.3587 57.5724C35.3587 57.4689 35.167 57.4339 34.9324 57.4946C34.3511 57.6455 30.5042 56.4999 28.9513 55.7135C27.4539 54.9553 25.9499 53.8067 25.6035 53.1566C25.3027 52.5921 25.35 52.5894 27.488 53.0449ZM33.6537 53.4325C33.6537 53.5629 33.8182 53.6695 34.0191 53.6695C34.22 53.6695 34.3844 53.6262 34.3844 53.5734C34.3844 53.5206 34.22 53.4139 34.0191 53.3364C33.8182 53.2591 33.6537 53.3024 33.6537 53.4325ZM88.5672 54.3925C89.1513 55.0407 88.8459 55.7101 87.9145 55.8229C87.4305 55.8816 87.1914 55.7106 86.7822 55.014C86.1927 54.0107 86.1428 53.8107 86.5444 54.0596C86.7186 54.168 86.7595 54.1269 86.6516 53.952C86.5561 53.7967 86.5454 53.56 86.628 53.4259C86.8167 53.119 87.9111 53.6644 88.5672 54.3925ZM100.027 53.4289C100.111 53.5656 100.282 53.6143 100.407 53.5367C100.744 53.3271 100.682 53.1804 100.254 53.1804C100.045 53.1804 99.9428 53.2921 100.027 53.4289ZM47.7662 53.8877C48.0775 54.4718 47.4805 55.7781 46.8039 55.9938C46.2474 56.1712 45.3447 55.738 45.3447 55.2933C45.3447 54.9495 46.1541 54.1401 46.9279 53.7104C47.549 53.3655 47.4803 53.3508 47.7662 53.8877ZM99.1858 53.8087C99.3427 53.9983 99.5753 54.0885 99.7029 54.0093C99.9864 53.8332 99.776 53.5932 99.273 53.5191C98.9797 53.4758 98.9612 53.537 99.1858 53.8087ZM34.7091 54.0325C34.7091 54.3074 34.788 54.3297 35.034 54.125C35.2125 53.976 35.3587 53.8126 35.3587 53.762C35.3587 53.7111 35.2125 53.6695 35.034 53.6695C34.8552 53.6695 34.7091 53.8329 34.7091 54.0325ZM37.2565 54.324C37.5118 54.427 37.5125 54.5271 37.2607 54.855C37.0451 55.1356 37.1167 55.1167 37.494 54.7934C38.1713 54.213 38.1711 54.1541 37.4898 54.178C37.1886 54.1885 37.0833 54.2543 37.2565 54.324ZM93.9353 55.4775C93.9353 56.3282 92.7338 56.9477 90.8803 57.0529C89.7592 57.1165 89.057 57.0463 88.8179 56.8469C88.2964 56.4123 88.3709 56.1159 89.0032 56.1117C89.3844 56.109 89.455 56.0467 89.2353 55.9065C88.4299 55.3936 90.3145 54.9309 92.9611 54.9923C93.7466 55.0104 93.9353 55.1045 93.9353 55.4775ZM45.0566 55.6142C45.1051 55.7602 45.2872 56.0227 45.4616 56.1978C46.0564 56.7953 45.4434 57.3386 44.1756 57.3368C42.0055 57.3344 40.2299 56.4933 40.2299 55.468C40.2299 55.1119 40.5044 55.0815 42.5993 55.2072C43.9628 55.2887 45.0059 55.4616 45.0566 55.6142ZM88.1819 56.6293C88.7421 57.1532 88.6274 57.8275 87.9783 57.8275C87.3241 57.8275 86.0196 57.3178 86.0196 57.0622C86.0196 56.9365 86.184 56.7704 86.3849 56.6931C86.5859 56.6156 86.7503 56.4091 86.7503 56.2345C86.7503 55.8121 87.5418 56.0305 88.1819 56.6293ZM47.5977 56.574C47.5641 56.7254 47.7012 56.8491 47.9021 56.8491C48.6645 56.8491 48.2253 57.5181 47.2754 57.804C45.6355 58.2973 45.0634 57.2845 46.5306 56.4852C47.2309 56.1039 47.6931 56.1423 47.5977 56.574ZM99.2954 56.3573C99.2102 56.4957 99.3078 56.5368 99.5246 56.4534C99.9464 56.2908 100.024 56.1154 99.6734 56.1154C99.5472 56.1154 99.3772 56.2242 99.2954 56.3573ZM107.209 56.4539C107.209 56.9166 105.559 58.3778 104.573 58.788C104.004 59.0247 103.86 59.1813 104.084 59.3202C104.853 59.7976 100.62 60.9222 97.3822 61.1005C95.3921 61.2101 95.2053 61.1252 95.0618 60.0439C95.0243 59.7621 94.0571 59.8079 94.0571 60.0916C94.0571 60.2034 94.1974 60.2623 94.3689 60.2229C94.5401 60.1833 94.6772 60.2166 94.6733 60.2968C94.6692 60.377 94.8058 60.6118 94.9766 60.8185C95.2462 61.1448 95.1753 61.1913 94.439 61.1717C93.9726 61.1592 93.6421 61.0976 93.7044 61.035C93.9273 60.8114 92.7811 59.8221 92.4481 59.9502C91.7866 60.2051 92.1417 59.6538 92.9884 59.1116C93.4609 58.8088 94.1959 58.5607 94.6219 58.5603C95.9981 58.5585 99.737 57.8603 101.98 57.1864C103.95 56.5945 105.593 56.2394 106.783 56.1482C107.018 56.1301 107.209 56.2678 107.209 56.4539ZM31.9488 57.2309C33.671 57.8177 36.4713 58.3587 39.4992 58.6894C40.3968 58.7875 41.08 59.0323 41.5695 59.431L42.3002 60.0263L40.717 60.0468C39.8463 60.0581 39.2776 60.1251 39.4532 60.1958C39.7014 60.2953 39.6795 60.4274 39.3546 60.7879C38.8879 61.3057 38.3949 61.4212 38.6792 60.9459C38.7997 60.7444 38.7194 60.7566 38.4432 60.9814C37.4348 61.8032 29.7882 60.3795 30.1482 59.4371C30.2193 59.251 29.9674 58.9949 29.538 58.8161C28.7189 58.4754 27.0776 56.9697 27.0776 56.5591C27.0776 56.1376 29.8705 56.5229 31.9488 57.2309ZM34.5671 56.5219C34.7347 56.5899 35.0087 56.5899 35.176 56.5219C35.3436 56.4541 35.2065 56.3986 34.8716 56.3986C34.5367 56.3986 34.3998 56.4541 34.5671 56.5219ZM36.2735 56.767C36.4418 56.8352 36.5071 57.0086 36.4187 57.1524C36.3227 57.3082 36.3729 57.3425 36.5429 57.2368C36.8783 57.0289 36.6768 56.596 36.2577 56.6239C36.0502 56.6376 36.0545 56.6784 36.2735 56.767ZM37.7943 57.0416C37.7943 57.1475 38.0396 57.2527 38.3392 57.2755C38.7676 57.3077 38.8065 57.2674 38.5218 57.0866C38.0766 56.8039 37.7943 56.7865 37.7943 57.0416ZM39.1962 57.2618C39.3645 57.3268 39.441 57.4794 39.3663 57.601C39.2915 57.7226 39.4003 57.7563 39.6084 57.6763C40.1588 57.464 40.0709 57.2021 39.4383 57.1708C39.1371 57.1559 39.0279 57.1967 39.1962 57.2618ZM45.6441 57.9197C46.0033 58.1936 46.0213 58.336 45.7658 58.8882C45.4969 59.4699 45.334 59.5359 44.1637 59.5376C42.5287 59.5401 40.5419 58.6556 41.0456 58.1498C41.58 57.6132 45.0166 57.4413 45.6441 57.9197ZM92.9306 57.8972C93.3381 58.1963 93.3374 58.2301 92.9163 58.5962C92.3003 59.1321 90.9909 59.5396 89.8849 59.5396C89.0926 59.5396 88.9284 59.4474 88.7989 58.9281C88.7148 58.5918 88.5348 58.3167 88.3989 58.3167C88.2569 58.3167 88.281 58.1606 88.4552 57.9498C88.8481 57.4743 92.2996 57.4337 92.9306 57.8972ZM88.029 58.5057C88.2633 58.7124 88.4552 59.0964 88.4552 59.3591C88.4552 59.7169 88.3483 59.793 88.029 59.6631C87.7947 59.5677 87.2929 59.3772 86.9144 59.2395C86.4568 59.0734 86.3077 58.9078 86.4692 58.7457C86.6029 58.6114 86.6494 58.3372 86.5727 58.1364C86.4626 57.8483 86.5569 57.8089 87.0179 57.9505C87.3394 58.0491 87.7947 58.299 88.029 58.5057ZM47.7803 58.2966C47.7803 58.4201 47.8398 58.6764 47.9121 58.8662C48.0037 59.1057 47.7353 59.3043 47.036 59.5149C45.9052 59.8551 45.721 59.7861 45.9368 59.1037C46.1524 58.4218 47.7803 57.7091 47.7803 58.2966ZM44.4314 58.4852C44.6659 58.5468 45.0493 58.5468 45.2838 58.4852C45.5184 58.4238 45.3265 58.3734 44.8576 58.3734C44.3887 58.3734 44.1968 58.4238 44.4314 58.4852ZM87.8456 59.9979C88.6123 60.4436 88.9089 61.1384 88.5054 61.5437C88.2021 61.8482 86.2171 60.4433 85.9565 59.7399C85.7911 59.2933 85.8423 59.2583 86.4436 59.4073C86.8133 59.4987 87.4442 59.7646 87.8456 59.9979ZM48.342 59.6971C48.1822 59.7624 48.1089 59.9664 48.1791 60.1503C48.2555 60.3504 48.0229 60.6324 47.5996 60.852C47.2107 61.054 46.7501 61.3918 46.5759 61.6024C46.4018 61.813 46.1706 61.9854 46.062 61.9854C45.6835 61.9854 45.5476 60.9841 45.8725 60.591C46.2746 60.1043 47.4949 59.5555 48.1457 59.5684C48.4136 59.5738 48.502 59.6315 48.342 59.6971ZM37.5507 59.9879C37.5507 60.1002 37.7103 60.1919 37.9054 60.1919C38.1005 60.1919 38.2035 60.1002 38.1346 59.9879C38.0656 59.8759 37.9061 59.7842 37.7799 59.7842C37.6538 59.7842 37.5507 59.8759 37.5507 59.9879ZM45.5883 60.1102C45.5883 60.2897 45.5094 60.5157 45.4129 60.6126C45.3165 60.7094 45.2344 61.0303 45.2302 61.3258C45.2234 61.8228 45.1189 61.8585 43.8356 61.801C42.3587 61.7347 41.2042 61.4038 41.2042 61.0467C41.2042 60.81 43.3202 60.106 44.4923 59.9529C44.8941 59.9003 45.3053 59.8409 45.4056 59.8208C45.506 59.8005 45.5883 59.9309 45.5883 60.1102ZM91.9681 60.3181C92.4937 60.4952 92.9625 60.7596 93.01 60.9051C93.1282 61.2678 91.4498 61.7408 90.0447 61.7408C88.9418 61.7408 88.8963 61.7137 89.0385 61.1443C89.1206 60.8163 89.0777 60.4795 88.9433 60.3961C88.8088 60.3127 88.6988 60.1256 88.6988 59.9803C88.6988 59.6575 90.5868 59.8526 91.9681 60.3181ZM93.3264 60.0287C93.3264 60.1633 93.4426 60.2733 93.5844 60.2733C93.7261 60.2733 93.7746 60.1633 93.6918 60.0287C93.609 59.8942 93.493 59.7842 93.4338 59.7842C93.3747 59.7842 93.3264 59.8942 93.3264 60.0287ZM95.3901 60.018C95.4693 60.1466 95.6951 60.1899 95.8916 60.1141C96.3951 59.9202 96.3359 59.7842 95.7477 59.7842C95.472 59.7842 95.311 59.8893 95.3901 60.018ZM40.8961 60.7755C40.7307 61.0413 40.3493 61.2084 39.9347 61.1966C39.3002 61.1785 39.2766 61.1448 39.6271 60.7557C39.8358 60.524 40.2686 60.3345 40.5884 60.3345C41.088 60.3345 41.1316 60.3968 40.8961 60.7755ZM89.6275 60.685C89.8031 60.7557 90.0133 60.7468 90.0941 60.6656C90.175 60.5844 90.0313 60.5267 89.7746 60.5372C89.4908 60.549 89.4331 60.6069 89.6275 60.685ZM104.634 60.7336C104.825 61.0435 103.928 62.1104 102.984 62.6962C101.793 63.4356 99.6125 63.9159 96.8157 64.0554L94.3375 64.1789L93.7259 63.449C93.3749 63.0303 92.8741 62.7175 92.5507 62.7155C92.2406 62.7133 91.8261 62.6096 91.6298 62.4849C90.9965 62.0828 92.4045 61.7616 95.4588 61.6115C97.0322 61.5342 99.6347 61.2663 101.242 61.0166C102.85 60.7667 104.241 60.5524 104.333 60.5402C104.426 60.5279 104.561 60.615 104.634 60.7336ZM33.6537 61.2517C35.4622 61.5156 37.9392 61.7338 39.1585 61.7362C42.139 61.7423 44.0268 62.4281 42.2771 62.8691C41.9051 62.9628 41.7571 63.098 41.9176 63.1976C42.1032 63.3128 42.0518 63.4923 41.7558 63.7611C41.1394 64.3212 34.8479 64.2045 32.9693 63.5982C31.6422 63.1697 29.7568 61.7042 29.7568 61.101C29.7568 60.6769 29.7022 60.6749 33.6537 61.2517ZM48.617 61.1763C48.7251 61.4593 48.5517 61.7655 48.067 62.1464C47.6776 62.4526 47.2182 63.0442 47.0462 63.4613C46.8192 64.0118 46.6775 64.1314 46.5299 63.8973C46.0571 63.1489 46.3146 62.2694 47.227 61.5141C48.276 60.6456 48.4024 60.615 48.617 61.1763ZM87.0842 61.2708C88.0275 62.0155 88.2574 62.5666 87.9566 63.3605L87.7019 64.0341L87.2001 63.1932C86.9244 62.7307 86.4185 62.1229 86.0763 61.8426C85.7173 61.5486 85.5281 61.212 85.6294 61.0477C85.8883 60.6265 86.3606 60.6989 87.0842 61.2708ZM86.0196 61.0995C86.0196 61.1502 86.2115 61.3429 86.4458 61.5276C86.8321 61.8316 86.8406 61.823 86.5379 61.4351C86.2195 61.0276 86.0196 60.8982 86.0196 61.0995ZM86.1396 62.3349C86.8988 63.0538 87.0143 63.3045 86.9488 64.0893C86.8562 65.1929 86.3815 65.4514 86.1906 64.502C86.115 64.1268 85.6615 63.3615 85.1827 62.8011C84.3784 61.8602 84.3597 61.6007 85.0889 61.5156C85.1798 61.5051 85.6528 61.8737 86.1396 62.3349ZM49.8056 61.8996C49.8925 61.9867 49.5849 62.4792 49.1216 62.9939C48.6586 63.5087 48.2093 64.2126 48.1228 64.558C47.9121 65.4011 47.4338 65.1954 47.338 64.2207C47.2767 63.5955 47.4325 63.2641 48.1053 62.5886C48.9119 61.7785 49.4629 61.5552 49.8056 61.8996ZM85.1671 62.23C85.4094 62.4991 85.6628 62.7192 85.7297 62.7192C85.7967 62.7192 85.653 62.4991 85.4107 62.23C85.1683 61.961 84.915 61.7408 84.848 61.7408C84.7811 61.7408 84.9248 61.961 85.1671 62.23ZM48.8532 62.5357L48.3892 63.0861L48.9373 62.6201C49.4522 62.1823 49.5961 61.9854 49.4012 61.9854C49.355 61.9854 49.1085 62.2329 48.8532 62.5357ZM91.0596 62.601C92.2857 63.1152 92.0555 63.8029 90.6297 63.8866C89.2524 63.9673 88.0979 63.5892 88.3736 63.1477C88.4788 62.9792 88.5309 62.6348 88.4895 62.3824C88.4228 61.9756 88.5207 61.9434 89.3481 62.0992C89.8618 62.1958 90.6319 62.4215 91.0596 62.601ZM45.979 63.0164C45.9444 63.7061 45.8357 63.824 45.0941 63.9763C44.0699 64.1867 43.0187 64.0025 42.6422 63.5469C42.4191 63.2768 42.5742 63.1147 43.4281 62.7255C44.0134 62.4589 44.8357 62.2383 45.2553 62.2354C45.9614 62.2305 46.0155 62.289 45.979 63.0164ZM63.7105 62.7803L63.2465 63.3306L63.7945 62.8647C64.0961 62.6084 64.3426 62.3609 64.3426 62.3144C64.3426 62.1187 64.1465 62.2633 63.7105 62.7803ZM50.3195 64.2388C50.1285 64.782 49.9724 65.4289 49.9724 65.6765C49.9724 66.3004 49.0797 66.7605 48.6172 66.375C48.0539 65.9056 48.2114 64.8446 49.0281 63.6065C49.7435 62.522 49.8151 62.477 50.2277 62.852C50.6286 63.2164 50.6366 63.3365 50.3195 64.2388ZM70.3315 63.4666C70.0755 63.9971 69.7996 64.4313 69.718 64.4313C69.6366 64.4313 70.2307 65.1247 71.0378 65.9722C72.4576 67.4622 72.5401 67.5096 73.5511 67.4128C74.3218 67.3389 74.7373 67.4321 75.1324 67.7674C75.6655 68.2201 75.666 68.2199 75.242 67.7139C75.0074 67.4343 74.8157 66.961 74.8157 66.6624C74.8157 66.3635 74.6542 65.8054 74.4567 65.4221C74.0146 64.5634 72.1909 62.9638 71.6543 62.9638C71.4373 62.9638 71.1555 62.8598 71.0283 62.7329C70.8827 62.5876 70.6245 62.8593 70.3315 63.4666ZM85.775 64.1845C86.202 65.2196 86.0067 66.25 85.3663 66.3417C84.7518 66.4295 84.5107 66.0499 84.0952 64.3403C83.7698 63.0017 83.8614 62.7434 84.4915 63.2228C84.8597 63.5031 84.8787 63.5011 84.6191 63.2088C84.4518 63.0203 84.3146 62.7588 84.3146 62.6277C84.3146 62.2227 85.4769 63.4617 85.775 64.1845ZM39.7428 63.1939C39.7428 63.6175 40.1715 63.6961 40.4757 63.328C40.7263 63.0249 40.69 62.9638 40.2596 62.9638C39.9754 62.9638 39.7428 63.0672 39.7428 63.1939ZM40.7412 63.5141C40.4058 64.0624 40.4063 64.0627 40.926 63.5985C41.4843 63.1 41.5564 62.9638 41.2629 62.9638C41.1611 62.9638 40.9263 63.2113 40.7412 63.5141ZM49.6977 63.3918C49.3949 63.7797 49.4034 63.7883 49.7897 63.4842C50.1955 63.1646 50.3243 62.9638 50.1239 62.9638C50.0735 62.9638 49.8816 63.1563 49.6977 63.3918ZM93.4243 63.4331C93.8908 63.8218 93.9728 64.3743 93.5091 64.0028C93.3418 63.8687 92.965 63.7985 92.672 63.8467C92.2684 63.913 92.1481 63.8191 92.1751 63.4583C92.2153 62.9249 92.8006 62.9131 93.4243 63.4331ZM51.4374 63.5141C51.4401 63.7212 51.5144 63.7036 51.6678 63.46C52.1082 62.7608 52.2302 63.4639 52.0159 65.4644L51.7991 67.4886H51.0684C50.3981 67.4886 50.3314 67.4118 50.2615 66.5589C50.1789 65.5556 50.8434 63.2084 51.2097 63.2084C51.3329 63.2084 51.4355 63.3461 51.4374 63.5141ZM83.7759 64.3004C84.4613 66.3977 84.0662 67.7965 82.9142 67.3499C82.5288 67.2005 82.3654 66.9356 82.364 66.4569C82.363 66.0827 82.2933 65.2042 82.2098 64.5047L82.0576 63.2326L82.76 63.2866C83.3433 63.3316 83.5153 63.5033 83.7759 64.3004ZM61.6368 64.9075C60.7995 65.7078 59.9972 66.297 59.8537 66.217C59.7105 66.137 59.7302 66.2199 59.8976 66.4009C60.0651 66.5822 60.202 66.9263 60.202 67.1657C60.202 67.4052 60.372 68.0274 60.5795 68.5486L60.9573 69.4964L62.4408 69.1523C63.2568 68.963 64.0732 68.8654 64.2551 68.9356C64.4719 69.019 64.5881 68.8759 64.592 68.5205C64.5951 68.2219 64.8533 67.3538 65.1656 66.5912L65.7335 65.2047L65.0479 64.6957C64.6709 64.4159 64.2561 64.1867 64.1263 64.1867C63.9965 64.1867 63.7259 64.0216 63.5247 63.8198C63.2 63.4935 62.9903 63.6141 61.6368 64.9075ZM42.5126 63.8912C42.5781 63.9979 42.4178 64.1013 42.1563 64.1211C41.8947 64.141 41.7444 64.0536 41.8221 63.9272C41.9948 63.6469 42.3506 63.6283 42.5126 63.8912ZM45.9921 64.2965C45.8983 64.5421 45.9736 64.6059 46.2379 64.5039C46.5586 64.3804 46.5752 64.4396 46.3416 64.8776C46.0118 65.4967 45.3311 65.8988 44.6131 65.8988C43.7613 65.8988 44.0867 64.8794 45.1012 64.3706C46.1336 63.8526 46.1626 63.8501 45.9921 64.2965ZM89.9775 64.7133C90.5978 65.4497 90.5072 65.6542 89.5607 65.6542C89.0071 65.6542 88.5473 65.4705 88.2211 65.1188C87.6315 64.4834 87.574 64.0764 88.1025 64.2801C88.3458 64.3738 88.4196 64.3268 88.3098 64.1483C88.0058 63.6545 89.5166 64.1666 89.9775 64.7133ZM43.8834 64.6556C43.8834 64.7788 43.5821 65.0002 43.2136 65.1474C42.7196 65.3448 42.6877 65.3881 43.092 65.3128C43.4206 65.2516 43.5794 65.3098 43.4883 65.4578C43.2774 65.8007 41.3907 66.6262 41.154 66.4792C41.0476 66.4132 40.9606 66.4643 40.9606 66.5929C40.9606 66.8585 38.3389 67.3663 36.9684 67.3663C36.4252 67.3663 36.121 67.268 36.2111 67.1217C36.3049 66.9693 35.8278 66.8769 34.9468 66.8762C33.559 66.8754 31.9488 66.2317 31.9488 65.6782C31.9488 65.2328 34.5632 64.8441 38.6468 64.6822C40.9241 64.5917 43.0341 64.4985 43.3353 64.4746C43.6366 64.4508 43.8834 64.532 43.8834 64.6556ZM80.3633 65.71C80.1276 67.0121 79.7379 67.9883 79.5352 67.7845C79.3684 67.617 80.2033 64.4313 80.414 64.4313C80.5134 64.4313 80.4905 65.0065 80.3633 65.71ZM82.0137 65.5329C82.2334 67.0041 81.8819 67.9778 81.1313 67.9778C80.4018 67.9778 80.3 67.5236 80.6503 65.8296C80.8565 64.8322 81.0256 64.5262 81.3861 64.499C81.7602 64.4707 81.8861 64.6781 82.0137 65.5329ZM99.9635 64.8368C101.539 65.111 102.338 65.3573 102.338 65.5681C102.338 66.126 100.825 66.7252 99.3782 66.7404C98.621 66.7482 98.0613 66.8524 98.1346 66.9718C98.4378 67.4661 94.4049 66.939 92.7175 66.2637C90.9593 65.56 90.005 64.9571 91.1344 65.2638C93.2599 65.8406 93.5987 65.899 93.4533 65.6628C93.3822 65.5468 92.9133 65.3808 92.4119 65.2937C91.9101 65.2064 91.2257 64.9806 90.8908 64.7918C90.3464 64.4851 90.6692 64.4472 93.9353 64.4359C96.3203 64.4279 98.4132 64.567 99.9635 64.8368ZM47.3807 65.71C47.3188 65.8107 47.4379 65.8276 47.6459 65.7476C48.2063 65.5314 48.1284 66.4332 47.519 67.211C46.9678 67.9147 46.2057 68.0604 45.9926 67.5025C45.8435 67.1119 46.1085 66.0169 46.5552 65.179C46.8312 64.6609 46.8599 64.6563 47.1692 65.0809C47.3475 65.326 47.4428 65.609 47.3807 65.71ZM52.9341 65.4708L52.9731 66.2657L53.0717 65.4661C53.1899 64.5076 53.6258 64.6543 53.6258 65.6527C53.6258 66.0397 53.7286 66.6277 53.8543 66.9593C54.0355 67.4385 53.9839 67.6525 53.6032 67.9986C53.1867 68.3767 53.0776 68.3879 52.7748 68.0837C52.2541 67.5605 52.1498 64.6759 52.6516 64.6759C52.7855 64.6759 52.9127 65.0337 52.9341 65.4708ZM88.0937 65.7525C88.4842 66.7793 88.4211 67.8555 87.9703 67.8555C87.581 67.8555 86.2631 66.591 86.2631 66.2172C86.2631 65.8472 87.212 64.6881 87.5216 64.68C87.611 64.6778 87.8684 65.1604 88.0937 65.7525ZM41.6913 65.6466C41.6913 65.7767 41.8557 65.82 42.0566 65.7427C42.2576 65.6652 42.422 65.5586 42.422 65.5057C42.422 65.4529 42.2576 65.4096 42.0566 65.4096C41.8557 65.4096 41.6913 65.5163 41.6913 65.6466ZM44.9185 66.3134C46.3234 66.5981 45.3554 68.579 43.0409 70.1565C42.1368 70.7726 41.2826 71.0118 41.5525 70.5735C41.6258 70.4544 41.2804 70.5645 40.7845 70.8181C39.7262 71.3601 38.9347 71.4083 38.5591 70.9539C38.2442 70.5731 39.2201 68.8908 40.38 67.8156C41.2792 66.9818 43.4084 65.9176 43.8834 66.0646C44.0843 66.1267 44.55 66.2388 44.9185 66.3134ZM91.7745 66.2911C92.2932 66.5068 93.1827 67.064 93.7512 67.5292C94.8706 68.4452 96.1388 70.3762 95.8882 70.7832C95.6344 71.1958 94.2356 71.0678 93.399 70.5557C92.7714 70.1714 92.6474 70.1521 92.764 70.4571C92.9876 71.0422 91.2569 70.0787 89.8557 68.8382C88.9837 68.0661 88.6988 67.6419 88.6988 67.1154C88.6988 66.7311 88.8052 66.3508 88.9355 66.2698C89.1669 66.1263 90.2074 66.6878 90.8472 67.302C91.2225 67.6622 91.3779 67.6923 91.3779 67.4047C91.3779 67.2915 90.9943 66.9913 90.5255 66.7377C90.0566 66.4841 89.673 66.1918 89.673 66.0879C89.673 65.7699 90.7788 65.877 91.7745 66.2911ZM43.7007 66.9053C42.6643 67.5718 42.6926 67.7068 43.7616 67.1948C44.2304 66.9703 44.614 66.6969 44.614 66.5873C44.614 66.32 44.6072 66.3222 43.7007 66.9053ZM50.0786 67.2912C50.2535 67.7491 49.5269 69.3222 49.0571 69.5035C48.5502 69.6987 48.2755 69.1185 48.2711 67.8435L48.2675 66.7309L49.1034 66.8287C49.5632 66.8828 50.0019 67.0906 50.0786 67.2912ZM85.0417 66.9383C85.0436 66.7702 85.2704 66.6325 85.5451 66.6325C85.9952 66.6325 86.0376 66.7607 85.9713 67.9166C85.9102 68.9845 85.8206 69.2007 85.4396 69.2007C84.7752 69.2007 84.0112 67.6914 84.3519 67.052C84.5604 66.6604 84.652 66.6321 84.8242 66.9053C84.9781 67.1494 85.039 67.1586 85.0417 66.9383ZM83.3891 67.8555C83.773 67.8555 84.0706 67.989 84.0696 68.1612C84.0672 68.7167 83.5698 70.2813 83.3531 70.4158C82.9863 70.6435 81.6654 69.7212 81.519 69.1351C81.3539 68.4748 82.1145 67.2782 82.4758 67.6302C82.6029 67.754 83.014 67.8555 83.3891 67.8555ZM42.1472 68.0389C41.8445 68.4268 41.853 68.4354 42.2393 68.1314C42.4739 67.9467 42.6655 67.754 42.6655 67.7033C42.6655 67.502 42.4656 67.6314 42.1472 68.0389ZM52.7729 69.3244C52.5775 69.9423 51.2287 70.6824 50.8996 70.3519C50.5932 70.0443 50.2069 68.3126 50.3816 68.0289C50.4561 67.9076 50.8331 67.855 51.219 67.912C51.605 67.9687 51.9209 67.9095 51.9209 67.7801C51.9209 67.6508 52.1477 67.8344 52.4248 68.1881C52.748 68.6007 52.8727 69.0082 52.7729 69.3244ZM48.0239 68.8177C48.0239 69.0449 47.832 69.4441 47.5972 69.7048C47.3626 69.9658 47.0592 70.5092 46.923 70.9128C46.7152 71.5289 46.5297 71.6588 45.7666 71.7224C44.9553 71.7901 44.8576 71.8708 44.8576 72.4723C44.8576 73.0057 44.6511 73.2628 43.8673 73.7052C43.3227 74.0127 42.8078 74.1944 42.7228 74.1093C42.2483 73.6326 44.1167 69.583 45.3128 68.496C45.7142 68.1311 45.8813 68.1093 46.3492 68.3608C46.8136 68.6105 46.9476 68.5956 47.1515 68.271C47.4452 67.8036 48.0239 68.1661 48.0239 68.8177ZM54.113 68.8416C53.375 69.4118 53.1387 69.4396 53.1387 68.9561C53.1387 68.7543 53.2914 68.5892 53.478 68.5892C53.6646 68.5892 53.8874 68.4058 53.9731 68.1815C54.0957 67.8606 54.1921 67.8374 54.4254 68.0724C54.6585 68.3072 54.5916 68.4716 54.113 68.8416ZM80.4176 68.2148C80.4176 68.4334 80.5604 68.5188 80.783 68.4332C81.0144 68.3439 81.1483 68.4364 81.1483 68.6853C81.1483 69.1762 81.0363 69.1762 80.2893 68.6849C79.9602 68.4682 79.7515 68.193 79.8253 68.0734C80.0372 67.729 80.4176 67.8198 80.4176 68.2148ZM88.3281 69.323C88.4396 69.323 88.3263 69.0962 88.0765 68.8189C87.6875 68.3874 87.6734 68.2823 87.9778 68.0888C88.5214 67.7437 88.6018 67.7845 89.4207 68.8228C90.9768 70.7956 92.1875 73.9701 91.3838 73.9701C90.7644 73.9701 89.5641 72.9693 89.5578 72.4476C89.5524 71.9843 89.4007 71.8786 88.6527 71.816C87.8373 71.748 87.716 71.6407 87.3409 70.6543C87.1136 70.0565 86.8404 69.5676 86.7337 69.5676C86.3628 69.5676 86.2229 68.5657 86.5401 68.1817C86.8216 67.8413 86.929 67.8841 87.4914 68.5604C87.84 68.9798 88.2165 69.323 88.3281 69.323ZM46.0754 69.2007C45.9005 69.4123 45.8769 69.5676 46.0196 69.5676C46.1555 69.5676 46.3299 69.4025 46.4071 69.2007C46.4841 68.9989 46.5092 68.8338 46.4629 68.8338C46.4166 68.8338 46.2422 68.9989 46.0754 69.2007ZM50.4517 70.1477C50.4476 70.2996 50.2832 70.2098 50.0864 69.9489C49.6762 69.4042 49.61 69.6211 49.9765 70.3091C50.1777 70.6863 50.1093 70.8494 49.6131 71.176C49.277 71.3971 48.8401 71.5157 48.6426 71.4396C48.4448 71.3633 48.2183 71.4064 48.1391 71.535C47.9888 71.7791 47.0497 71.8669 47.0497 71.6368C47.0497 71.3406 48.0468 69.5678 48.2114 69.5712C48.646 69.5805 49.0456 70.0308 48.8895 70.3351C48.7955 70.5183 48.9575 70.362 49.2498 69.9875C49.6704 69.4489 49.8521 69.3658 50.1205 69.5893C50.3068 69.7449 50.4561 69.9961 50.4517 70.1477ZM84.8018 69.5676C84.8018 69.8877 85.608 69.8831 85.9287 69.561C86.0997 69.3893 86.3956 69.7102 86.865 70.5762L87.5513 71.8427L86.5498 71.6818C85.1238 71.4528 84.3146 71.0275 84.3146 70.5065C84.3146 70.2593 84.2084 70.0567 84.0786 70.0567C83.9491 70.0567 83.9059 69.8916 83.9829 69.6899C84.1388 69.2821 84.8018 69.1831 84.8018 69.5676ZM65.9257 71.0351C66.1681 71.3041 66.4214 71.5242 66.4883 71.5242C66.5553 71.5242 66.4116 71.3041 66.1693 71.0351C65.9269 70.766 65.6736 70.5459 65.6066 70.5459C65.5397 70.5459 65.6834 70.766 65.9257 71.0351ZM70.9085 71.15C70.7003 71.3592 69.8212 71.5778 68.808 71.6725L67.0653 71.8351L66.5897 73.7377L66.1137 75.6404L67.7936 76.4179L69.4734 77.1954L70.3788 76.5231C70.8766 76.153 71.579 75.5782 71.9393 75.2454C72.591 74.6437 72.5922 74.6349 72.2004 73.6326C71.9836 73.0783 71.6492 72.3781 71.4575 72.0765C71.2656 71.7747 71.172 71.3621 71.2497 71.1593C71.4258 70.698 71.3606 70.6963 70.9085 71.15ZM75.486 73.2889C75.2519 73.8434 75.1134 74.3507 75.1784 74.4157C75.3299 74.5679 76.0832 72.7709 75.9853 72.4911C75.9449 72.3754 75.7201 72.7345 75.486 73.2889ZM48.7794 74.314C49.0819 74.3181 49.0274 74.4766 48.5359 75.0196C48.1873 75.4046 47.6605 75.9862 47.3651 76.3122C47.0699 76.6383 46.7265 76.9051 46.602 76.9051C46.2939 76.9051 46.1397 75.971 46.2669 74.8768L46.3721 73.9728L47.3807 74.1406C47.9352 74.2328 48.5649 74.3108 48.7794 74.314ZM88.102 74.8049C88.2852 75.7859 88.0621 76.6605 87.6288 76.6605C87.2722 76.6605 86.4492 75.8038 86.0395 75.0059C85.7307 74.405 85.8084 74.3343 86.9938 74.1376C87.3287 74.0821 87.6799 74.0217 87.7744 74.0034C87.8687 73.985 88.0163 74.3458 88.102 74.8049ZM50.0138 77.4038C50.5477 78.2853 50.7031 78.2975 51.4338 77.5166C52.1433 76.7581 52.5939 76.7361 52.6954 77.4554C52.749 77.8343 53.0198 78.0786 53.5649 78.2398L54.3565 78.4739V81.236C54.3565 82.7551 54.2606 83.9981 54.1434 83.9981C54.0262 83.9981 53.203 83.2748 52.314 82.3909C50.0063 80.096 47.832 76.7816 48.1274 76.0087C48.2431 75.7057 48.3746 75.7314 48.9207 76.1628C49.2807 76.447 49.7727 77.0056 50.0138 77.4038ZM86.0059 77.1817C85.1503 78.8743 84.092 80.3308 82.5018 82.004C80.1397 84.4897 80.1741 84.5014 80.1741 81.2135V78.4115L80.8843 78.2547C81.5902 78.0992 82.0059 77.5538 81.7436 77.1277C81.4711 76.6847 82.5454 76.9173 82.9751 77.3943C83.5662 78.0503 83.9892 78.0104 84.3802 77.2615C84.7589 76.5353 86.0498 75.6585 86.3438 75.9278C86.4551 76.0297 86.3031 76.594 86.0059 77.1817ZM51.1632 77.3045C50.9505 77.5621 50.801 77.5775 50.5489 77.3674C50.034 76.9381 50.1536 76.7163 50.8302 76.8462C51.323 76.9408 51.389 77.0316 51.1632 77.3045ZM83.8275 77.013C83.8275 77.271 83.3601 77.3796 83.2211 77.1536C83.137 77.0169 83.2391 76.9051 83.4478 76.9051C83.6565 76.9051 83.8275 76.9535 83.8275 77.013Z" fill="#FAF4F0"></path> </svg> 