<?xml version="1.0" encoding="UTF-8"?> <svg xmlns="http://www.w3.org/2000/svg" width="135" height="135" viewBox="0 0 135 135" fill="none"> <rect width="134.777" height="134.106" rx="20" fill="#8E8E8E"></rect> <g clip-path="url(#clip0_1_122)"> <path d="M63.8671 76.3522C62.588 76.366 60.1663 75.9243 57.8451 75.0601C56.5998 74.6 55.3974 73.9781 54.2479 73.3063C51.2933 71.5786 48.9345 69.2068 47.0887 66.3335C45.9778 64.6029 45.1315 62.7161 44.5781 60.7356C43.7903 57.9451 43.5536 55.0279 43.881 52.147C44.358 47.842 46.0435 44.0683 48.7888 40.7433C51.4451 37.5287 54.7701 35.3149 58.7308 34.0304C59.3052 33.8441 59.8688 33.5979 60.4585 33.4936C64.7582 32.7038 68.9788 32.9231 73.0707 34.581C76.1028 35.808 78.7407 37.5932 80.9469 40.0309C82.7428 42.0155 84.1492 44.234 85.097 46.7224C86.2319 49.7015 86.7541 52.7973 86.5617 55.9965C86.281 60.7335 84.6262 64.9314 81.5971 68.5903C79.445 71.1906 76.7065 73.2432 73.6067 74.5793C70.8921 75.7625 68.0433 76.3384 63.8671 76.3522ZM82.298 44.0285C82.2275 43.836 82.2052 43.6496 82.1063 43.5224C81.3479 42.5462 80.6202 41.5401 79.7974 40.6206C77.8036 38.3922 75.3497 36.8171 72.5738 35.7221C68.4712 34.1064 64.2873 33.8249 60.0283 34.9506C55.504 36.1461 51.8653 38.6698 49.0434 42.389C47.3831 44.5766 46.2069 47.0923 45.5926 49.769C45.2475 51.2413 45.0159 52.7183 44.9791 54.2266C44.9024 57.5501 45.568 60.7202 47.0342 63.7055C48.778 67.2534 51.3382 70.0652 54.7149 72.1407C57.8121 74.0502 61.174 75.0478 64.7988 75.0931C69.6667 75.1536 74.0722 73.6997 77.7982 70.5687C84.0633 65.309 86.3991 58.5746 84.9137 50.5374C84.5049 48.3509 83.717 46.2527 82.5856 44.3375C82.5128 44.2125 82.3832 44.1182 82.298 44.0285Z" fill="#FAF4F0"></path> <path d="M65.8678 81.309C66.2573 80.9057 66.6691 80.454 67.1154 80.0392C67.1921 79.9671 67.4766 79.9901 67.5625 80.0737C67.8875 80.3806 68.1788 80.7215 68.4313 81.0905C68.554 81.2799 68.5279 81.5675 68.5778 81.8573C69.1583 81.296 69.728 80.7523 70.287 80.204C70.7318 79.7692 70.7295 79.7662 71.1459 80.2148C72.7632 81.9593 73.2125 84.0359 72.8606 86.328C72.5201 88.5465 71.3859 90.3501 69.8753 91.9527C69.7119 92.1268 69.5539 92.133 69.3684 92.008C69.2311 91.9159 69.0915 91.8255 68.9535 91.7327C68.8155 91.6399 68.6844 91.5517 68.4934 91.419V94.9779H66.3033V94.6121C66.3033 93.3346 66.2865 92.057 66.3102 90.7779C66.3179 90.3623 66.2335 90.0326 65.8854 89.7895C65.7924 89.7076 65.7067 89.6178 65.6293 89.5211C66.4452 89.1553 66.2596 88.436 66.2627 87.7911C66.2742 85.9507 66.288 84.1103 66.2519 82.2699C66.2458 81.9555 66.0043 81.638 65.8678 81.309ZM71.3698 86.6869C71.392 85.762 71.1622 84.8486 70.705 84.0443C70.4235 83.5444 70.0685 83.0367 69.623 82.6916C69.0716 82.2638 68.6705 82.5084 68.5831 83.207C68.5635 83.3852 68.5551 83.5645 68.5578 83.7437C68.5578 85.2514 68.5517 86.759 68.5716 88.2681C68.5881 88.4596 68.6727 88.6389 68.8101 88.7734C69.1889 89.1338 69.6023 89.4575 70.0018 89.7964C70.3852 90.1254 70.5961 90.0786 70.7916 89.597C71.1809 88.6766 71.3776 87.6862 71.3698 86.6869V86.6869Z" fill="#FAF4F0"></path> <path d="M36.149 91.9336C36.3154 91.7227 36.5117 91.5271 36.6397 91.2948C36.7608 91.092 36.8305 90.8627 36.843 90.6269C36.8514 87.5036 36.8429 84.3802 36.8337 81.2569C36.8334 81.1171 36.8074 80.9786 36.7571 80.8482C36.6075 80.4647 36.4764 80.4417 36.0608 80.8052V79.2808C35.8453 79.2623 35.8415 79.1397 36.0991 78.7593C36.1133 78.7533 36.1253 78.7431 36.1336 78.7302C36.3223 78.997 36.5048 79.26 36.8138 79.4203C36.9035 79.4671 36.9066 79.681 36.9503 79.8221C37.7616 79.9425 40.0177 79.8712 40.6311 79.7056L41.1572 79.7309V79.6496C41.2722 79.6987 41.3834 79.7792 41.5023 79.7907C41.7553 79.8152 42.013 79.7907 42.2691 79.8106C42.697 79.8444 42.8542 80.0023 42.9171 80.4241C42.9493 80.635 42.5237 81.0529 42.2622 81.0207C41.9648 80.9758 41.6716 80.9063 41.3857 80.8129C41.2272 80.7526 41.0734 80.6805 40.9256 80.5974C40.8665 80.7469 40.8213 80.862 40.7538 81.0353C40.6679 80.6779 40.5659 80.3819 40.1404 80.4463C39.8029 80.4977 39.4548 80.4931 39.1281 80.5775C39.0361 80.6005 38.951 80.8482 38.9495 80.9939C38.9364 82.4509 38.941 83.9078 38.941 85.3273C39.1649 84.8794 39.4011 84.4025 39.6404 83.9255L39.7684 83.9853C39.6749 84.1893 39.5813 84.394 39.487 84.5988L39.5553 84.6379L41.1802 82.2476L41.0606 82.1648L40.7439 82.664L40.6848 82.6387C40.7799 82.3573 40.865 82.0713 40.98 81.7952C40.9992 81.7507 41.2178 81.7262 41.2323 81.753C41.3527 81.9747 41.4862 82.2024 41.5391 82.4432C41.6211 82.8212 41.6418 83.21 41.7691 83.6072C41.8343 83.1126 41.8995 82.618 41.9708 82.0797C42.3803 82.1894 42.6211 82.5544 42.7146 82.8519C43.1648 84.2828 43.2882 85.7621 43.2207 87.2628C43.1839 88.0917 43.2322 88.9245 43.2138 89.7542C43.212 89.9657 43.143 90.1712 43.0168 90.3408C42.6891 90.748 42.3248 91.1243 41.9286 91.465C41.0345 92.1981 40.0215 92.251 38.9694 91.8485C38.4564 91.6529 37.9326 91.498 37.4066 91.7143C37.1604 91.8155 36.9871 92.0808 36.7509 92.2204C36.5976 92.3116 36.3882 92.3101 36.2042 92.35C36.185 92.2165 36.1666 92.0747 36.149 91.9336ZM39.4724 90.8033C39.5614 91.008 39.6204 91.1284 39.6664 91.2534C39.727 91.4175 39.7669 91.5225 40.0131 91.4834C40.533 91.396 41.0866 90.8178 41.0866 90.2849C41.0805 89.0227 41.0491 87.7604 41.082 86.4998C41.0981 85.9016 40.7753 85.5734 40.3581 85.2214C39.7339 86.2183 39.4847 87.1753 40.3351 88.1661C39.5269 87.706 39.1734 86.9867 38.9502 86.1723C38.9241 87.4836 38.9395 88.7849 38.9157 90.0832C38.908 90.5042 39.0553 90.8178 39.3513 91.1207L39.4724 90.8033Z" fill="#FAF4F0"></path> <path d="M53.9703 83.7522L56.4303 81.1902C57.0393 81.9891 57.4858 82.8996 57.7447 83.8703C58.4172 86.3725 57.9916 88.6783 56.4211 90.7419C56.1029 91.1614 55.6642 91.4942 55.2532 91.8339C55.1459 91.9221 54.9135 91.9428 54.7739 91.8937C53.8829 91.5808 52.9987 91.2485 52.1214 90.8968C52.0057 90.8508 51.8638 90.6775 51.863 90.5625C51.8485 87.3463 51.8393 84.1295 51.8554 80.9133C51.8646 79.0898 53.4251 77.2088 55.2532 76.5355C55.2983 76.5242 55.3453 76.5235 55.3907 76.5335C55.4361 76.5435 55.4785 76.5638 55.5147 76.593C56.3881 77.5193 57.2524 78.4533 58.1795 79.451L56.497 80.8819C56.4771 80.3658 56.0584 79.8674 55.6389 79.3812C55.2947 78.9887 54.9302 78.6145 54.547 78.2601C54.4904 78.2166 54.4257 78.185 54.3566 78.1671C54.2876 78.1492 54.2157 78.1453 54.1451 78.1558C54.0738 78.1688 54.0286 78.3498 53.9787 78.4579C53.9698 78.4954 53.9682 78.5342 53.9741 78.5722L53.9703 83.7522ZM53.9703 87.002H54.0178C54.0178 87.627 54.0278 88.252 54.014 88.8762C54.0071 89.2067 54.1352 89.4598 54.4158 89.6016C55.6811 90.2442 56.2923 90.0272 56.5538 88.7021C56.8743 87.0757 56.4326 85.6263 55.425 84.3357C54.9948 83.7844 54.4994 83.8204 54.1658 84.4416C54.054 84.6539 53.9901 84.8882 53.9787 85.1279C53.9511 85.7521 53.968 86.3778 53.968 87.002H53.9703Z" fill="#FAF4F0"></path> <path d="M80.7927 90.3654L79.3633 92.0524C78.9799 91.6951 78.5965 91.3768 78.2721 91.008C78.1625 90.883 78.1954 90.6246 78.174 90.4306C78.1594 90.2718 78.174 90.1108 78.174 89.8807C77.9232 90.2412 77.7468 90.5709 77.5022 90.8293C77.1393 91.2041 76.7566 91.5591 76.3558 91.8929C76.1303 92.0885 75.9118 92.08 75.7001 91.8208C75.3206 91.3561 74.7684 90.9712 74.5614 90.4459C74.3612 89.9344 74.497 89.2887 74.4962 88.7021C74.4962 86.7605 74.4824 84.8181 74.5039 82.8742C74.51 82.3182 74.3927 81.842 74.0123 81.4846C74.4617 81.0146 74.8996 80.5514 75.3428 80.0944C75.5107 79.9211 75.6779 79.931 75.8221 80.1335C75.8345 80.156 75.8486 80.1775 75.8642 80.1979C76.4072 80.7623 76.5613 81.4202 76.5429 82.2101C76.49 84.4193 76.5237 86.6301 76.5306 88.8401C76.5306 89.1799 76.4892 89.5863 76.8979 89.7258C77.3243 89.8715 77.6249 89.5878 77.8764 89.2834C78.1289 88.9928 78.2654 88.6193 78.2598 88.2343C78.246 85.8572 78.2598 83.48 78.243 81.1028C78.243 80.7638 78.3427 80.5997 78.6678 80.5062C79.0466 80.3965 79.4055 80.2232 79.7774 80.089C79.9253 80.0485 80.0757 80.0178 80.2275 79.997V81.8029C80.2275 84.359 80.2247 86.9136 80.2191 89.4667C80.2183 89.88 80.3847 90.1752 80.7927 90.3654Z" fill="#FAF4F0"></path> <path d="M50.814 90.7135C50.3623 91.12 49.9375 91.4888 49.5295 91.8753C49.3478 92.0478 49.1607 92.0348 49.0249 91.8822C48.7067 91.5233 48.4115 91.1407 48.1277 90.7557C48.0334 90.6292 47.9866 90.4666 47.9261 90.337C47.4361 90.8094 46.9292 91.2427 46.4974 91.7357C46.216 92.054 46.0235 91.9857 45.7866 91.7419C44.4508 90.3669 44.0589 88.7397 44.5642 86.9108C44.9431 85.5397 45.8679 84.5489 47.0273 83.7982C47.3571 83.5843 47.8394 83.6057 48.275 83.5145C48.3517 82.0905 47.0841 81.4195 45.328 82.1173C45.3756 81.9793 45.3794 81.8665 45.4377 81.8159C46.1416 81.2025 46.8502 80.6005 47.5687 80.0077C47.6178 79.9742 47.6731 79.9511 47.7314 79.9398C47.7897 79.9285 47.8497 79.9291 47.9077 79.9418C48.7642 80.1596 49.4797 80.6151 49.9973 81.3321C50.1453 81.5523 50.2253 81.8113 50.2273 82.0767C50.235 84.5919 50.222 87.1079 50.2082 89.6239C50.2082 90.0487 50.3531 90.3915 50.814 90.7135ZM48.2244 86.8955H48.2029C48.2029 86.2321 48.2328 85.5665 48.186 84.9063C48.1699 84.6762 48.002 84.3189 47.8356 84.2744C47.6255 84.2177 47.3088 84.3749 47.1063 84.529C46.9039 84.6831 46.7996 84.9316 46.6685 85.1478C46.2482 85.8096 46.0462 86.5867 46.0911 87.3694C46.1359 88.152 46.4253 88.9009 46.9184 89.5104C47.0779 89.7121 47.2597 89.8608 47.5388 89.7742C47.8632 89.6737 48.2228 89.1868 48.2236 88.8471C48.2259 88.196 48.2244 87.5457 48.2244 86.8955Z" fill="#FAF4F0"></path> <path d="M60.5413 92.0509C59.8389 91.5908 59.4064 91.0027 59.1035 90.3187C58.1373 88.1347 58.809 85.7537 60.7982 84.1694C61.335 83.7438 61.8718 83.4371 62.5811 83.6495C62.6708 82.9823 62.279 82.2692 61.6609 81.9379C60.9815 81.5736 60.3381 81.793 59.6955 82.0782L59.6288 81.9877C59.8389 81.7792 60.0375 81.5575 60.2606 81.3643C60.7706 80.9211 61.2851 80.4817 61.8173 80.0653C61.8838 80.0173 61.9593 79.9832 62.0393 79.9652C62.1193 79.9471 62.2021 79.9454 62.2828 79.9602C63.1056 80.1765 63.8301 80.6666 64.3372 81.3497C64.4695 81.5332 64.5433 81.7524 64.5488 81.9785C64.558 84.5188 64.5542 87.0593 64.5373 89.6001C64.5373 90.0265 64.647 90.3777 65.0449 90.6369C64.6194 91.0771 64.2221 91.5042 63.8073 91.9129C63.5956 92.1207 63.3694 91.9681 63.2352 91.8163C62.9576 91.4866 62.6985 91.1418 62.4592 90.7834C62.3732 90.6411 62.2979 90.4927 62.2337 90.3394L60.5413 92.0509ZM62.5405 86.8909H62.5267C62.5267 86.2276 62.5267 85.565 62.5267 84.9017C62.5267 84.595 62.4254 84.279 62.1233 84.2507C61.8932 84.2284 61.5865 84.3787 61.4017 84.5505C61.1778 84.7614 61.0283 85.0635 60.8818 85.3449C60.1257 86.8019 60.2591 88.1869 61.2261 89.5058C61.4017 89.7458 61.6195 89.8271 61.8894 89.7489C62.1961 89.6615 62.5382 89.1676 62.5397 88.8417C62.542 88.1914 62.5405 87.5389 62.5405 86.8909V86.8909Z" fill="#FAF4F0"></path> <path d="M83.094 95.0738L84.9582 91.8531C84.0027 91.4697 83.7198 90.6783 83.4299 89.9245C82.6669 87.943 82.3165 85.8718 82.1662 83.7614C82.1482 83.3543 82.0899 82.95 81.9921 82.5544C81.8824 82.1603 81.6853 81.7876 81.532 81.4325C81.9231 81.0207 82.3525 80.5606 82.7835 80.112C82.9468 79.941 83.1017 79.9288 83.262 80.1297C83.6845 80.658 84.0457 81.1634 84.0089 81.9287C83.9245 83.6924 84.074 85.4561 84.5694 87.1585C84.7228 87.6761 85.0035 88.1554 85.2596 88.6377C85.3301 88.7696 85.5295 88.8325 85.6691 88.9268C85.7603 88.7827 85.906 88.6485 85.9336 88.4936C86.0947 87.5895 86.2549 86.6831 86.3661 85.7721C86.541 84.3373 86.6353 82.8972 86.4742 81.4532C86.4546 81.2503 86.4143 81.0499 86.3539 80.8551C86.2856 80.6496 86.3324 80.5399 86.544 80.4924C87.0762 80.372 87.6076 80.2485 88.2134 80.109C88.1137 80.5951 87.9972 81.02 87.9427 81.4525C87.7296 83.1487 87.511 84.8457 87.3392 86.5473C87.133 88.5971 86.6644 90.5633 85.7013 92.4006C85.3179 93.1398 85.0487 93.9266 85.0249 94.7732C85.0188 94.981 84.9482 95.0799 84.732 95.0753C84.2121 95.0707 83.6868 95.0738 83.094 95.0738Z" fill="#FAF4F0"></path> <path d="M93.7692 90.4344C93.2094 90.9605 92.6703 91.465 92.1335 91.9735C91.9487 92.1491 91.7968 92.0685 91.6281 91.9412C90.3552 90.9781 89.5868 89.6852 89.1643 88.1684C89.0896 87.8984 89.0343 87.6234 88.9987 87.3456C88.9289 86.8088 88.9757 86.2291 88.2426 85.9384C88.9887 85.5128 88.9895 84.8327 89.1382 84.2092C89.527 82.5743 90.3981 81.2147 91.5683 80.03C91.7401 79.8559 91.8751 79.7999 91.9962 80.0691C92.4333 81.0345 93.0966 81.7776 94.1786 82.2055C93.8926 82.6418 93.6664 83.0712 93.3612 83.4324C92.9486 83.9209 92.3988 83.9232 91.9149 83.4646C91.5829 83.1495 91.2961 82.7867 90.9863 82.447C90.7417 82.1794 90.5837 82.197 90.494 82.5398C89.7778 85.2843 90.2317 88.9398 93.6641 90.3616C93.701 90.383 93.7361 90.4074 93.7692 90.4344Z" fill="#FAF4F0"></path> <path d="M45.9108 98.362C45.8571 98.9969 45.8027 99.5253 45.7705 100.055C45.7574 100.274 45.6938 100.362 45.4515 100.265C45.5366 99.5353 45.6225 98.8083 45.7099 98.056C45.9921 97.9494 46.1738 97.9793 46.2689 98.3482C46.3932 98.8382 46.5925 99.309 46.7758 99.8343C47.0235 99.2063 47.2512 98.6273 47.4867 98.0277H47.9115C47.9713 98.7769 48.0296 99.51 48.0917 100.283L47.7597 100.308C47.7175 99.6672 47.6776 99.0606 47.637 98.454L47.5825 98.4356C47.3762 98.9555 47.1753 99.477 46.9598 99.9923C46.9115 100.107 46.8118 100.201 46.7359 100.304C46.6541 100.207 46.5834 100.101 46.525 99.9885C46.3249 99.4823 46.1393 98.9716 45.9108 98.362Z" fill="#FAF4F0"></path> <path d="M78.2154 100.33V98.0399L78.5359 98.0231V100.031H79.4799V98.0729C79.7468 97.9518 79.8288 98.0323 79.825 98.2815C79.8165 98.8543 79.825 99.4271 79.825 100.023L80.1417 100.094C80.2506 100.258 80.0888 100.949 79.8886 101.059V100.33H78.2154Z" fill="#FAF4F0"></path> <path d="M54.027 100.378C53.3836 100.384 52.9097 99.9087 52.8952 99.2423C52.879 98.5399 53.3813 97.9794 54.037 97.9686C54.6696 97.9579 55.1573 98.4479 55.1688 99.1066C55.1811 99.8136 54.6804 100.372 54.027 100.378ZM54.8222 99.1618C54.8176 98.625 54.4817 98.2286 54.0255 98.2217C53.5692 98.2148 53.2333 98.6404 53.2418 99.2078C53.2502 99.7446 53.5968 100.128 54.0577 100.128C54.4986 100.122 54.8268 99.707 54.8222 99.1618V99.1618Z" fill="#FAF4F0"></path> <path d="M64.0626 100.291H63.7145V98.6373C63.2904 99.1702 62.9162 99.6465 62.5328 100.116C62.4578 100.188 62.3741 100.25 62.2836 100.301C62.2459 100.205 62.2202 100.104 62.2069 100.001C62.1992 99.3535 62.2069 98.7071 62.2069 98.0353L62.5236 98.0139V99.7316C62.9492 99.1848 63.3334 98.6856 63.726 98.1933C63.7999 98.1211 63.8826 98.0585 63.9722 98.007C64.0044 98.1066 64.0626 98.2056 64.0642 98.3053C64.0672 98.9517 64.0626 99.6012 64.0626 100.291Z" fill="#FAF4F0"></path> <path d="M84.9996 100.289C84.7465 100.354 84.6829 100.262 84.6929 100.039C84.709 99.5943 84.6982 99.1488 84.6982 98.6496C84.4314 98.9686 84.1906 99.2546 83.9529 99.5429C83.732 99.8105 83.5158 100.08 83.2972 100.35L83.1983 100.283V98.0591C83.3961 97.9655 83.5112 97.9924 83.505 98.2654C83.4966 98.7101 83.505 99.1557 83.505 99.6871L84.9137 97.9732L84.9996 98.033V100.289Z" fill="#FAF4F0"></path> <path d="M82.4598 98.0767V100.268C82.2298 100.345 82.1071 100.333 82.1224 100.03C82.1447 99.5859 82.1278 99.1404 82.1278 98.6542C81.8809 98.9525 81.6424 99.237 81.407 99.5238C81.1715 99.8106 80.9561 100.078 80.7306 100.356L80.6186 100.283C80.6186 99.5844 80.6117 98.8858 80.6286 98.1879C80.6286 98.1113 80.7712 98.0384 80.8479 97.9633L80.9323 98.0284V99.7032L82.3578 97.9686L82.4598 98.0767Z" fill="#FAF4F0"></path> <path d="M50.2795 98.0008V100.244C49.9651 100.314 49.9651 100.314 49.9666 99.9731C49.9666 99.7837 49.9666 99.5935 49.9666 99.4095C49.3938 99.2461 49.1468 99.3865 48.9567 100.005C48.8877 100.228 48.8171 100.388 48.4697 100.259C48.653 99.9056 48.8309 99.5613 49.0165 99.2016C48.7366 99.1043 48.5725 98.8435 48.6599 98.4708C48.7504 98.0805 49.087 98.0314 49.4083 98.0054C49.6852 97.9831 49.9643 98.0008 50.2795 98.0008ZM49.9474 99.0897V98.1856C49.6085 98.2669 49.3079 98.3205 49.0272 98.4241C48.9804 98.4409 48.9605 98.707 49.0188 98.8037C49.2235 99.1457 49.5801 99.0828 49.9459 99.0897H49.9474Z" fill="#FAF4F0"></path> <path d="M73.8935 100.268V98.0338H75.5399C75.5399 98.75 75.546 99.4601 75.5284 100.169C75.5284 100.228 75.3689 100.282 75.2217 100.376V98.2745H74.214C74.214 98.8773 74.2079 99.4624 74.214 100.048C74.2209 100.275 74.1412 100.35 73.8935 100.268Z" fill="#FAF4F0"></path> <path d="M67.0763 100.371V98.0706C67.3263 98.0092 67.3263 98.0092 67.4329 98.8612C67.6905 98.8911 67.9551 98.908 68.2135 98.9563C68.5202 99.013 68.7258 99.1971 68.7503 99.5184C68.7779 99.8519 68.6069 100.114 68.2994 100.194C67.9167 100.295 67.5111 100.313 67.0763 100.371ZM67.4191 100.049C67.7979 100.054 68.1591 100.146 68.363 99.7967C68.3918 99.7244 68.4025 99.6461 68.3941 99.5687C68.3857 99.4913 68.3584 99.4172 68.3147 99.3527C68.0655 99.0836 67.7304 99.1227 67.4191 99.1664V100.049Z" fill="#FAF4F0"></path> <path d="M65.4192 98.0192H66.3516V100.29H66.0449V98.2961C65.7382 98.1741 65.6124 98.2554 65.5081 98.5598C65.327 99.0474 65.1151 99.523 64.8739 99.9839C64.8049 100.123 64.6569 100.223 64.4675 100.422C64.4675 100.212 64.4215 100.064 64.4744 100.004C64.9514 99.4593 65.1646 98.7937 65.3663 98.1243C65.3808 98.0878 65.3985 98.0526 65.4192 98.0192V98.0192Z" fill="#FAF4F0"></path> <path d="M60.1134 100.304V98.0192C60.4654 98.0192 60.8181 97.9955 61.1663 98.0269C61.4462 98.053 61.6839 98.1902 61.7169 98.5177C61.7498 98.8451 61.6256 99.1112 61.3173 99.2293C61.0497 99.3321 60.7568 99.3719 60.4562 99.444C60.4416 99.7116 60.4301 99.9969 60.4002 100.281C60.3987 100.296 60.2384 100.294 60.1134 100.304ZM60.4516 98.2853V99.1288C60.7997 99.1542 61.1371 99.1933 61.3442 98.885C61.3753 98.8187 61.3899 98.7458 61.3867 98.6726C61.3835 98.5994 61.3626 98.5281 61.3258 98.4648C61.095 98.1734 60.769 98.2125 60.4516 98.2853Z" fill="#FAF4F0"></path> <path d="M76.5805 99.2293V100.051C76.8934 100.051 77.194 100.043 77.4923 100.056C77.5689 100.056 77.6502 100.126 77.7292 100.164C77.6579 100.212 77.5874 100.3 77.5137 100.302C77.1081 100.316 76.7009 100.308 76.2707 100.308V98.0115C76.6725 98.0115 77.0644 98.0054 77.4562 98.0184C77.516 98.0184 77.5728 98.1081 77.6318 98.1564C77.5651 98.1979 77.5007 98.2722 77.4317 98.2753C77.1556 98.2891 76.878 98.2814 76.582 98.2814V98.9785C76.8029 98.9785 77.0038 98.967 77.2016 98.9846C77.2783 98.9915 77.3504 99.0667 77.424 99.1104C77.3473 99.1503 77.2706 99.217 77.1886 99.2239C76.9915 99.24 76.7914 99.2293 76.5805 99.2293Z" fill="#FAF4F0"></path> <path d="M52.6429 100.14C52.5662 100.206 52.5064 100.305 52.4205 100.333C51.9734 100.478 51.3324 100.28 51.0617 99.9286C50.9183 99.7387 50.8349 99.5104 50.8221 99.2729C50.8092 99.0353 50.8675 98.7993 50.9896 98.5951C51.12 98.3811 51.3101 98.2099 51.5365 98.1025C51.763 97.9951 52.0158 97.9563 52.2641 97.9908C52.3407 98.0039 52.4067 98.0897 52.478 98.1442C52.4013 98.1894 52.3308 98.2738 52.2564 98.2753C51.4689 98.2907 51.113 98.6051 51.1698 99.2515C51.2235 99.865 51.7104 100.182 52.4289 100.07C52.4765 100.062 52.5263 100.064 52.5754 100.061L52.6429 100.14Z" fill="#FAF4F0"></path> <path d="M73.4633 100.147C73.3804 100.212 73.303 100.324 73.2125 100.336C72.7018 100.403 72.2018 100.371 71.8636 99.911C71.5638 99.5023 71.5531 99.0498 71.7977 98.6135C72.0692 98.1288 72.5132 97.941 73.0545 97.9947C73.1366 98.0023 73.2079 98.1043 73.2846 98.1626C73.2079 98.1994 73.1312 98.273 73.0591 98.2676C72.6504 98.2354 72.2839 98.2991 72.0807 98.7001C71.9058 99.0437 71.9181 99.4003 72.1504 99.7139C72.4135 100.069 72.7808 100.166 73.2048 100.073C73.2658 100.063 73.3272 100.057 73.3889 100.054L73.4633 100.147Z" fill="#FAF4F0"></path> <path d="M58.2838 98.0115C58.7147 98.0115 59.1188 98.0054 59.5222 98.0177C59.5805 98.0177 59.6357 98.112 59.6924 98.1618C59.6288 98.2056 59.5674 98.2838 59.5023 98.2868C59.2132 98.3006 58.9225 98.293 58.6104 98.293V100.393C58.4571 100.259 58.2976 100.186 58.2953 100.108C58.2753 99.4248 58.2838 98.74 58.2838 98.0115Z" fill="#FAF4F0"></path> <path d="M56.6327 100.428C56.5131 100.254 56.3912 100.154 56.4027 100.077C56.4193 100.023 56.4489 99.9739 56.489 99.9337C56.5291 99.8936 56.5785 99.864 56.6327 99.8474C56.7033 99.8366 56.8628 99.977 56.8628 100.048C56.862 100.146 56.7493 100.247 56.6327 100.428Z" fill="#FAF4F0"></path> <path d="M70.5317 100.047C70.353 100.169 70.2564 100.277 70.1482 100.295C70.0808 100.306 69.9949 100.177 69.912 100.111C69.9933 100.015 70.06 99.8757 70.162 99.8397C70.228 99.8159 70.3484 99.9386 70.5317 100.047Z" fill="#FAF4F0"></path> <path d="M49.9459 99.0897C49.5786 99.0828 49.222 99.1457 49.0165 98.8037C48.9583 98.7071 48.9782 98.441 49.025 98.4241C49.3064 98.3206 49.607 98.2669 49.9452 98.1856L49.9459 99.0897Z" fill="black"></path> <path d="M67.4191 100.049V99.1664C67.7304 99.125 68.0655 99.0836 68.3147 99.3528C68.3584 99.4172 68.3856 99.4914 68.3941 99.5687C68.4025 99.6461 68.3918 99.7244 68.363 99.7967C68.1591 100.146 67.7979 100.054 67.4191 100.049Z" fill="black"></path> <path d="M60.4516 98.2853C60.7721 98.2125 61.098 98.1734 61.3258 98.464C61.3626 98.5273 61.3835 98.5987 61.3867 98.6718C61.3899 98.745 61.3753 98.8179 61.3442 98.8842C61.1372 99.191 60.7997 99.1534 60.4516 99.1281V98.2853Z" fill="black"></path> <path d="M84.3409 55.3271C84.0173 62.4464 80.6056 68.3633 73.6558 72.0111C69.57 74.1583 65.186 74.59 60.6962 73.5019C56.1282 72.3938 52.4765 69.8724 49.6936 66.0873C48.4418 64.3736 47.4874 62.4616 46.8701 60.4311C46.0994 57.9389 45.805 55.3861 46.1294 52.8011C46.3157 51.3058 46.5803 49.7928 47.0496 48.3665C47.7558 46.2193 48.8723 44.2578 50.3094 42.4871C52.8676 39.3362 56.0722 37.1354 59.9869 36.0779C66.4206 34.3395 72.2563 35.6377 77.4179 39.8354C79.598 41.6053 81.2329 43.8291 82.4598 46.3551C83.7305 48.983 84.2634 51.7682 84.3409 55.3271ZM83.7182 54.4835C83.7466 52.5664 83.3724 50.5006 82.6845 48.5022C81.4852 45.0238 79.4515 42.1098 76.5207 39.8707C71.5193 36.0511 65.9314 34.9629 59.911 36.719C54.7256 38.2312 50.9428 41.5516 48.528 46.3934C47.5396 48.3741 46.9844 50.4799 46.7329 52.6815C46.4411 55.1819 46.6762 57.7157 47.423 60.1198C47.8084 61.3868 48.3255 62.6099 48.9659 63.7692C51.9435 69.0795 56.4541 72.2634 62.4837 73.2174C66.2412 73.8109 69.853 73.2465 73.2524 71.5648C77.5712 69.4269 80.6248 66.0774 82.4146 61.596C83.3033 59.3852 83.7305 57.0762 83.7182 54.4812V54.4835Z" fill="#FAF4F0"></path> <path d="M66.5725 53.0741C65.2689 55.1791 64.7574 57.1476 66.6154 59.1628C65.6009 58.9151 64.3049 57.179 63.9246 55.699C63.4054 53.6792 64.0511 51.9906 65.4176 50.4968C65.0219 51.417 64.6316 52.3265 64.2413 53.2352L64.3678 53.2896C64.456 53.0695 64.5128 52.8295 64.6378 52.6317C65.15 51.825 65.6807 51.0305 66.2098 50.2353C66.7026 49.492 67.1995 48.7507 67.7005 48.0115C67.7746 47.9127 67.854 47.818 67.9382 47.7277H68.0701L68.4965 49.7729C68.6905 49.2123 68.3899 47.2784 67.9528 46.7654C67.7005 47.2684 67.4551 47.7622 67.209 48.2507L67.1238 48.2155C67.2488 47.9172 67.3853 47.6235 67.4958 47.3198C67.5901 47.0583 67.6491 46.783 67.7358 46.5184C67.7726 46.408 67.8324 46.2393 67.9075 46.224C67.969 46.2209 68.0303 46.2327 68.0862 46.2584C68.1421 46.284 68.191 46.3227 68.2289 46.3712C68.4275 46.7071 68.6736 47.046 68.7488 47.4156C68.932 48.3228 69.0302 49.2468 69.1629 50.1655C69.7947 49.2146 69.6774 48.0951 69.7234 46.8766C70.0048 47.0744 70.251 47.1956 70.4281 47.3811C71.0002 47.9831 71.2924 48.7315 71.4833 49.5283C71.6305 50.1417 71.7982 50.7534 71.9864 51.3633V49.4585L72.063 49.4516C72.106 50.1233 72.2479 50.8089 72.1612 51.4638C72.0891 52.0044 72.1489 52.5243 72.1512 53.0504C72.1604 55.4276 72.1988 57.8009 72.221 60.1766C72.2294 61.0201 72.221 61.8636 72.221 62.7071C72.221 62.8298 72.2141 62.9778 72.1489 63.0699C71.1175 64.5215 69.9427 65.8259 68.2749 66.5636C66.7128 67.2537 65.1531 67.0237 63.6209 66.4386C62.8088 66.1318 61.9837 65.8796 61.1226 66.0943C60.5904 66.2269 60.0958 66.5061 59.5805 66.7077C59.3236 66.809 59.0644 66.9263 58.796 66.9708C58.5422 67.0122 58.4011 66.8343 58.4831 66.5873C58.5469 66.3815 58.6556 66.1924 58.8014 66.0337C59.3213 65.5076 59.5483 64.8765 59.5452 64.1526C59.5273 58.6467 59.5081 53.1406 59.4877 47.6342C59.4877 46.7922 59.4877 45.9505 59.4877 45.109C59.4877 44.4096 59.1809 43.8874 58.6012 43.5163C58.3336 43.3453 58.0499 43.1482 58.1764 42.7962C58.296 42.4619 58.6303 42.4373 58.954 42.4565C59.5015 42.4887 60.0513 42.5332 60.5996 42.5293C63.078 42.504 65.5564 42.4603 68.0379 42.4312C68.8047 42.422 69.5716 42.4312 70.3384 42.445C71.0286 42.4588 71.3836 42.7203 71.4726 43.244C71.5761 43.8521 71.2778 44.3828 70.7004 44.6313C70.2625 44.8199 69.8216 44.7777 69.3898 44.6366C69.0819 44.5431 68.7848 44.4171 68.5034 44.2609C67.1714 43.4902 65.7336 43.5485 64.2858 43.7187C63.8203 43.7732 63.624 44.1121 63.6255 44.6934C63.6255 46.1112 63.647 47.5307 63.6478 48.9478C63.6478 51.8331 63.645 54.719 63.6393 57.6054C63.6393 59.5715 63.6148 61.5385 63.6393 63.5039C63.6493 64.1825 64.147 64.6541 64.5787 65.1143C64.8026 65.3527 65.1048 65.5161 65.357 65.7277C65.7113 66.0268 66.0342 65.9639 66.3892 65.7154C67.005 65.2771 67.5257 64.7186 67.9198 64.0737C67.9771 63.962 68.0036 63.837 67.9965 63.7117C68.0001 60.8647 68.0001 58.0172 67.9965 55.1691C68.0019 54.9929 67.9546 54.8191 67.8608 54.6699C67.4613 54.1469 67.0372 53.6447 66.5725 53.0741Z" fill="#FAF4F0"></path> <path d="M65.0419 111.673C89.6844 111.673 109.661 91.6961 109.661 67.0535C109.661 42.411 89.6844 22.4343 65.0419 22.4343C40.3994 22.4343 20.4227 42.411 20.4227 67.0535C20.4227 91.6961 40.3994 111.673 65.0419 111.673Z" stroke="#FAF4F0" stroke-width="8" stroke-miterlimit="10"></path> </g> <defs> <clipPath id="clip0_1_122"> <rect width="89.8511" height="89.8511" fill="white" transform="translate(20.1159 22.1276)"></rect> </clipPath> </defs> </svg> 