<?xml version="1.0" encoding="UTF-8"?> <svg xmlns="http://www.w3.org/2000/svg" width="135" height="135" viewBox="0 0 135 135" fill="none"> <rect x="0.636719" width="133.436" height="134.106" rx="20" fill="#8E8E8E"></rect> <g clip-path="url(#clip0_1_103)"> <path fill-rule="evenodd" clip-rule="evenodd" d="M53.2945 61.2002C53.2945 61.669 53.7265 62.0526 54.2535 62.0526C54.7805 62.0526 54.9607 61.669 54.6528 61.2002C54.3449 60.7314 53.914 60.3478 53.6939 60.3478C53.4739 60.3478 53.2945 60.7314 53.2945 61.2002ZM68.3025 61.8395C68.0236 62.6595 65.72 64.6601 63.1837 66.2847C57.8955 69.6713 55.4515 73.2292 56.8551 75.4966C57.6519 76.7837 57.7705 76.7146 57.7949 74.9468C57.8131 73.5889 59.7554 71.1834 63.7079 67.6238C66.9451 64.7086 69.5938 61.8787 69.5938 61.3357C69.5938 59.8636 68.8802 60.1415 68.3025 61.8395ZM73.3969 61.3707C71.6186 63.0448 72.1546 65.1212 74.6384 66.1867C78.0476 67.6494 77.2082 70.1895 73.3725 70.0208C70.9394 69.9142 70.6089 70.1001 71.4782 71.0863C72.9343 72.7374 75.3637 72.5814 77.1503 70.7223C79.3018 68.4839 78.9993 66.4279 76.3498 65.2917C73.5364 64.0855 73.7565 61.536 76.6486 61.8292C77.7489 61.9409 78.6489 61.6537 78.6489 61.1899C78.6489 60.0034 74.7054 60.1389 73.3969 61.3707ZM22.2391 65.9259C20.5068 71.2235 20.3339 72.5925 21.4848 71.9233C21.9185 71.671 22.5198 70.3055 22.8204 68.8896C23.5204 65.5943 24.9094 65.5858 25.6764 68.8718C26.4271 72.0878 27.1361 72.0878 29.1545 68.8718C31.2045 65.6045 32.4777 65.5994 32.0394 68.8607C31.8511 70.2611 32.0738 71.6258 32.5347 71.8943C33.0174 72.1748 33.3732 69.9245 33.3732 66.5933V60.8047L30.9827 64.1989C27.4168 69.2622 27.3199 69.2928 26.1174 65.7537C24.4277 60.7799 23.9152 60.803 22.2391 65.9259ZM108.164 62.6919C107.556 64.4563 105.748 65.0803 102.419 64.6737C101.797 64.597 101.287 65.0794 101.287 65.7443C101.287 66.41 101.02 68.212 100.693 69.7497C100.266 71.7588 100.393 72.3751 101.145 71.937C101.722 71.602 102.192 70.4052 102.192 69.2775C102.192 67.1925 105.126 64.9609 106.679 65.8645C107.134 66.1296 107.296 67.7773 107.038 69.5264C106.685 71.9284 106.807 72.3947 107.537 71.4289C108.068 70.7257 108.509 69.3193 108.517 68.3032C108.525 67.288 108.931 66.329 109.42 66.1722C109.962 65.9992 110.02 64.8902 109.568 63.3312C108.859 60.8933 108.795 60.8635 108.164 62.6919ZM36.3813 66.8533C34.3584 69.7591 35.7149 71.8449 39.653 71.8832C42.9916 71.9156 42.9056 72.0001 43.6807 67.9452C44.2584 64.926 44.2258 64.8851 41.0864 64.7743C38.5963 64.6865 37.5758 65.1374 36.3813 66.8533ZM46.4625 65.8884C45.6756 68.4165 45.4736 71.5192 46.0722 71.8679C46.4488 72.087 47.0238 70.9269 47.3508 69.2903C47.6912 67.5787 48.4809 66.3146 49.2071 66.3146C49.9025 66.3146 50.6966 65.9719 50.971 65.5525C51.2463 65.134 50.4041 64.8459 49.0993 64.9132C47.7953 64.9806 46.6082 65.4195 46.4625 65.8884ZM52.389 65.7818C52.389 66.4262 52.131 68.2486 51.8168 69.8307C51.4346 71.752 51.5451 72.4245 52.1518 71.8551C53.3851 70.6959 54.2979 64.6098 53.2375 64.6098C52.7711 64.6098 52.389 65.1374 52.389 65.7818ZM81.8535 65.434C81.6987 65.6838 81.3365 68.3816 81.0494 71.4289C80.6021 76.1751 80.6701 76.5749 81.5257 74.2129C82.3543 71.9259 82.8759 71.5397 84.5882 71.9438C87.2857 72.5814 90.3744 68.639 88.9002 66.4416C88.0273 65.14 82.5236 64.3532 81.8535 65.434ZM91.8305 66.5046C90.0674 68.8734 90.0521 70.0796 91.7671 71.4196C93.5483 72.8107 97.3577 71.8568 98.5757 69.7139C100.939 65.5576 94.7317 62.6049 91.8305 66.5046ZM42.4284 68.0628C42.4284 69.4267 39.6294 71.3454 38.3273 70.8757C36.4982 70.2143 36.6503 67.4338 38.57 66.422C40.1419 65.5943 42.4284 66.5669 42.4284 68.0628ZM87.5212 67.7346C87.8978 70.1205 85.424 71.9787 83.6827 70.6183C82.3398 69.569 82.7491 67.2224 84.4686 66.1151C85.9519 65.1604 87.2215 65.8338 87.5212 67.7346ZM97.6647 68.0807C97.6647 69.8196 95.1492 71.4196 93.3635 70.8169C91.7164 70.2603 91.9781 67.3852 93.762 66.4458C95.8157 65.3633 97.6647 66.1381 97.6647 68.0807ZM62.8024 72.1799L59.1804 76.0225L62.4973 73.681C65.3316 71.6804 67.5066 68.9714 66.6726 68.4822C66.5359 68.403 64.7945 70.0668 62.8024 72.1799Z" fill="#FCF9F9"></path> </g> <defs> <clipPath id="clip0_1_103"> <rect width="89.1806" height="16.0927" fill="white" transform="translate(20.7526 60.3478)"></rect> </clipPath> </defs> </svg> 