<?xml version="1.0" encoding="UTF-8"?> <svg xmlns="http://www.w3.org/2000/svg" width="135" height="135" viewBox="0 0 135 135" fill="none"> <rect x="0.184082" width="134.106" height="134.106" rx="20" fill="#8E8E8E"></rect> <path fill-rule="evenodd" clip-rule="evenodd" d="M101.154 21.4978C97.5737 23.8918 95.0864 26.1014 95.0864 26.8886C95.0864 28.398 97.3882 35.727 98.1281 36.5751C98.395 36.8804 101.502 37.81 105.032 38.6407L111.45 40.1509L114.264 33.0482C115.811 29.1417 116.974 25.6702 116.847 25.334C116.618 24.7288 107.947 17.4228 107.47 17.4339C107.334 17.437 104.492 19.2661 101.154 21.4978ZM75.1054 30.7619C74.6842 31.159 63.7695 37.6383 50.8512 45.1603C37.933 52.6823 27.2202 58.9496 27.0456 59.0888C26.871 59.2273 27.2797 62.6378 27.9546 66.667C33.3012 98.6006 35.7463 112.79 35.9365 112.983C36.3765 113.428 82.9652 117.671 83.579 117.323C84.5091 116.793 112.488 74.2689 112.866 72.8101C113.192 71.5498 78.5268 30.7033 76.7558 30.2611C76.2696 30.1393 75.5274 30.3647 75.1054 30.7619ZM70.3053 55.9955C71.0898 64.3901 70.9567 66.254 69.5294 66.8078C67.8485 67.4589 67.742 67.3062 67.0585 63.2573L66.4768 59.8175L65.3893 63.1473C64.1312 67.0016 62.9654 67.3102 60.6949 64.3933L59.0719 62.3087V65.9289C59.0719 69.5403 57.8568 71.496 56.7435 69.6756C55.6372 67.8663 55.1769 56.6712 56.1829 56.0248C57.8404 54.96 58.646 55.3618 60.5657 58.2099C62.7039 61.3823 63.0233 61.2193 64.9571 55.9694C66.1754 52.6625 67.7483 50.7599 69.3321 50.6792C69.5928 50.6665 70.0313 53.0589 70.3053 55.9955ZM78.8603 56.1482C79.1805 57.3871 78.6035 57.9108 75.8821 58.8475C72.301 60.0809 71.5987 59.9021 71.5987 57.7582C71.5987 56.9473 72.5993 56.0976 74.1432 55.5976C77.8762 54.3872 78.4211 54.4513 78.8603 56.1482ZM43.8331 61.2913C44.8806 69.7603 44.7053 73.9168 43.2897 74.2096C42.3784 74.3971 41.8311 73.7396 41.4538 72.0039C41.038 70.091 40.6223 69.6582 39.6202 70.0941C36.8361 71.3046 34.2399 71.3671 33.8101 70.235C33.5729 69.6108 33.1337 67.1179 32.8346 64.6963C32.3476 60.7628 32.4603 60.2004 33.8892 59.4282C35.3712 58.626 35.5239 58.8373 35.9858 62.3229C36.7437 68.0412 36.8705 68.2666 38.759 67.2453C40.1306 66.504 40.3585 65.7295 40.1839 62.4092C40.039 59.6418 40.3162 58.2384 41.1077 57.732C43.0243 56.5066 43.2835 56.8444 43.8331 61.2913ZM53.5914 58.5833C53.5914 59.5216 52.7827 60.5556 51.6341 61.084C50.5576 61.5793 49.6768 62.3229 49.6768 62.7351C49.6768 63.1473 50.5576 63.2612 51.6341 62.9883C53.2329 62.5832 53.5914 62.7818 53.5914 64.0745C53.5914 65.1021 52.9056 65.8308 51.6341 66.1528C50.5576 66.4257 49.6768 67.1844 49.6768 67.8386C49.6768 68.769 50.2726 68.9146 52.4171 68.5079C54.5662 68.1005 55.1573 68.2461 55.1573 69.1835C55.1573 70.6353 53.319 71.6993 49.5837 72.4074L46.7784 72.939L46.2774 68.7192C45.3222 60.6837 45.377 60.5144 49.4811 58.7297C51.5261 57.8404 53.2877 57.0833 53.3957 57.0485C53.5038 57.0129 53.5914 57.7044 53.5914 58.5833ZM70.6193 73.2317C72.6901 74.6969 74.1307 79.5955 73.4707 82.9293C72.3323 88.6816 65.2962 90.9782 61.7119 86.767C58.9537 83.5266 59.0602 76.9896 61.9186 74.1012C64.2924 71.7033 67.944 71.3378 70.6193 73.2317ZM58.3618 84.6737C58.5779 88.6388 58.4464 89.0471 56.8782 89.2781C55.3937 89.4956 55.1573 89.161 55.1573 86.8382C55.1573 85.3581 54.9279 83.9143 54.6476 83.631C53.8749 82.8502 52.0788 85.6223 52.0507 87.6404C52.0319 88.9838 51.566 89.4205 50.1497 89.4205C48.3709 89.4205 48.2449 89.089 47.7109 82.9965C47.2693 77.9555 47.3782 76.4255 48.2167 75.8883C49.9751 74.7625 50.2358 75.0307 50.7933 78.5425L51.3272 81.9048L52.8657 79.927C53.7112 78.8392 54.2734 77.166 54.1137 76.2087C53.8999 74.9255 54.2554 74.4058 55.4689 74.2309C57.2884 73.9683 57.8983 76.1707 58.3618 84.6737ZM64.2917 75.7079C63.23 76.7799 63.7616 83.7616 64.9994 85.0131C66.6905 86.7212 67.4374 86.5803 68.9367 84.2687C70.299 82.1675 70.0219 78.2601 68.3668 76.2443C67.4429 75.1201 65.1693 74.8203 64.2917 75.7079ZM45.3144 78.5425C45.5156 79.5211 45.9031 82.3985 46.1764 84.9348C46.661 89.4315 46.6273 89.5407 44.8478 89.286C43.5653 89.1024 42.9593 88.4363 42.8106 87.0471C42.2007 81.3304 41.7677 80.0077 40.6497 80.4412C39.9741 80.7031 39.646 81.5733 39.8441 82.5804C41.1398 89.161 41.114 89.4205 39.1614 89.4205C37.518 89.4205 37.233 88.9521 36.7586 85.4649C36.4031 82.8518 35.8465 81.5092 35.1191 81.5092C34.5139 81.5092 34.0184 80.8566 34.0184 80.0599C34.0184 78.9721 34.9469 78.4065 37.7372 77.7949C43.8448 76.4571 44.908 76.5624 45.3144 78.5425ZM83.3425 78.7403C83.3425 79.8281 82.9025 80.7221 82.3639 80.7268C81.826 80.7316 80.0331 80.961 78.3796 81.2371C75.547 81.7102 75.3896 81.6303 75.6394 79.8439C75.8547 78.3068 76.4959 77.8582 79.0365 77.4682C80.7589 77.2032 82.4328 76.9366 82.7553 76.8748C83.0779 76.8131 83.3425 77.6525 83.3425 78.7403ZM41.4154 92.7827C41.5814 93.327 41.929 94.7503 42.1889 95.9472C42.4567 97.1853 43.1856 98.1228 43.8801 98.1228C44.8125 98.1228 45.0388 97.425 44.8438 95.1561C44.6254 92.6245 44.8352 92.1538 46.2735 91.9465C48.0757 91.687 48.1212 91.8373 49.3355 101.946C49.8264 106.041 49.7872 106.158 48.0029 105.902C46.6563 105.709 46.0558 105.003 45.7599 103.265C45.229 100.152 42.9147 99.9677 43.2741 103.067C43.4909 104.942 43.2475 105.243 41.5125 105.243C39.7971 105.243 39.4988 104.892 39.4988 102.87C39.4988 101.287 39.1074 100.496 38.3244 100.496C37.6723 100.496 37.1501 99.7929 37.1501 98.9139C37.1501 98.0437 37.518 97.3317 37.9682 97.3317C38.4795 97.3317 38.5938 96.2929 38.2728 94.5628C37.8155 92.0984 37.9432 91.7938 39.4362 91.7938C40.3593 91.7938 41.2494 92.2392 41.4154 92.7827ZM53.9477 95.3919L54.4816 98.9899L56.0334 96.9963C56.8868 95.8998 57.4794 94.3697 57.3495 93.596C57.1929 92.6593 57.6822 92.1079 58.8143 91.9449C60.3473 91.7242 60.5603 92.1506 60.9909 96.2961C61.2531 98.8237 61.6376 102.227 61.845 103.858C62.1911 106.584 62.0658 106.825 60.3027 106.825C58.6499 106.825 58.3501 106.413 58.1402 103.858C57.8419 100.209 56.5869 100.015 55.5824 103.463C55.032 105.352 54.3783 106.034 53.1162 106.034C51.5449 106.034 51.3398 105.483 50.6962 99.5073C49.9078 92.187 49.9736 91.7938 51.9825 91.7938C53.081 91.7938 53.5382 92.6316 53.9477 95.3919ZM66.13 93.5739C66.1535 97.0366 67.32 97.4875 68.6987 94.5667C69.5881 92.6831 70.5402 91.7938 71.6699 91.7938C72.9485 91.7938 73.2005 92.1134 72.7605 93.1783C70.5926 98.4298 70.5582 98.6711 71.7435 100.381C72.8897 102.033 72.9939 101.925 75.1078 96.899C76.9014 92.6348 77.5802 91.7543 78.9222 91.9505C80.0809 92.1198 81.0133 93.3935 82.1384 96.3428C83.4107 99.6766 84.0769 100.496 85.5144 100.496C87.7927 100.496 88.7369 102.771 86.9925 104.06C86.2769 104.589 85.6913 105.605 85.6913 106.319C85.6913 107.032 85.5441 107.616 85.3641 107.616C85.184 107.616 84.5208 107.816 83.8914 108.06C83.121 108.359 82.4727 107.712 81.9106 106.082C81.2005 104.024 80.6775 103.661 78.425 103.661C75.0302 103.661 74.4509 104.298 75.8633 106.477C76.8772 108.04 76.8537 108.368 75.6495 109.469C74.4 110.612 74.0962 110.408 71.6511 106.788C68.6987 102.415 67.6841 101.919 67.6841 104.847C67.6841 106.399 67.2856 106.825 65.8356 106.825C64.1907 106.825 63.9331 106.369 63.4939 102.672C63.2222 100.387 62.9967 97.0058 62.9936 95.1561C62.9873 92.3191 63.2308 91.7938 64.5524 91.7938C65.6508 91.7938 66.1221 92.3255 66.13 93.5739ZM77.5544 98.5833C76.8678 100.391 76.9241 100.496 78.5714 100.496C79.6785 100.496 79.9587 100.087 79.655 98.9139C79.1633 97.0145 78.2073 96.8633 77.5544 98.5833Z" fill="#FAF4F0"></path> </svg> 