<?xml version="1.0" encoding="UTF-8"?> <svg xmlns="http://www.w3.org/2000/svg" width="135" height="134" viewBox="0 0 135 134" fill="none"> <rect x="0.256836" width="134.106" height="133.436" rx="20" fill="#8E8E8E"></rect> <g clip-path="url(#clip0_1_169)"> <path fill-rule="evenodd" clip-rule="evenodd" d="M109.634 52.4603C109.064 52.6936 108.586 53.6916 108.73 54.3536C108.86 54.9521 109.464 55.59 110.081 55.7794C110.608 55.9412 111.744 55.46 112.006 54.964C112.83 53.4012 111.296 51.7816 109.634 52.4603ZM22.4084 56.6981C22.4217 59.0302 22.4711 60.8095 22.5185 60.6523C22.7329 59.9398 23.2472 58.796 23.5681 58.3179C23.7617 58.0297 23.8605 57.7938 23.7878 57.7938C23.7153 57.7938 23.8793 57.6155 24.1527 57.3974C24.4259 57.1794 24.605 56.9281 24.5507 56.8389C24.4964 56.7497 24.5509 56.6148 24.6719 56.539C24.8199 56.4462 24.8436 56.4885 24.744 56.6685C24.6627 56.8159 24.8506 56.679 25.1615 56.3646C25.7602 55.7592 26.6751 55.0726 26.9925 54.9906C27.0971 54.9636 27.9013 54.6846 28.7798 54.3707C29.6582 54.0569 30.6186 53.7983 30.9138 53.796C31.3336 53.7929 31.4249 53.7238 31.3322 53.4793C31.2409 53.2378 31.27 53.2136 31.4598 53.3735C31.609 53.4989 32.6438 53.5788 34.0891 53.5761C35.4 53.5738 36.5727 53.6346 36.695 53.7114C36.8216 53.7907 36.8682 53.7697 36.8028 53.6626C36.7399 53.5591 36.8075 53.4743 36.9535 53.4743C37.0995 53.4743 37.1811 53.5363 37.1351 53.6119C37.089 53.6874 37.4387 53.8082 37.912 53.8802C39.2651 54.086 39.3331 54.1041 41.4888 54.8346C43.5484 55.5326 46.5448 57.026 47.504 57.8329C49.0603 59.1421 50.0221 60.2023 50.5387 61.1784L51.1167 62.2711L51.1336 57.3647L51.1505 52.4581H36.7673H22.3843L22.4084 56.6981ZM57.153 67.1314V81.8047H58.5623H59.9715V75.135V68.4653H61.7565H63.5418V75.135V81.8047H64.9508H66.3602V67.1314V52.4581H64.9508H63.5418V59.4136V66.3691H61.7565H59.9715V59.4136V52.4581H58.5623H57.153V67.1314ZM69.3667 67.1314V81.8047H73.9704H78.5737V80.5661V79.3274H75.3794H72.1851V73.8011V68.2748H75.3794H78.5737V67.6234C78.5737 66.3352 78.6632 66.3691 75.2657 66.3691H72.1851V60.6523V54.9354H75.3794H78.5737V53.6967V52.4581H73.9704H69.3667V67.1314ZM81.5803 67.1314V81.8047H85.2445H88.9087V80.7567V79.7085H86.4658H84.0232V66.0833V52.4581H82.8015H81.5803V67.1314ZM91.1635 67.1314V81.8047H92.5725H93.9819V67.1314V52.4581H92.5725H91.1635V67.1314ZM96.4245 52.5613C96.4245 52.6181 97.2718 55.5183 98.3068 59.006L100.189 65.3475L98.3068 73.4154C97.2718 77.8528 96.4245 81.5557 96.4245 81.6441C96.4245 81.7325 97.0442 81.8047 97.8016 81.8047H99.1788L100.292 76.565C100.903 73.6831 101.45 71.3249 101.506 71.3246C101.561 71.3242 102.145 73.4034 102.802 75.9449C103.459 78.4865 104.073 80.8447 104.166 81.1854L104.334 81.8047H105.735C106.505 81.8047 107.134 81.7832 107.133 81.7571C107.133 81.731 106.22 78.0649 105.104 73.6105L103.077 65.5116L105.1 59.0325C106.213 55.469 107.126 52.5318 107.129 52.5057C107.132 52.4796 106.498 52.4581 105.72 52.4581C104.755 52.4581 104.28 52.5337 104.227 52.6963C104.184 52.8274 103.609 54.6495 102.95 56.7457L101.751 60.557L100.674 57.1269C100.082 55.2403 99.511 53.4179 99.4056 53.0774L99.2141 52.4581H97.8191C97.0522 52.4581 96.4245 52.5046 96.4245 52.5613ZM111.239 52.7632C111.841 53.1906 112.048 53.8454 111.805 54.5512C111.436 55.6248 110.083 55.8806 109.403 55.0049C108.748 54.1596 108.938 53.1893 109.86 52.6782C110.384 52.3872 110.74 52.4091 111.239 52.7632ZM110 53.1559C109.72 53.2708 109.676 54.9354 109.954 54.9354C110.057 54.9354 110.141 54.7639 110.141 54.5543C110.141 54.3326 110.267 54.1731 110.441 54.1731C110.606 54.1731 110.785 54.3446 110.839 54.5543C110.893 54.7639 111.01 54.9354 111.098 54.9354C111.187 54.9354 111.183 54.7319 111.09 54.4832C110.976 54.1794 110.993 53.9563 111.142 53.8034C111.53 53.404 110.635 52.8964 110 53.1559ZM110.893 53.6277C110.893 53.844 110.355 54.0717 110.204 53.9191C110.144 53.8581 110.144 53.6775 110.205 53.5176C110.319 53.2165 110.893 53.3085 110.893 53.6277ZM34.1831 56.3793C34.1239 56.4395 33.7122 56.5309 33.2684 56.5826C32.8246 56.6342 32.0047 56.9035 31.4465 57.1806C30.3773 57.7115 29.0825 59.0407 29.2368 59.4487C29.2869 59.5811 29.2101 59.7562 29.0659 59.838C28.291 60.2778 28.2648 65.0114 29.0325 65.854C29.1518 65.9852 29.2773 66.219 29.3114 66.3737C29.4476 66.9946 30.1783 67.9352 31.2815 68.9099C32.7426 70.2008 33.1549 70.4306 33.4597 70.1238C33.6376 69.9449 33.6622 69.962 33.572 70.2021C33.4832 70.4392 33.7282 70.6259 34.6414 71.017C35.2931 71.2958 35.9952 71.557 36.2019 71.5976C36.4086 71.638 36.8173 71.7651 37.1103 71.8798C37.4032 71.9947 37.7143 72.0439 37.8019 71.9891C37.8895 71.9342 38.0092 71.9685 38.0682 72.0651C38.1272 72.1617 38.6191 72.3017 39.1616 72.3763C39.7041 72.4508 40.317 72.55 40.5237 72.5967C42.1575 72.9661 49.8525 73.1524 50.5945 72.8407L51.108 72.6249L51.1208 69.3541C51.1328 66.2459 51.1185 66.1117 50.8322 66.655C50.6664 66.9694 50.363 67.4132 50.1582 67.6413C49.9532 67.8695 49.841 68.1471 49.9088 68.2586C49.98 68.3752 49.9259 68.4196 49.781 68.3632C49.6428 68.3094 49.3536 68.4318 49.1382 68.6353C48.654 69.0929 47.1634 69.8607 46.1608 70.1688C45.7474 70.2959 45.2823 70.4462 45.1273 70.5028C44.9722 70.5592 44.5536 70.6361 44.197 70.6732C43.8405 70.7104 43.2486 70.7904 42.8817 70.851C41.8614 71.0196 40.108 70.9823 38.5823 70.7595C37.8245 70.649 37.1057 70.6159 36.9851 70.6858C36.8643 70.7559 36.8335 70.7378 36.9163 70.6456C37.0608 70.4851 35.518 69.9914 34.6673 69.9258C34.4435 69.9087 34.2955 69.8589 34.3383 69.8155C34.3812 69.7718 33.9725 69.4822 33.4302 69.1716C32.8877 68.8612 32.0953 68.3211 31.6693 67.9718C31.2436 67.6225 30.8283 67.3976 30.7468 67.4721C30.6652 67.5468 30.6509 67.5146 30.7148 67.4007C30.8747 67.1156 30.3055 66.3326 30.0532 66.4907C29.9314 66.5669 29.903 66.53 29.9829 66.3991C30.0566 66.2782 29.9918 65.9434 29.8388 65.6549C29.2892 64.6177 29.2093 64.2389 29.147 62.3673C29.1278 61.7909 29.2122 60.9457 29.3343 60.4893C29.4564 60.0329 29.5128 59.5441 29.4596 59.4033C29.4051 59.2593 29.4611 59.1809 29.5879 59.2246C29.7118 59.2671 30.0669 58.9679 30.377 58.5597C31.3373 57.2957 33.6816 56.5167 35.9464 56.7091C37.3417 56.8279 39.6717 57.3607 39.9506 57.6248C40.2167 57.8767 40.4714 57.8289 40.3193 57.5556C40.2463 57.4247 40.3715 57.5103 40.5973 57.7462C40.8232 57.9821 41.1316 58.1749 41.2826 58.1749C41.4337 58.1749 41.5571 58.2658 41.5571 58.3767C41.5571 58.4877 41.6417 58.5256 41.745 58.4608C41.8484 58.396 41.9329 58.2681 41.9329 58.1765C41.9329 58.0042 41.1949 57.6896 40.9465 57.7561C40.8691 57.7769 40.8055 57.7149 40.8055 57.6185C40.8055 57.4289 39.0699 56.7914 38.4568 56.7562C38.2501 56.7442 37.9744 56.667 37.8442 56.5847C37.5593 56.4046 34.3364 56.2238 34.1831 56.3793ZM41.9844 58.6037C42.0301 58.7348 42.2037 58.8305 42.3702 58.8164C42.5369 58.8025 42.7237 58.9525 42.7854 59.1499C42.8473 59.3473 43.0188 59.5089 43.1669 59.5089C43.3149 59.5089 43.4362 59.5981 43.4362 59.7071C43.4362 60.0194 44.231 61.0288 44.3958 60.9255C44.4773 60.8744 44.5128 60.996 44.4749 61.1957C44.4371 61.3955 44.513 61.768 44.6438 62.0237C44.9873 62.6951 44.5446 64.3134 43.7738 65.2037C43.4457 65.5827 43.1721 65.8622 43.1658 65.8249C43.1594 65.7875 42.7738 65.8617 42.3088 65.9896C41.7635 66.1395 41.0295 66.1736 40.2418 66.0858C39.5701 66.0109 38.8726 65.94 38.6916 65.928C38.5107 65.9162 38.3628 65.8484 38.3628 65.7773C38.3628 65.7064 38.1627 65.5972 37.918 65.5351C37.6734 65.4727 37.0484 65.1254 36.5292 64.7631C36.0099 64.401 35.52 64.164 35.4406 64.2364C35.3611 64.309 35.3554 64.2634 35.428 64.1354C35.5005 64.0073 35.4142 63.6771 35.2361 63.4015C35.0238 63.0728 34.9274 62.5954 34.9563 62.0144C34.9975 61.1854 34.982 61.1531 34.7147 61.5098C34.3871 61.9466 34.3376 62.7029 34.5921 63.3819C34.8644 64.1079 35.9409 65.2584 36.2395 65.1423C36.3846 65.0857 36.4535 65.1214 36.3927 65.2212C36.2527 65.4507 37.8493 66.2806 38.8371 66.4917C40.8724 66.9267 44.0072 66.3975 43.7302 65.6656C43.6384 65.4226 43.668 65.4068 43.8804 65.5854C44.3885 66.0132 45.61 63.9581 45.224 63.3247C45.1587 63.2174 45.1837 63.1296 45.2798 63.1296C45.5486 63.1296 45.1833 61.4559 44.7654 60.7725C44.3441 60.0838 43.0603 58.7775 43.0603 59.0374C43.0603 59.1339 42.9287 59.022 42.7678 58.7891C42.4594 58.3425 41.8429 58.1967 41.9844 58.6037ZM37.1414 65.4163C37.2053 65.5212 37.1679 65.6069 37.0586 65.6069C36.9492 65.6069 36.8596 65.5212 36.8596 65.4163C36.8596 65.3115 36.8968 65.2258 36.9425 65.2258C36.9881 65.2258 37.0776 65.3115 37.1414 65.4163ZM22.3984 74.0346L22.3911 81.6048L36.3295 81.6117C43.9956 81.6155 50.2315 81.5843 50.1873 81.5419C50.1429 81.4997 48.8806 81.4217 47.3821 81.3687C44.5893 81.27 41.4643 80.8014 38.822 80.0853C36.7134 79.5138 35.9004 79.196 33.7158 78.0892C31.9525 77.1956 31.7661 77.1396 31.4623 77.4113C31.2422 77.6083 31.2095 77.615 31.3647 77.4313C31.5974 77.1561 31.7034 76.6801 31.482 76.9046C31.4179 76.9694 31.2518 76.9195 31.1128 76.7933C30.7283 76.4452 30.4671 76.2432 29.3435 75.4245C28.1045 74.5218 27.4652 73.9557 26.5524 72.9531C26.1756 72.539 25.6771 71.9991 25.4445 71.7535C25.2119 71.5077 25.0217 71.2788 25.0217 71.2451C25.0217 71.1908 23.5499 68.8774 23.188 68.3626C23.1113 68.2536 23.0335 68.0821 23.0149 67.9815C22.9965 67.8807 22.8518 67.4982 22.6936 67.1314C22.4289 66.5178 22.4052 67.0696 22.3984 74.0346ZM30.3071 67.0838C30.5406 67.386 30.5341 67.3926 30.236 67.1558C29.923 66.9067 29.8236 66.7503 29.9782 66.7503C30.0171 66.7503 30.1652 66.9002 30.3071 67.0838Z" fill="#FCF9F9"></path> </g> <defs> <clipPath id="clip0_1_169"> <rect width="89.8511" height="29.5034" fill="white" transform="translate(22.3843 52.3014)"></rect> </clipPath> </defs> </svg> 