<?xml version="1.0" encoding="UTF-8"?> <svg xmlns="http://www.w3.org/2000/svg" width="134" height="134" viewBox="0 0 134 134" fill="none"> <rect width="133.436" height="133.436" rx="20" fill="#8E8E8E"></rect> <path fill-rule="evenodd" clip-rule="evenodd" d="M22.1275 66.7179V109.297H66.7178H111.308V66.7179V24.1392H66.7178H22.1275V66.7179ZM62.6641 60.1858C65.8818 61.0225 67.6655 64.1857 66.9502 67.7867C66.4014 70.5486 64.4539 72.4141 61.6743 72.8402C60.496 73.0208 58.7248 72.7342 57.6217 72.1841C56.8033 71.7763 55.7247 70.7119 55.2779 69.8713C54.5389 68.4811 54.3277 66.4448 54.7468 64.7515C55.3651 62.2534 57.385 60.3938 59.8831 60.0231C60.3971 59.9469 62.1366 60.0486 62.6641 60.1858ZM76.2344 60.062C76.9381 60.1711 78.0151 60.5782 78.6319 60.9683C79.1773 61.3133 79.9702 62.0978 80.3282 62.6466C81.0821 63.8024 81.4328 65.5233 81.2429 67.1351C80.7451 71.3598 77.1267 73.7409 72.9431 72.5969C70.1669 71.8377 68.5384 69.3389 68.7301 66.1327C68.796 65.0311 68.9697 64.3713 69.4406 63.4322C70.1253 62.0672 71.0598 61.1381 72.3481 60.5415C73.4976 60.0092 74.8314 59.8447 76.2344 60.062ZM43.2586 62.532C43.7709 63.8193 44.3208 65.1966 44.4806 65.5926C44.6404 65.9887 44.8693 66.5558 44.9892 66.8529C45.1091 67.15 45.3438 67.7331 45.5105 68.1488C45.8554 69.0078 45.8222 69.023 46.2964 67.7901C46.4756 67.3241 47.0095 65.9707 47.4829 64.7825C47.9563 63.5942 48.5626 62.067 48.8302 61.3886L49.3168 60.1552L50.7196 60.1283C51.5785 60.1119 52.1498 60.1364 52.1932 60.1915C52.2323 60.241 52.3147 61.1727 52.3764 62.262C52.4382 63.3512 52.5699 65.5791 52.6694 67.213C52.7688 68.8468 52.8755 70.6494 52.9066 71.2188C52.9377 71.7882 52.9815 72.3665 53.004 72.5041L53.0448 72.7541L51.7504 72.7291L50.456 72.7041L50.3921 71.7139C50.357 71.1693 50.2364 68.9616 50.1241 66.8079C50.0118 64.6542 49.8921 62.5073 49.858 62.0369L49.7961 61.1817L49.2595 62.532C47.086 68.0019 46.5807 69.2704 46.0682 70.5436C45.7493 71.3358 45.4249 72.1561 45.3474 72.3665C45.2152 72.7247 45.1837 72.7491 44.8523 72.7491C44.417 72.7491 44.5907 73.1189 42.8219 68.4282C41.1296 63.94 40.2506 61.626 40.1038 61.2718C39.9822 60.9783 40.0163 60.5428 39.5776 67.9781C39.471 69.7852 39.3564 71.5979 39.3231 72.0064L39.2625 72.7491H38.9022C38.704 72.7491 38.524 72.7188 38.5021 72.6816C38.4661 72.6203 38.5237 71.5778 38.807 67.168C38.8594 66.351 38.9739 64.4674 39.0612 62.9821C39.1485 61.4968 39.252 60.241 39.2912 60.1915C39.3362 60.1348 39.9105 60.1182 40.8448 60.1465L42.327 60.1915L43.2586 62.532ZM85.5733 60.6575C85.8059 60.9385 86.166 61.3783 86.3734 61.6349C87.0584 62.4823 90.0469 66.1281 90.2074 66.3122C90.2939 66.4115 90.8454 67.0797 91.4329 67.7969L92.501 69.1011L92.5254 64.6238L92.5499 60.1465H92.9738H93.3979L93.3737 66.4253L93.3494 72.7041L92.815 72.7308L92.2807 72.7576L91.7645 72.1457C91.4807 71.8092 91.0635 71.3048 90.8377 71.0251C89.4798 69.3426 87.8775 67.3785 87.7925 67.2919C87.7378 67.2363 87.4386 66.8754 87.1275 66.4899C86.5515 65.776 85.0699 63.9557 84.9318 63.7923C84.8899 63.7428 84.6905 63.4907 84.4886 63.2321C84.2867 62.9735 84.1063 62.7764 84.0877 62.7941C84.0691 62.812 84.0455 65.0489 84.0352 67.7652L84.0166 72.7041L83.6159 72.7317L83.2153 72.7595V66.4529V60.1465H84.1828H85.1503L85.5733 60.6575ZM60.2823 60.6971C58.9959 60.9773 57.8971 62.2814 57.3707 64.1523C57.0684 65.2269 57.0651 67.5988 57.3642 68.7433C57.7626 70.2671 58.5836 71.4662 59.5532 71.9401C59.8364 72.0785 60.2038 72.1616 60.6584 72.1899C61.2651 72.2277 61.399 72.2046 61.8839 71.9782C62.9761 71.4684 63.8009 70.3284 64.2206 68.7487C65.0893 65.4784 64.0269 61.7842 61.9664 60.9105C61.3973 60.6692 60.7733 60.5901 60.2823 60.6971ZM73.9218 60.9146C72.637 61.5086 71.7365 62.959 71.3807 65.0075C71.2613 65.695 71.3201 67.6369 71.4832 68.3939C71.9039 70.3463 72.9612 71.7845 74.224 72.1221C76.0306 72.6051 77.7171 71.2614 78.428 68.7725C78.6138 68.122 78.6419 67.8094 78.641 66.4028C78.6396 64.2946 78.3909 63.321 77.5454 62.115C76.6432 60.8282 75.1669 60.3392 73.9218 60.9146Z" fill="#FAF4F0"></path> </svg> 