<?xml version="1.0" encoding="UTF-8"?> <svg xmlns="http://www.w3.org/2000/svg" width="135" height="134" viewBox="0 0 135 134" fill="none"> <rect x="0.709473" width="134.106" height="133.436" rx="20" fill="#8E8E8E"></rect> <path fill-rule="evenodd" clip-rule="evenodd" d="M101.222 54.0831C98.4686 54.8446 96.4864 56.0069 94.4344 58.0632C92.2099 60.2924 91.2419 62.296 91.2527 64.6484C91.2589 65.9527 91.814 67.8421 92.3185 68.2751C92.8024 68.6906 92.6051 68.9991 91.2948 69.8759C90.1414 70.6478 90.0236 70.7818 90.1989 71.1207C90.4443 71.5954 90.8287 71.6028 91.4564 71.1449C91.7247 70.9493 92.3095 70.6077 92.7561 70.3861L93.5683 69.9831L94.5593 70.7892C96.1083 72.0494 99.102 73.8951 100.645 74.5412C101.417 74.8643 102.235 75.2087 102.462 75.3064C102.844 75.4705 102.876 75.6046 102.876 77.0658C102.876 78.7736 103.061 79.218 103.639 78.8979C103.925 78.7394 103.978 78.4737 103.978 77.1962V75.6822H105.257C107.236 75.6822 108.405 75.1545 109.857 73.605C110.847 72.548 111.153 72.057 111.651 70.7276C112.508 68.4332 112.695 67.3422 112.688 64.6577C112.678 60.9501 111.831 58.2941 109.988 56.1955C107.887 53.803 104.867 53.0753 101.222 54.0831ZM23.5075 66.1783V71.6906H28.3762H33.2448V70.8352V69.9799H29.3866H25.5285V65.323V60.6661H24.518H23.5075V66.1783ZM38.9556 61.0871C38.8654 61.326 38.5268 62.1202 38.2031 62.852C37.8796 63.5838 37.2597 65.0379 36.8257 66.0833C36.392 67.1287 35.698 68.7906 35.2839 69.7763C34.8696 70.7622 34.5309 71.5961 34.5309 71.6296C34.5309 71.6632 34.9817 71.6906 35.5327 71.6906H36.5345L36.9003 70.8352L37.2661 69.9799H40.9356H44.6053L44.9209 70.8352L45.2367 71.6906H46.3117H47.3866L47.0291 70.8827C46.3367 69.3182 44.6841 65.318 44.5588 64.9033C44.489 64.6725 44.0675 63.6461 43.6222 62.6224L42.8121 60.7611L40.9659 60.707C39.1904 60.6549 39.1134 60.6693 38.9556 61.0871ZM49.0449 66.1781V71.7191L52.6734 71.6573C56.1957 71.5974 56.3291 71.5807 57.2321 71.0877C58.2314 70.5421 59.3056 69.4336 59.8064 68.4317C59.9771 68.0903 60.1575 67.2844 60.2073 66.6406C60.3839 64.3654 59.3357 62.5005 57.2452 61.3709L56.1182 60.7617L52.5816 60.6993L49.0449 60.637V66.1781ZM60.9869 60.8069C60.9869 60.8845 61.2621 61.3764 61.5983 61.8999C61.9345 62.4235 62.6372 63.5577 63.1599 64.4201C63.6826 65.2825 64.5235 66.6562 65.0287 67.4724C65.913 68.901 65.9474 69.0076 65.9474 70.3235V71.6906H66.9578H67.9683V70.227C67.9683 68.7645 67.9692 68.7617 69.044 67.0432C70.7778 64.2709 72.0903 62.1441 72.5457 61.3692L72.9703 60.6469L71.813 60.7039L70.6558 60.7611L68.904 63.8499C67.9404 65.5488 67.067 66.9383 66.9632 66.9379C66.8592 66.9375 66.4372 66.3602 66.0252 65.6549C65.6133 64.9497 64.787 63.5387 64.1888 62.5193L63.1011 60.6661H62.044C61.4625 60.6661 60.9869 60.7296 60.9869 60.8069ZM77.2569 61.3789C77.0738 61.771 76.6782 62.6904 76.378 63.4222C75.4932 65.5796 73.8649 69.4264 73.3793 70.5068C73.1314 71.058 72.9288 71.5497 72.9288 71.5997C72.9288 71.6497 73.3846 71.6906 73.9417 71.6906H74.9545L75.3561 70.8352L75.7579 69.9799H79.3754H82.9931L83.3817 70.8352L83.7702 71.6906H84.7824H85.7943L85.5387 71.0728C85.3982 70.733 84.9936 69.7708 84.6396 68.9345C83.5516 66.3633 81.6093 61.5452 81.4789 61.0938C81.3611 60.6864 81.2659 60.6661 79.4726 60.6661H77.5898L77.2569 61.3789ZM42.6315 65.2279C43.2257 66.7438 43.7131 68.0481 43.7144 68.1266C43.7159 68.2051 42.4355 68.2692 40.8693 68.2692C39.303 68.2692 38.0216 68.2405 38.0216 68.2055C38.0216 68.1044 39.3949 64.6716 39.9213 63.4574C40.3714 62.4186 40.4351 62.3555 40.9756 62.4119C41.5331 62.4699 41.5851 62.5583 42.6315 65.2279ZM56.3076 62.8759C56.7087 63.0903 57.3056 63.6283 57.6339 64.0715C58.1704 64.7955 58.231 65.0063 58.2303 66.1456C58.2295 67.5885 57.9071 68.3087 56.9146 69.0839C56.0427 69.7649 55.1 69.9776 52.949 69.9787L51.0659 69.9799V66.1553V62.331L53.3221 62.4085C55.1355 62.4711 55.7214 62.5629 56.3076 62.8759ZM80.9143 64.8478C81.4574 66.1546 81.9586 67.4591 82.0282 67.7465L82.1548 68.2692H79.2871C77.71 68.2692 76.4195 68.2371 76.4195 68.1979C76.4195 68.1205 78.091 64.0052 78.5378 62.9827C78.7732 62.4439 78.8933 62.3616 79.3697 62.4125C79.8948 62.4684 79.9834 62.6079 80.9143 64.8478ZM97.3468 65.0031C97.8849 66.0945 99.7013 67.8147 100.987 68.4509C102.373 69.1363 104.027 69.5988 105.107 69.6026C106.067 69.6062 106.426 69.8069 106.334 70.2878C106.272 70.6092 106.09 70.6431 104.524 70.6242C102.422 70.599 101.305 70.2093 99.2803 68.7938C97.8937 67.8246 96.7056 66.4954 96.0611 65.192C95.7469 64.557 95.7412 64.4627 96.0006 64.1945C96.3936 63.7879 96.8965 64.0899 97.3468 65.0031ZM53.1382 75.4857C52.6181 75.7153 52.392 76.5655 52.7519 76.9379C52.897 77.088 53.5011 77.2925 54.0941 77.3923C55.2687 77.5902 55.5805 77.785 55.419 78.2207C55.2841 78.5843 54.6957 78.671 53.556 78.4948C53.0563 78.4176 52.6071 78.3961 52.5579 78.4471C52.3181 78.6951 53.0106 78.9924 54.0014 79.0665C55.288 79.1627 56.0264 78.8042 56.0264 78.0833C56.0264 77.4397 55.5079 77.0555 54.4414 76.9092C53.2081 76.74 52.9382 76.5716 53.2589 76.1718C53.532 75.8316 54.7561 75.7658 55.2924 76.0629C55.6984 76.2876 56.0001 75.9591 55.6861 75.6343C55.4226 75.3617 53.6525 75.2585 53.1382 75.4857ZM56.7612 77.2028C56.7612 78.7656 56.8103 79.1036 57.0368 79.1036C57.2634 79.1036 57.3124 78.7656 57.3124 77.2028C57.3124 75.64 57.2634 75.302 57.0368 75.302C56.8103 75.302 56.7612 75.64 56.7612 77.2028ZM58.231 77.2028C58.231 78.3433 58.3045 79.1036 58.4147 79.1036C58.5196 79.1036 58.5985 78.5334 58.5985 77.7731C58.5985 77.0413 58.6729 76.4425 58.764 76.4425C58.8551 76.4425 59.4621 77.0555 60.1131 77.8048C61.6841 79.6134 61.9055 79.5423 61.9055 77.2291C61.9055 75.8966 61.8463 75.5094 61.6299 75.4233C61.3196 75.3001 61.315 75.3252 61.3525 76.9652C61.3673 77.6187 61.3012 78.1532 61.2053 78.1532C61.1096 78.1532 60.7388 77.7896 60.3813 77.3454C59.3049 76.0069 58.6301 75.302 58.425 75.302C58.3018 75.302 58.231 75.9947 58.231 77.2028ZM63.6508 75.4817C62.9701 75.77 62.5568 76.4334 62.5568 77.2374C62.5568 77.8597 62.6677 78.1045 63.1528 78.5527C63.8862 79.2309 65.1009 79.3171 65.7892 78.7398C66.2894 78.3203 66.1584 78.023 65.6076 78.3279C64.9999 78.6645 63.8399 78.5796 63.4838 78.1724C63.0128 77.6339 63.0467 76.6434 63.5505 76.2213C64.064 75.7911 64.9903 75.7706 65.5509 76.1768C66.0161 76.5138 66.2352 76.4271 66.0666 75.9726C65.8557 75.4039 64.4901 75.1264 63.6508 75.4817ZM67.0497 77.1952V79.1036H68.6113C69.877 79.1036 70.173 79.0496 70.173 78.8185C70.173 78.5923 69.9077 78.5334 68.8869 78.5334H67.6009V77.9631V77.3929H68.8103C69.6971 77.3929 69.999 77.3294 69.9418 77.1553C69.8913 77.0015 69.4803 76.9166 68.7783 76.9147C67.7329 76.9118 67.6905 76.8924 67.6347 76.392L67.5764 75.8723H68.89C69.859 75.8723 70.1836 75.8099 70.1276 75.6347C70.0771 75.4767 69.5481 75.3786 68.5507 75.342L67.0497 75.2867V77.1952ZM72.9288 75.5524C72.9288 75.7039 73.0941 75.8727 73.2962 75.9274C73.6255 76.0164 73.6637 76.1867 73.6637 77.5651C73.6637 78.4999 73.7385 79.1036 73.854 79.1036C73.976 79.1036 74.0256 78.4374 73.9918 77.2503L73.9393 75.3971L73.434 75.337C73.0884 75.2958 72.9288 75.3638 72.9288 75.5524ZM75.5928 75.5292C75.0921 75.8229 74.9558 76.0669 74.9525 76.6757C74.9481 77.4896 75.6427 77.8529 76.9097 77.6987L77.9402 77.5735L77.6637 78.0059C77.4342 78.3646 77.1946 78.448 76.2602 78.495C74.6159 78.5775 74.8243 79.1036 76.5013 79.1036C77.114 79.1036 77.3995 78.9882 77.7916 78.5828C78.2448 78.1137 78.2867 77.9591 78.2123 77.0306C78.15 76.2538 78.0269 75.9131 77.7135 75.6507C77.2466 75.2595 76.1586 75.1971 75.5928 75.5292ZM79.5658 75.6577C79.2876 75.8789 79.1294 76.2005 79.1294 76.5448C79.1294 77.4138 79.7965 77.8383 80.9666 77.7134C81.6606 77.6392 81.9312 77.6759 81.9312 77.8438C81.9312 78.3188 81.4623 78.5334 80.4247 78.5334C79.8386 78.5334 79.3591 78.6098 79.3591 78.7031C79.3591 78.9548 79.8476 79.1036 80.6743 79.1036C81.7179 79.1036 82.4823 78.2999 82.4823 77.2028C82.4823 75.6429 80.7427 74.7212 79.5658 75.6577ZM83.7023 75.6119C83.3508 75.8088 83.2378 75.9696 83.3609 76.097C83.4842 76.2245 83.6762 76.2152 83.9402 76.069C84.1573 75.9487 84.6416 75.8766 85.0162 75.9088C85.5946 75.9586 85.7058 76.0416 85.7528 76.4592C85.8007 76.8858 85.6479 77.0483 84.6045 77.6795C83.8169 78.1561 83.401 78.528 83.401 78.7558C83.401 79.0639 83.5689 79.1036 84.8707 79.1036C86.0322 79.1036 86.3405 79.0458 86.3405 78.828C86.3405 78.6257 86.0592 78.5372 85.2841 78.4953L84.2277 78.4383L84.9894 78.0169C86.0322 77.4398 86.3405 77.08 86.3405 76.4397C86.3405 75.4079 84.8823 74.9504 83.7023 75.6119ZM77.6409 76.3636C78.0528 77.0141 77.7544 77.2241 76.513 77.1572C75.7991 77.1188 75.5823 77.0321 75.5334 76.766C75.4329 76.2194 75.8555 75.8723 76.6214 75.8723C77.1803 75.8723 77.3953 75.9759 77.6409 76.3636ZM81.6517 76.1804C82.225 76.7736 81.9284 77.1078 80.8288 77.1078C79.791 77.1078 79.5305 76.8651 79.7971 76.1464C79.9394 75.7626 81.2714 75.7871 81.6517 76.1804Z" fill="#FAF4F0"></path> </svg> 