<?xml version="1.0" encoding="UTF-8"?> <svg xmlns="http://www.w3.org/2000/svg" width="134" height="135" viewBox="0 0 134 135" fill="none"> <rect width="133.436" height="134.106" rx="20" fill="#8E8E8E"></rect> <g clip-path="url(#clip0_1_159)"> <path fill-rule="evenodd" clip-rule="evenodd" d="M57.34 9.79374C44.8528 10.8379 32.1077 14.0604 24.021 18.2159L22.1275 19.1875V38.5133C22.1275 58.2645 22.3806 62.2492 24.0595 68.9457C25.7303 75.6116 27.9666 81.2769 28.7355 80.7999C28.9566 80.6614 29.7576 81.7796 30.5153 83.2829C33.3315 88.8805 40.0293 98.4951 44.3129 103.089C45.5576 104.423 46.6678 105.997 46.7799 106.587C47.0442 107.968 48.0935 109.084 53.8189 114.071C59.6981 119.19 66.0177 124.048 66.7947 124.048C67.1151 124.048 69.0887 122.735 71.1648 121.127C92.6149 104.531 104.871 87.714 109.719 68.2287C110.703 64.2746 110.985 61.7706 111.198 55.1225C111.391 49.0318 111.321 46.9903 110.924 47.2368C110.526 47.4833 110.395 44.1109 110.395 34.2805V20.989L104.751 18.2949C100.746 16.3839 99.2534 15.451 99.6091 15.0933C100.527 14.17 93.9926 12.2058 85.7458 10.9281C75.6182 9.35869 66.729 9.00421 57.34 9.79374ZM64.6993 18.4947C65.4827 21.2081 65.2568 22.3457 64.2188 20.9116C63.4626 19.8707 63.0477 19.8707 62.2628 20.9116C61.4041 22.0508 61.4314 21.0727 62.3477 17.9066C62.7546 16.4983 63.28 15.4655 63.5171 15.6121C63.7542 15.7587 64.2844 17.0574 64.6993 18.4931V18.4947ZM69.0246 18.5591C69.164 21.4836 68.4095 22.7904 68.073 20.2075L67.9032 18.9088L67.2625 20.2075C66.3093 22.141 65.9969 21.8043 66.0338 18.8911C66.0674 16.2163 66.6906 15.227 68.1804 15.4864C68.7042 15.575 68.9269 16.3807 69.0294 18.5575L69.0246 18.5591ZM58.4053 16.8608C58.6263 18.3738 59.7301 18.5366 59.7301 17.0542C59.7301 16.2856 59.9896 15.8345 60.4333 15.8345C60.9828 15.8345 61.1382 16.4645 61.1382 18.6703C61.1382 20.8762 60.978 21.5062 60.4333 21.5062C59.9896 21.5062 59.7301 21.055 59.7301 20.2848C59.7301 18.8041 58.6263 18.9668 58.4053 20.4798C58.0849 22.6341 57.38 21.3805 57.38 18.6703C57.38 15.9601 58.0897 14.7049 58.4053 16.8608ZM73.3579 18.2047C73.3579 19.4937 73.5661 20.541 73.8225 20.541C74.0788 20.541 74.287 19.4889 74.287 18.2047C74.287 16.9205 74.4953 15.8667 74.7516 15.8667C75.0079 15.8667 75.2161 16.9188 75.2161 18.2047C75.2161 19.4905 75.4244 20.541 75.6807 20.541C75.937 20.541 76.1453 19.4776 76.1453 18.1773C76.1453 16.7271 76.3231 15.9215 76.6098 16.1003C76.8646 16.2614 77.0744 17.5859 77.0744 19.049V21.7092L74.7516 21.5481L72.4288 21.3869V18.6268C72.4288 17.0977 72.6354 15.8667 72.8933 15.8667C73.1512 15.8667 73.3579 16.9188 73.3579 18.2047ZM54.5622 17.2185C54.5622 17.8051 54.9403 18.1853 55.6195 18.282C57.8126 18.5962 57.0068 21.9783 54.74 21.9783C53.6875 21.9783 53.6186 21.8172 53.6186 19.1424C53.6186 17.5682 53.8285 16.3066 54.0896 16.3066C54.3507 16.3066 54.5622 16.7174 54.5622 17.2185ZM78.9968 17.6053V18.9056L79.7288 17.6053C80.1133 16.8898 80.6339 16.3049 80.8838 16.3049C81.5054 16.3049 81.4606 17.594 80.8246 17.9871C80.3168 18.3094 80.4225 19.5436 81.0937 21.1501C81.6608 22.5084 80.4978 22.1056 79.7288 20.678L79.1569 19.3777V20.678C78.9968 21.3934 78.7789 21.9767 78.5162 21.9767C78.2534 21.9767 78.0468 20.7167 78.0468 19.1408C78.0468 17.565 78.255 16.3049 78.5162 16.3049C78.7773 16.3049 78.9968 16.8915 78.9968 17.6053ZM52.6831 19.6161C52.6831 21.1904 52.4749 22.452 52.2137 22.452C51.9526 22.452 51.7428 21.3757 51.7428 20.0609C51.7428 18.5865 51.5633 17.7809 51.2734 17.9662C51.0155 18.1273 50.804 18.9491 50.804 19.795C50.804 21.3773 49.7115 23.4059 49.1604 22.8564C48.989 22.6856 49.0771 22.1136 49.3559 21.5884C49.6346 21.0631 49.8637 19.911 49.8637 19.028C49.8637 17.1283 50.1248 16.7899 51.5874 16.7899C52.6126 16.7787 52.6831 16.9607 52.6831 19.6161ZM67.2448 17.4892C67.2448 17.8792 67.4563 18.1982 67.7158 18.1982C67.9753 18.1982 68.1852 17.876 68.1852 17.4892C68.1852 17.1025 67.9737 16.7787 67.7158 16.7787C67.4579 16.7787 67.2448 17.0977 67.2448 17.4892ZM84.6196 17.2475C86.2936 18.1499 86.1879 22.9241 84.493 22.9241C82.4297 22.9241 80.9976 19.0812 82.4986 17.5714C83.4197 16.6385 83.4822 16.6385 84.6196 17.2475V17.2475ZM48.4379 18.166C49.5962 20.3444 48.321 23.5799 46.4131 23.306C45.5817 23.1868 45.375 22.7936 45.2549 21.1034C45.0354 18.0161 47.2637 15.9585 48.4379 18.166V18.166ZM89.0506 18.0049C89.6129 18.2224 89.7939 18.9716 89.7939 21.0776C89.7939 22.6196 89.584 23.8635 89.3245 23.8635C89.065 23.8635 88.8552 22.8129 88.8552 21.5271C88.8552 20.2413 88.6437 19.0602 88.3842 18.9007C88.1247 18.7412 87.9148 19.3487 87.9148 20.4685C87.9148 21.4933 87.6168 22.5777 87.2516 22.8854C86.3241 23.6621 85.9252 22.8049 86.5019 21.2742C86.7816 20.5023 86.9437 19.6923 86.9825 18.8717C86.9761 17.7164 87.6072 17.4538 89.0506 18.0113V18.0049ZM44.2344 18.6381C44.2344 18.8814 43.8131 19.2149 43.2957 19.3793C42.0734 19.7692 42.083 20.5604 43.3101 20.5604C43.8355 20.5604 44.3866 20.8826 44.5356 21.2742C44.9217 22.2844 43.4511 24.3356 42.3457 24.3356C41.5239 24.3356 41.4166 24.0133 41.4166 21.5336C41.4166 18.5898 41.3157 18.7251 43.8836 18.2546C44.0742 18.2256 44.2344 18.3964 44.2344 18.6381ZM83.2259 19.8514C83.2259 21.0067 83.4374 21.5062 83.9308 21.5062C84.4242 21.5062 84.634 21.0067 84.634 19.8514C84.634 18.6961 84.4226 18.1982 83.9308 18.1982C83.439 18.1982 83.2179 18.6961 83.2179 19.8514H83.2259ZM46.4195 18.9861C45.7787 19.6306 46.0991 21.9783 46.8104 21.9783C47.3038 21.9783 47.5152 21.4804 47.5152 20.3251C47.5152 18.7605 47.1179 18.2788 46.4195 18.9861ZM71.474 19.1473C71.474 19.4083 71.1696 19.621 70.7964 19.621C70.4231 19.621 69.9954 19.4083 69.8352 19.1473C69.675 18.8862 69.981 18.6752 70.5128 18.6752C71.0447 18.6752 71.4676 18.883 71.4676 19.1424L71.474 19.1473ZM93.2605 21.5642C94.0871 24.5547 93.9253 25.6665 92.8761 24.2212C92.1888 23.2754 91.2052 23.1223 91.2052 23.9634C91.2052 24.342 91.045 24.3727 90.7326 24.0552C90.2104 23.53 91.4311 18.6687 92.0863 18.6687C92.2929 18.6703 92.8184 19.9738 93.2541 21.5658L93.2605 21.5642ZM40.9392 19.5646C40.9392 19.7966 40.6188 20.1092 40.2344 20.259C39.7377 20.4508 39.5295 21.2258 39.5295 22.9096C39.5295 24.218 39.318 25.2879 39.0601 25.2879C38.8022 25.2879 38.5907 24.2164 38.5907 22.908C38.5907 20.7279 38.5155 20.5668 37.7097 21.0018C37.2291 21.2613 36.5883 22.4101 36.3112 23.5525C35.7649 25.7326 34.3616 27.5356 34.3616 26.0548C34.3616 25.6327 34.5763 25.2879 34.8422 25.2879C35.1081 25.2879 35.0232 24.5773 34.6083 23.5751C33.7705 21.5594 33.724 21.0341 34.3824 21.0341C34.6483 21.0341 35.0424 21.5175 35.2587 22.0975C35.6303 23.1094 35.6656 23.0901 35.9684 21.7028C36.2247 20.5297 36.6268 20.1495 38.0285 19.7531C40.3417 19.0989 40.9392 19.0554 40.9392 19.5646ZM54.5558 20.0882C54.5558 20.6087 54.7672 21.0341 55.0252 21.0341C55.2831 21.0341 55.4945 20.6087 55.4945 20.0882C55.4945 19.5678 55.2831 19.1424 55.0252 19.1424C54.7672 19.1424 54.5622 19.5678 54.5622 20.0882H54.5558ZM98.7136 21.0341C99.2294 21.5529 99.6523 22.2345 99.6523 22.5455C99.6523 22.987 99.7789 22.987 100.216 22.5455C101.805 20.9487 104.479 23.0288 104.26 25.6842C104.002 28.7828 101.112 28.1012 99.8061 24.6256C99.5017 23.82 99.239 23.4268 99.2182 23.7523C99.1974 24.0778 98.76 24.342 98.2442 24.342C97.7284 24.342 97.3038 24.6643 97.3038 25.051C97.3038 25.4377 97.0924 25.76 96.8345 25.76C96.5766 25.76 96.3651 24.5 96.3651 22.9241C96.3715 19.7885 96.9883 19.2907 98.72 21.0341H98.7136ZM42.3409 22.4842C42.3409 23.0192 42.5524 23.3269 42.8119 23.1658C43.0714 23.0047 43.2813 22.5664 43.2813 22.199C43.2813 21.8317 43.0698 21.5175 42.8119 21.5175C42.554 21.5175 42.3473 21.9445 42.3473 22.4794L42.3409 22.4842ZM97.3038 22.1926C97.3038 22.5664 97.5153 22.9982 97.7732 23.1594C98.0311 23.3205 98.2442 23.0127 98.2442 22.4778C98.2442 21.9428 98.0327 21.511 97.7732 21.511C97.5137 21.511 97.3103 21.8123 97.3103 22.1878L97.3038 22.1926ZM33.4068 22.8935C34.384 24.7336 32.0003 28.28 30.118 27.7838C27.8961 27.1989 29.4692 22.0282 31.8802 21.9944C32.1886 22.0061 32.4894 22.0943 32.7557 22.2512C33.0221 22.4081 33.2457 22.6287 33.4068 22.8935V22.8935ZM31.5438 24.5789C31.5438 25.2234 31.7552 25.76 32.0131 25.76C32.2711 25.76 32.4825 25.2283 32.4825 24.5789C32.4825 23.9296 32.2711 23.4059 32.0131 23.4059C31.7552 23.4059 31.5438 23.9296 31.5438 24.5789ZM101.16 24.5789C101.169 25.3588 101.275 25.6198 101.394 25.1606C101.512 24.7014 101.506 24.0633 101.376 23.7426C101.246 23.422 101.15 23.799 101.16 24.5789ZM30.2254 25.051C30.235 25.8309 30.3407 26.0935 30.4592 25.6327C30.5778 25.1719 30.5714 24.5354 30.4416 24.2148C30.3119 23.8941 30.2158 24.2711 30.2254 25.051ZM95.4248 24.8432C95.4206 24.9645 95.3689 25.0793 95.281 25.1626C95.1931 25.2459 95.0761 25.2909 94.9554 25.2879C94.6975 25.2879 94.486 24.9559 94.486 24.5515C94.486 24.1471 94.6975 23.9457 94.9554 24.1068C95.0847 24.1856 95.1946 24.2928 95.277 24.4203C95.3594 24.5478 95.4121 24.6923 95.4312 24.8432H95.4248ZM102.473 25.051C102.473 25.6955 102.685 26.2337 102.943 26.2337C103.201 26.2337 103.412 25.702 103.412 25.051C103.412 24.4001 103.201 23.8699 102.943 23.8699C102.685 23.8699 102.478 24.4017 102.478 25.051H102.473ZM75.8169 24.8319C84.9688 25.7632 92.0735 27.534 98.8001 30.56L102.065 32.0263L102.042 38.2297C101.993 51.6115 101.209 65.1076 100.28 68.5413C96.7784 81.5008 88.4723 93.5774 75.7544 104.197C74.074 105.601 72.4608 107.317 72.1676 108.013C71.3042 110.067 69.3274 111.324 66.9629 111.324C64.8163 111.324 63.6901 110.518 61.5835 107.484L60.8034 106.357L60.3228 107.592C59.6019 109.463 58.5318 109.602 56.1337 108.134C51.7908 105.478 50.3411 103.269 52.0199 101.867C52.406 101.545 53.2662 101.384 53.931 101.515C54.8922 101.7 54.1986 100.781 50.4788 96.9595C42.5652 88.8338 38.0461 81.8328 34.9127 72.8482C32.4377 65.7441 32.0596 62.2266 32.0596 46.262V31.9103L35.1786 30.4859C46.0078 25.5457 61.5691 23.3801 75.8217 24.8319H75.8169ZM58.5495 25.7713C51.4176 26.4319 45.5737 27.6549 39.7602 29.706C34.5218 31.5526 33.08 32.2841 32.891 33.1864C32.7933 33.6521 32.8397 40.6273 32.9951 48.6854C33.2611 62.457 33.3508 63.6172 34.4946 67.9451C35.7761 72.8112 37.9692 78.2299 38.65 78.2299C39.2123 78.2299 39.2235 78.2783 37.5991 73.8891C34.7268 66.134 34.2831 62.855 34.0188 47.4318C33.7913 34.1 33.8217 33.3926 34.6596 32.9447C36.9247 31.7266 45.713 28.9858 50.4596 28.019C57.6347 26.5576 74.8333 26.448 81.8066 27.8208C84.2608 28.3042 87.3269 28.7876 88.6181 28.8875L90.9665 29.0776L89.2492 28.4009C83.1122 25.9984 69.0903 24.7964 58.5543 25.7713H58.5495ZM56.1369 29.6383L52.7888 30.0927L52.4492 34.6623C52.2634 37.1759 51.8245 39.7911 51.4752 40.4759C49.7131 43.9111 45.4583 45.4918 42.5764 43.7806L40.8703 42.8138V44.1415C40.9392 45.2694 40.6701 45.5498 39.1226 46.0171C38.1246 46.3119 37.1858 46.5585 37.0256 46.5585C36.8654 46.5585 36.6764 43.8467 36.5947 40.5323L36.5451 34.506L36.4425 41.2299C36.3881 44.9359 36.5146 47.9667 36.7261 47.9667C36.9375 47.9667 38.0973 47.6267 39.302 47.2126C40.936 46.6503 41.4919 46.2185 41.4919 45.5079C41.4919 44.7651 41.6713 44.6426 42.3105 44.952C42.7622 45.1695 44.1832 45.3532 45.4711 45.3564C48.1496 45.3677 50.3651 44.0674 51.8357 41.6376L52.7248 40.1633V41.9889C52.7248 43.7919 52.7456 43.8128 54.2482 43.5341C55.0844 43.373 58.5094 43.1232 61.8559 42.9637C67.0062 42.7188 68.0602 42.5367 68.7106 41.7858C69.4603 40.9174 69.4844 40.9174 69.7199 41.8293C69.9201 42.606 70.3606 42.7639 72.3471 42.7639H74.6715L74.8317 40.7659L74.8397 38.7582L75.8009 40.2777C77.2522 42.556 79.6119 43.8225 82.3945 43.8225C84.4306 43.8225 84.9752 43.6066 86.3593 42.2579L87.9613 40.6934V42.9814C87.9613 45.2066 87.9853 45.2372 89.914 45.7625C90.9874 46.0541 92.176 46.407 92.5557 46.5585C93.0571 46.7518 93.2477 46.4457 93.2477 45.4435C93.2477 44.2269 93.4303 44.0561 94.776 44.0062C99.271 43.8451 99.1253 36.4589 94.5725 33.665C93.7107 33.1364 92.6822 32.7078 92.2849 32.7127C91.8877 32.7175 92.4788 33.1397 93.5969 33.6504C98.422 35.8547 99.0436 42.8541 94.4203 42.8541C92.9786 42.8541 92.7655 43.0072 92.7655 44.0626C92.7655 45.4338 92.7062 45.4515 90.244 44.7619L88.4483 44.2672V32.1487L90.0102 32.4275C91.1956 32.6386 91.3398 32.5983 90.6109 32.2583C88.7174 31.3753 87.9677 31.6428 87.9677 33.2009V34.7703L85.9732 32.6837C82.638 29.1936 78.5947 28.902 76.0412 31.9667L74.8317 33.4071V29.0309L72.4063 29.1743C70.9085 29.2629 69.9345 29.5481 69.8608 29.9203C69.7951 30.2522 69.848 30.3054 69.9794 30.0379C70.1107 29.7705 71.1504 29.5546 72.291 29.5546H74.3511V35.6774C74.3511 41.7101 74.3367 41.8003 73.2874 41.7891C70.7803 41.7746 70.0963 41.2912 70.0499 39.5059L70.0034 37.7963L69.2249 39.551C68.4976 41.188 68.2989 41.3137 66.4327 41.3234H64.419V29.561H66.5416C66.5416 29.561 68.6546 29.5803 68.669 31.0853C68.6802 32.2486 68.7875 32.4404 69.1159 31.8764C69.3546 31.4672 69.4283 30.6696 69.2761 30.104C69.023 29.1276 68.7667 29.0792 64.2476 29.1372C61.6364 29.1678 57.9856 29.3983 56.1417 29.6448L56.1369 29.6383ZM62.91 35.563L62.7786 41.557L60.7938 41.702L58.8074 41.8471V39.7524C58.8074 38.1169 58.6215 37.5498 58.0865 37.5498C57.5514 37.5498 57.3656 38.1347 57.3656 39.9184V42.2112L55.2831 42.3723L53.2005 42.5335V36.5137C53.2005 30.6083 53.2166 30.5165 54.2514 30.5084C54.9607 30.4869 55.6657 30.3903 56.3548 30.22C57.316 29.959 57.4057 30.0927 57.4057 31.8716C57.4057 33.2782 57.5979 33.8051 58.1057 33.8051C58.6135 33.8051 58.8074 33.2863 58.8074 31.9634C58.8074 29.9687 59.1518 29.6673 61.5083 29.611L63.0397 29.5739L62.91 35.563ZM64.8948 35.4293V40.8271H66.4391C66.4391 40.8271 68.1083 40.637 69.2281 38.3989L70.3414 35.9175L70.5016 38.3989V40.8271H73.8657V30.6245L72.3791 30.3344C71.5573 30.1733 70.8396 30.0911 70.7771 30.1572C70.7147 30.2232 70.0627 31.4462 69.3178 32.8593L67.9625 35.4374L67.8199 32.7385C67.6822 30.0943 67.6501 30.0396 66.2853 30.0396H64.8996L64.8948 35.4293ZM55.0556 30.8984L53.5209 31.0466V36.1882C53.5209 39.016 53.7228 41.4555 53.9711 41.6086C54.2194 41.7617 54.9627 41.752 55.6243 41.586C56.6832 41.3186 56.8258 41.0382 56.8258 39.2078C56.8258 37.3081 56.9267 37.1324 58.0064 37.1324C59.0861 37.1324 59.187 37.3016 59.187 39.3093C59.187 41.101 59.3184 41.4362 59.9335 41.2009C60.467 41.0213 61.0244 40.9241 61.5868 40.9125C62.4246 40.9125 62.4919 40.5242 62.4919 35.7145V30.5213H60.8434C59.2415 30.5213 59.1918 30.5729 59.1918 32.3566C59.1918 33.9292 59.0316 34.2241 58.0336 34.4126C56.9747 34.6172 56.8642 34.4722 56.736 32.6966C56.5983 30.8178 56.547 30.7614 55.0604 30.9048L55.0556 30.8984ZM84.0397 31.4236C85.0747 32.0565 85.9308 32.9461 86.526 34.0072C87.1213 35.0683 87.4356 36.2654 87.439 37.4837C87.439 40.0134 86.8655 41.1381 85.1018 42.0565C80.815 44.2866 75.2017 40.8175 75.2434 35.9659C75.2738 32.421 77.1337 30.5278 80.6291 30.4988C81.7057 30.4956 83.1698 30.8951 84.0445 31.4301L84.0397 31.4236ZM77.3211 32.0327C75.6102 33.5135 75.2642 36.7248 76.5874 38.8452C77.9539 41.035 79.6696 41.9889 82.3048 42.0275C85.1114 42.0694 86.4699 40.9222 86.7902 38.2313C87.4278 33.0817 80.988 28.8682 77.3259 32.0392L77.3211 32.0327ZM44.1607 32.4307C43.2556 32.9818 42.445 33.6182 42.3601 33.847C42.1166 34.4915 41.4278 34.3304 41.258 33.5941C41.1282 33.0237 40.9024 33.0204 39.6977 33.5747C38.296 34.2192 38.296 34.2192 39.5808 33.955C40.7342 33.7149 40.8719 33.8212 40.8719 34.9556V36.2253L42.1022 34.7542C43.7218 32.8206 45.5721 31.899 47.8532 31.899C49.3543 31.899 49.9486 32.181 50.9306 33.3491C51.5986 34.1548 52.1465 34.564 52.1465 34.2708C52.1465 33.9775 51.5858 33.2347 50.9017 32.5902C49.303 31.1014 46.4595 31.0369 44.1591 32.4372L44.1607 32.4307ZM45.5721 32.6821C44.3081 33.1977 41.5127 36.388 41.5127 37.3129C41.5127 37.7028 41.2964 38.0219 41.0321 38.0219C40.7678 38.0219 40.5515 37.1711 40.5515 36.1334V34.2498L38.8695 34.7687L37.1858 35.2891V40.5274C37.1858 46.0396 37.2003 46.0719 39.4686 45.4612C40.3817 45.2147 40.5499 44.8392 40.5499 43.0443C40.5499 41.8793 40.7662 40.9254 41.0305 40.9254C41.2948 40.9254 41.5111 41.2477 41.5111 41.6392C41.5111 42.975 43.7538 43.9707 46.1455 43.7C51.2558 43.12 54.04 36.4766 50.5461 33.2009C49.4632 32.1906 47.3358 31.9699 45.5704 32.6885L45.5721 32.6821ZM88.9288 38.4714C88.9288 41.3588 89.089 43.7258 89.2813 43.729C89.758 43.7895 90.2293 43.887 90.691 44.0207C91.5961 44.2656 91.7483 44.1222 91.7483 43.0281C91.7483 41.81 91.8316 41.7633 93.5313 42.0517C95.9486 42.4626 97.1645 41.2058 96.7624 38.7115C96.3202 35.9643 94.273 34.2273 90.675 33.5473L88.9304 33.2251L88.9288 38.4714ZM82.9552 34.846C84.0189 36.3719 83.8907 38.378 82.6892 39.0257C80.4465 40.2309 78.2358 37.4885 79.3892 34.9411C80.0604 33.4619 81.9556 33.4104 82.9552 34.846ZM79.897 35.273C79.0528 36.8617 80.0572 38.6245 81.6912 38.4344C83.2499 38.2523 83.5927 37.0406 82.5403 35.4261C81.6127 34.0017 80.5987 33.9437 79.897 35.2746V35.273ZM48.4299 36.7312C49.0851 37.9075 49.0707 38.1073 48.164 39.327C47.0811 40.7917 45.2565 41.3137 44.6397 40.3357C43.9284 39.2078 44.204 37.1276 45.1956 36.1286C46.4195 34.8992 47.52 35.1038 48.4299 36.7328V36.7312ZM82.2824 36.1673C82.8559 37.2436 82.5483 38.0493 81.5615 38.0493C80.7797 38.0493 79.9675 36.6426 80.2671 35.8031C80.5891 34.8992 81.7201 35.1022 82.2824 36.1689V36.1673ZM45.1539 37.1341C44.4619 38.436 44.7519 40.1391 45.697 40.3196C46.8184 40.5355 47.9846 39.1304 47.9846 37.5498C47.9846 36.3929 47.794 36.1641 46.828 36.1641C46.4895 36.1642 46.157 36.2534 45.8633 36.4227C45.5697 36.592 45.3251 36.8355 45.1539 37.1292V37.1341ZM47.5152 38.0251C47.5152 39.0676 46.3362 40.1439 45.657 39.7218C44.9441 39.2787 45.0562 38.2346 45.9101 37.3757C46.7639 36.5169 47.5152 36.7973 47.5152 38.0203V38.0251ZM93.4704 38.2184C93.5937 39.2996 93.4576 39.5252 92.7655 39.3931C92.2241 39.29 91.8524 38.7341 91.7547 37.8914C91.6329 36.8118 91.7675 36.5862 92.4595 36.7183C93.001 36.8166 93.3743 37.3709 93.4704 38.2136V38.2184ZM92.6502 38.3312C92.6726 38.8823 92.7831 38.9935 92.9337 38.6164C93.0699 38.2748 93.0523 37.8672 92.8969 37.7109C92.7415 37.5546 92.6294 37.8285 92.6502 38.3264V38.3312ZM57.0276 46.5971C57.481 46.8614 57.8462 47.3335 57.843 47.6461C57.843 48.0054 57.6828 47.9683 57.4057 47.5285C57.0693 46.9951 56.9026 47.1385 56.6431 48.173C56.3932 49.1784 56.6976 50.3369 57.883 52.8763C59.147 55.5865 59.4353 56.7547 59.3584 58.8461C58.8554 72.3294 58.8026 72.0377 62.4406 75.9516C64.0105 77.6402 64.3421 78.2267 63.7222 78.2267C63.264 78.2267 62.1795 77.4662 61.308 76.5381L59.7733 74.8527V77.0134C59.7301 78.5345 59.5379 79.1741 59.0813 79.1741C58.7257 79.1741 58.1714 79.4964 57.851 79.8831C57.4169 80.41 57.4089 80.5921 57.819 80.5921C58.1233 80.5921 57.7933 81.0932 57.0869 81.7055L55.8053 82.8173L57.2999 82.5965C59.1854 82.3178 59.2047 82.7174 57.3496 83.6825C56.1129 84.327 55.9271 84.6622 56.044 86.0334C56.1193 86.9131 56.0312 87.7832 55.8486 87.9669C55.6659 88.1506 55.6435 89.0948 55.7957 90.0616C55.9479 91.0284 55.8454 92.9071 55.5618 94.2348C54.9771 96.974 55.6115 100.985 56.877 102.533C57.5643 103.374 57.5546 103.418 56.7553 103.123C55.8708 102.854 54.9681 102.649 54.0544 102.51C52.4012 102.243 52.2169 102.315 52.2169 103.219C52.2169 104.381 52.9763 105.153 56.1225 107.162C57.7004 108.171 58.5254 108.451 58.8762 108.113C59.461 107.525 58.9964 106.589 58.1185 106.589C57.7773 106.589 57.2182 106.216 56.877 105.762C56.3468 105.058 56.3532 105.022 56.9123 105.525C57.2759 105.847 58.0528 106.116 58.6424 106.116C59.6035 106.116 59.6612 106.004 59.1854 104.952C58.7753 104.049 58.8314 103.066 59.4321 100.578C59.8573 98.7349 60.1332 96.8596 60.2571 94.9712V92.5736L58.676 92.7089C57.8366 92.7831 57.5723 92.7234 58.0881 92.5752C59.4385 92.1917 60.2027 91.465 60.2027 90.5659C60.2027 89.5266 62.5784 87.4835 64.0025 87.2999C64.6257 87.2193 65.5147 86.7053 65.9777 86.1575C66.8027 85.1907 66.7787 85.1198 64.9204 83.2136C63.8759 82.1421 63.0205 81.148 63.0205 81.0046C63.0205 80.6178 68.3982 81.5089 70.673 82.2742L72.6514 82.9381L70.7723 82.6787L68.8932 82.4193L71.1248 83.8581C72.3519 84.6509 73.3563 85.3969 73.3563 85.5162C73.3563 85.6354 71.8232 85.0199 69.9505 84.1466C68.0779 83.2732 66.4711 82.6352 66.3814 82.727C65.9264 83.1846 69.3931 86.7375 70.295 86.7375C70.9966 86.7375 71.6358 87.3482 72.3967 88.7468C73.5806 90.9236 75.6343 93.3551 76.2879 93.3551C76.7861 93.3551 79.9323 90.8672 79.9323 90.4725C79.9323 90.3113 80.7973 89.2205 81.8546 88.0362C83.5911 86.0849 83.9051 85.9238 85.1402 86.2783C86.582 86.6924 86.6749 86.6006 86.5147 85.0827C86.3801 83.8082 85.6256 82.9558 84.6324 82.9558C84.1823 82.9558 83.2595 82.5175 82.5803 81.9794C81.0793 80.7919 80.2415 81.1947 80.4978 82.98C80.666 84.1369 80.4609 84.414 78.8958 85.123C76.8694 86.0414 76.6899 86.4813 78.042 87.2177C79.1313 87.8058 79.2883 88.6356 78.3079 88.6356C77.9379 88.6356 77.4973 88.1957 77.3259 87.6576C77.1113 86.9728 76.7829 86.7746 76.2382 87.0018C74.5898 87.6866 73.6574 87.7059 75.1168 87.0243C76.4609 86.3991 76.6211 86.1397 76.3679 84.9893C75.7272 82.089 75.1729 80.7741 74.0852 79.5931C72.9638 78.3733 72.9109 78.3653 70.4503 79.0082C68.2252 79.5882 65.9344 79.6366 67.7062 79.0646C68.0939 78.9405 69.9954 78.354 71.9338 77.761L75.458 76.6831L73.5934 76.0305C71.6999 75.3683 69.4155 73.5072 68.5713 71.9378C68.1612 71.1789 68.2188 71.1322 69.0518 71.5834C69.5709 71.8637 70.2213 72.0925 70.4936 72.0925C71.3715 72.0925 71.0303 70.7278 70.013 70.1799C69.0711 69.674 69.0679 69.6289 69.8945 68.9972C70.7211 68.3656 70.7227 68.3398 69.8448 68.3253C68.9669 68.3108 68.9461 68.3012 69.8352 67.647C70.7243 66.9928 70.7115 66.9267 69.9041 65.2301C69.4459 64.2633 69.1576 63.3851 69.2633 63.2788C69.369 63.1724 69.7118 63.709 70.0242 64.4695C70.665 66.0228 74.271 69.1906 74.2934 68.219C74.2934 67.8822 74.5401 68.0321 74.8237 68.5525C75.1072 69.073 76.5938 70.7213 78.1301 72.215C80.2671 74.2952 81.2523 74.9332 82.3304 74.9332C83.5239 74.9332 83.7161 74.7721 83.5895 73.8698C83.4742 73.0496 83.0833 72.7709 81.8819 72.6565C80.5587 72.5276 80.1982 72.2102 79.4789 70.528C78.4825 68.2077 76.943 66.6722 76.0716 67.1282C75.7336 67.307 75.9354 67.0573 76.5217 66.5739L77.5886 65.6957L75.559 63.6913L73.5405 61.6739L73.7408 63.398C73.8785 64.5952 73.7792 65.0222 73.4108 64.7934C73.1208 64.6129 72.8821 63.8476 72.8821 63.0935C72.8821 62.3394 72.6194 61.5048 72.2958 61.2389C70.2725 59.5696 68.6994 58.424 67.3634 57.6441C65.5292 56.5742 65.4619 55.8878 67.011 54.0364C68.1211 52.7087 68.7218 49.4781 67.7447 50.0856C67.4739 50.2467 67.4675 49.7633 67.7302 48.8127C68.0731 47.5687 68.0506 47.4076 67.5829 47.9861C67.1599 48.5162 66.3205 48.6596 64.379 48.5371C61.976 48.3841 61.6556 48.4823 60.7393 49.6554C59.7125 50.9669 59.336 54.1218 60.2043 54.1218C60.4622 54.1218 60.6624 54.7067 60.6496 55.4222C60.6256 56.6709 60.6016 56.658 60.0088 55.0677C58.6648 51.4519 58.511 50.5706 58.9596 49.0592C59.4882 47.2755 58.7801 46.0783 57.2086 46.1009C56.3003 46.1138 56.2843 46.1605 57.0276 46.5971ZM99.9679 53.885C98.7296 68.4832 96.4788 75.6067 90.023 85.3647C86.8591 90.1454 79.5638 98.1921 75.0656 101.864C73.6318 103.034 72.448 104.383 72.4352 104.861C72.4175 105.549 72.9286 105.301 74.8557 103.68C87.8315 92.7782 95.9214 80.924 99.2054 68.0079C100.338 63.5527 101.144 54.6085 100.647 51.9949C100.317 50.2499 100.264 50.3982 99.9679 53.885ZM62.0786 58.9928C62.0786 59.2328 62.7065 59.336 63.4754 59.2216C64.5968 59.0604 64.7714 59.141 64.3581 59.6421C64.0746 59.9853 64.0377 60.2673 64.278 60.2673C64.9188 60.2673 68.1852 63.3803 68.1852 63.9942C68.1852 65.019 66.9997 64.4969 66.2276 63.1306C65.7983 62.37 64.592 61.197 63.5475 60.5412C61.7966 59.4294 60.648 58.0502 60.6833 57.1076C60.7041 56.5839 62.0786 58.4433 62.0786 58.9928V58.9928ZM63.4722 86.5007C63.4722 86.7617 63.2688 86.6618 63.0173 86.2654C62.7658 85.869 62.5623 85.3437 62.5623 85.0827C62.5623 84.8217 62.7674 84.9296 63.0173 85.3196C63.2672 85.7095 63.4722 86.2461 63.4722 86.5007V86.5007ZM52.2137 97.0417C52.2137 97.2528 52.8545 98.0504 53.6555 98.8141C54.7913 99.9082 55.0236 100.002 54.7592 99.2572C54.1345 97.5251 52.2137 95.8461 52.2137 97.0417ZM63.9208 103.239C62.2596 104.911 62.1266 106.862 63.5491 108.683C64.93 110.456 66.5384 110.991 68.4864 110.343C71.1696 109.452 72.2734 106.616 70.9277 104.072C70.0851 102.48 69.0534 101.888 67.0927 101.872C65.7198 101.876 64.9701 102.198 63.9208 103.245V103.239ZM59.7301 103.722C59.7301 103.964 60.0617 104.496 60.467 104.905C61.268 105.71 62.0786 105.883 62.0786 105.248C62.0786 104.79 60.5183 103.284 60.0441 103.284C59.8711 103.282 59.7301 103.487 59.7301 103.72V103.722Z" fill="#FCF9F9"></path> </g> <defs> <clipPath id="clip0_1_159"> <rect width="89.1806" height="114.661" fill="white" transform="translate(22.1275 9.38745)"></rect> </clipPath> </defs> </svg> 