<?xml version="1.0" encoding="UTF-8"?> <svg xmlns="http://www.w3.org/2000/svg" width="136" height="135" viewBox="0 0 136 135" fill="none"> <rect x="0.927246" width="134.777" height="134.106" rx="20" fill="#8E8E8E"></rect> <g clip-path="url(#clip0_1_107)"> <path d="M71.3116 67.2808C71.6913 67.1679 72.0309 67.0981 72.3464 66.9678C73.9135 66.3217 75.4965 65.7441 77.2106 65.6541C77.5844 65.6276 77.9599 65.6348 78.3324 65.6756C78.8512 65.7427 78.9341 66.1511 78.6078 66.4197C78.2428 66.7206 77.696 67.047 77.2775 66.9906C75.07 66.6965 73.2396 67.6367 71.4239 68.6415C71.2962 68.731 71.1901 68.8483 71.1135 68.9845C71.0369 69.1207 70.9917 69.2725 70.9813 69.4286C71.0067 71.2138 71.0909 72.9977 71.1605 74.7828C71.1765 75.1858 71.1872 75.5888 71.2287 75.9918C71.3116 76.7722 71.817 77.1658 72.5657 76.9764C73.0142 76.8443 73.4487 76.6679 73.8626 76.4498C75.5567 75.6439 77.3323 75.1979 79.2109 75.2409C79.4783 75.2409 79.7336 75.5001 79.9944 75.6439C79.7737 75.8588 79.5866 76.153 79.3258 76.2645C79.0344 76.388 78.672 76.3625 78.3404 76.3665C76.2787 76.3894 74.4697 77.2988 72.6125 78.0214C71.6378 78.4002 70.8088 78.1235 70.0641 77.5379C69.8328 77.3552 69.6723 76.9347 69.6723 76.6231C69.6723 74.6364 69.7285 72.6498 69.7659 70.6617C69.7659 70.5274 69.7659 70.3931 69.7659 70.2588C69.7659 68.6469 69.6322 68.5219 68.0451 68.7449C67.8722 68.7861 67.6936 68.797 67.517 68.7772C67.2573 68.7016 67.0031 68.6083 66.7562 68.4978C66.9675 68.2694 67.14 67.9228 67.3967 67.8382C67.874 67.6824 68.3995 67.673 68.9049 67.6139C69.7659 67.5132 70.2419 66.5594 69.6937 65.8757C69.3715 65.4728 69.4597 65.1437 69.4878 64.7152C69.5359 64.0832 69.4785 63.4476 69.318 62.8346C69.1709 62.3175 68.9878 61.8809 69.3541 61.392C69.6055 61.0575 69.4063 60.8318 69.0733 60.7633C68.7451 60.7155 68.4142 60.6885 68.0826 60.6827C67.8152 60.6612 67.5478 60.6344 67.2603 60.6088C67.4582 59.772 67.8098 59.5342 68.8139 59.4469C69.9317 59.3489 71.0602 59.3126 72.1633 59.1232C74.3172 58.7659 76.4632 58.9593 78.6172 59.0466C79.5531 59.0856 80.5051 58.9351 81.4504 58.8948C82.028 58.8707 82.607 58.876 83.1886 58.8948C83.7702 58.9136 83.9427 59.2589 83.9199 60.1857C83.9052 60.7633 83.5469 60.8923 83.0736 60.8896C82.9635 60.8778 82.8544 60.8576 82.7474 60.8291C81.6135 60.6518 80.4824 60.3724 79.3419 60.3187C77.0716 60.2233 74.8053 60.2045 72.5416 60.2233C71.1297 60.2327 70.7941 60.6021 70.8369 62.0031C70.8663 62.9568 71.0187 63.9079 71.1043 64.8616C71.1765 65.6098 71.234 66.3633 71.3116 67.2808Z" fill="#FAF4F0"></path> <path d="M44.1641 73.4611C44.7885 74.8406 44.6347 76.1691 44.4315 77.4908C44.4021 77.6829 44.2042 77.8777 44.0371 78.0147C42.8458 78.9953 41.5956 79.8429 39.9363 79.3405C39.0699 79.0718 38.2169 78.771 37.3639 78.4647C37.2026 78.3883 37.0577 78.2811 36.9373 78.149C36.1431 77.3928 36.2033 77.5002 35.2593 78.008C34.0038 78.6904 32.6815 79.3056 31.3084 79.7005C30.581 79.9114 29.6624 79.73 28.9017 79.4936C27.4135 79.0289 26.0083 78.3492 24.817 77.2907C23.4064 76.0374 22.7459 74.5491 23.1884 72.6336C23.5187 71.2219 23.7233 69.7752 24.5362 68.5273C25.2114 67.4943 26.2276 66.9154 27.2945 66.3848C30.0502 65.0214 32.8018 63.6594 35.5348 62.2624C36.7381 61.6445 37.5002 61.7681 38.273 62.895C38.7263 63.5559 39.094 64.2759 39.5406 64.9408C40.3655 66.1672 41.2587 67.3479 42.0475 68.5972C42.4794 69.2795 42.7562 70.06 43.1025 70.7961L42.9621 70.8955C42.795 70.6832 42.6265 70.4723 42.462 70.2588C41.3389 68.796 40.2037 67.3426 39.0993 65.865C38.5003 65.059 37.9669 64.2168 37.3839 63.4041C37.051 62.9407 36.6632 62.7661 36.0696 63.0724C33.3875 64.4599 30.6866 65.8153 27.9871 67.1693C26.0297 68.1485 24.5776 69.5603 24.2848 71.8317C24.1443 72.8935 24.1353 73.9687 24.2581 75.0327C24.3196 75.5404 24.7501 76.0965 25.1646 76.4498C25.9544 77.0991 26.792 77.6874 27.6702 78.2095C28.9244 78.9832 30.2882 78.8945 31.6814 78.6366C33.113 78.3892 34.421 77.6677 35.3971 76.5868C36.2875 75.621 37.4762 75.9985 37.8853 77.2477C38.019 77.6359 38.3065 78.1208 38.6474 78.2619C40.8081 79.1578 43.4421 78.0241 43.8619 75.7607C43.9729 75.1724 43.9716 74.5625 44.0317 73.9635C44.0645 73.7932 44.1087 73.6253 44.1641 73.4611V73.4611Z" fill="#FAF4F0"></path> <path d="M86.8387 77.1282C86.5713 77.9006 86.0806 78.2028 85.3854 78.1195C84.9597 78.0657 84.5502 77.9219 84.1837 77.6978C83.8173 77.4736 83.5022 77.174 83.2592 76.8188C83.0163 76.4635 82.8509 76.0606 82.7739 75.6366C82.697 75.2125 82.7103 74.7769 82.8129 74.3584C83.1338 73.038 83.5643 71.7337 83.7689 70.3958C83.9494 69.2137 83.8317 67.9887 83.948 66.7932C84.0129 66.0703 84.1935 65.3627 84.4829 64.6977C84.999 63.556 85.6167 62.4585 85.5338 61.1515C85.5017 60.6639 85.356 60.1857 85.3092 59.6995C85.2664 59.2508 85.13 58.5483 85.7103 58.555C86.2103 58.555 86.7117 59.0695 87.1891 59.3905C87.2211 59.412 87.0553 59.7196 86.9938 59.8996C86.8949 60.2045 86.6689 60.5551 86.7438 60.8157C87.0366 61.8299 86.705 62.6963 86.2986 63.5855C85.9483 64.3525 85.5779 65.1249 85.3453 65.9322C85.0257 67.043 85.4175 67.579 86.5379 67.7147C87.5969 67.849 88.6585 67.9376 89.7188 68.0478C90.152 68.0921 90.4595 67.9954 90.4929 67.4702C90.5052 67.2198 90.5797 66.9764 90.7095 66.7623C92.0332 64.7179 92.7458 62.292 94.6083 60.5833C95.3718 59.8822 95.9454 58.9808 97.007 58.6262C97.5418 58.4503 97.8614 58.5268 98.0887 59.0198C98.4524 59.8096 98.8094 60.6021 99.1704 61.392C99.3736 61.8379 99.1958 62.159 98.8562 62.4451C98.4925 62.7513 98.1983 62.6842 97.9978 62.2785C97.7304 61.7412 97.5031 61.1797 97.2477 60.6344C96.9268 59.9507 96.6941 59.8768 96.1928 60.449C95.3847 61.3379 94.6369 62.2803 93.9545 63.2698C93.2673 64.3082 92.7004 65.4311 92.1375 66.5447C91.9139 67.0053 91.7663 67.4993 91.7003 68.0075C91.5666 68.9572 91.2015 69.3816 90.2362 69.34C89.196 69.2943 88.1624 69.1345 87.1249 69.023C87.0594 69.0149 86.9912 68.9975 86.9283 68.9881C85.4669 68.7852 85.3854 68.839 85.0565 70.2897C84.7489 71.641 84.4254 72.9843 84.158 74.3356C83.8799 75.789 84.531 76.658 85.9697 76.8877C86.2639 76.9501 86.5542 77.0304 86.8387 77.1282V77.1282Z" fill="#FAF4F0"></path> <path d="M60.1539 70.4401C59.6672 70.3958 59.1819 70.3434 58.6952 70.3058C58.044 70.2588 57.8288 70.4401 57.8715 71.1037C57.9919 72.9453 58.3609 74.7304 59.2206 76.38C59.4519 76.8246 59.5776 77.2074 59.0067 77.4841C58.4719 77.7461 58.1644 77.4505 57.9304 77.0247C57.1001 75.5136 56.727 73.8694 56.5572 72.1675C56.5265 71.8572 56.4917 71.5456 56.4864 71.2272C56.473 70.4898 56.3714 69.8625 55.4501 69.7053C55.2696 69.6744 55.0143 69.1559 55.0704 68.9303C55.1266 68.7046 55.5558 68.444 55.7938 68.4682C56.362 68.5246 56.5198 68.26 56.4155 67.8221C55.9021 65.6554 55.3606 63.4968 54.811 61.3396C54.692 60.8748 54.3685 60.6424 53.8604 60.7029C53.6407 60.7418 53.4152 60.7317 53.1999 60.6733C52.9713 60.5927 52.5929 60.3872 52.6062 60.2703C52.6397 60.0017 52.8135 59.6054 53.0194 59.5409C53.5217 59.3817 54.0484 59.3144 54.5744 59.3421C55.9609 59.4241 57.1776 60.0393 58.3689 60.7002C59.5602 61.361 60.7596 62.0931 61.9937 62.7124C63.4938 63.4659 63.9832 64.9113 64.3857 66.3244C65.0355 68.6079 63.7238 70.1325 61.0898 70.3797C60.781 70.4079 60.4668 70.3797 60.1539 70.3797V70.4401ZM56.2337 61.1717L56.0184 61.2899C56.12 61.7291 56.1976 62.1777 56.3299 62.6076C56.8647 64.3216 57.7378 65.9657 57.5894 67.8248C57.5306 68.5622 57.8435 68.8994 58.4933 68.9195C59.7902 68.9634 61.088 68.9728 62.3868 68.9477C62.9136 68.9357 63.2331 68.6052 63.2358 68.029C63.2425 66.3835 62.6782 64.9798 61.3118 64.0489C60.0095 63.1624 58.623 62.4021 57.2605 61.6055C56.9282 61.4382 56.5851 61.2933 56.2337 61.1717V61.1717Z" fill="#FAF4F0"></path> <path d="M101.248 65.6971C101.363 64.8173 101.418 63.6473 101.687 62.5284C102.288 60.0152 104.536 59.3046 106.695 59.7868C107.282 59.9211 107.826 60.136 108.444 59.8647C108.606 59.7935 108.967 59.9681 109.113 60.1334C109.216 60.2542 109.184 60.5981 109.085 60.7647C108.901 61.0439 108.675 61.2931 108.416 61.5035C107.538 62.2758 107.213 62.2315 106.644 61.2227C106.364 60.723 105.976 60.5511 105.432 60.6089C104.311 60.7298 103.339 61.5277 103.067 62.8467C102.821 64.0208 102.709 65.219 102.732 66.4184C102.782 68.5112 103.079 70.6013 103.095 72.6941C103.104 73.9796 104.358 75.836 105.872 76.1705C107.115 76.4458 109.139 75.3967 109.657 74.0642C110.071 72.9963 110.192 71.8183 110.519 70.7061C110.771 69.9265 111.072 69.1637 111.42 68.4226C111.605 68.0089 111.955 67.8718 112.34 68.1862C112.701 68.475 113.159 68.7624 112.741 69.3279C111.939 70.4025 111.661 71.6182 111.538 72.9547C111.37 74.7681 110.214 75.9824 108.649 76.7897C105.636 78.3438 103.232 76.5654 102.252 73.9124C101.866 72.8661 101.744 71.7041 101.617 70.5812C101.439 69.0539 101.378 67.5132 101.248 65.6971Z" fill="#FAF4F0"></path> <path d="M40.7038 54.8879C42.8551 54.8745 44.1574 56.4542 43.898 58.5335C43.6908 60.1992 42.7736 61.2738 41.3429 61.9226C40.8402 62.1496 40.1917 62.1146 39.6141 62.0905C39.1595 62.0717 38.9229 61.7224 38.7865 61.259C38.5057 60.3066 38.023 59.3959 37.8719 58.4288C37.7569 57.6967 37.896 56.8545 38.1567 56.1452C38.483 55.2654 39.4216 55.1217 40.2358 54.9121C40.3905 54.8869 40.5474 54.8788 40.7038 54.8879V54.8879ZM42.8712 57.9304C42.8712 57.8794 42.8551 57.6618 42.8377 57.4347C42.7482 56.2782 42.2347 55.7463 41.0875 55.6442C40.7761 55.617 40.463 55.617 40.1516 55.6442C39.4176 55.7073 39.0726 56.0687 38.856 56.7739C38.3399 58.4543 39.0713 59.8217 39.9163 61.1502C40.0299 61.3275 40.4685 61.4766 40.657 61.3987C41.8751 60.895 43.053 59.6538 42.8738 57.9304H42.8712Z" fill="#FAF4F0"></path> <path d="M36.1124 56.9552C36.0495 58.0742 35.73 59.0145 35.0721 59.8661C34.7753 60.2476 34.6082 60.7378 34.2833 61.0871C34.0413 61.3477 33.6428 61.6042 33.3099 61.611C31.9368 61.6351 30.3804 60.0891 30.1705 58.7257C30.0676 58.054 29.8496 57.4308 29.9807 56.7108C30.3738 54.5616 31.8084 54.0122 33.8755 54.4595C34.4892 54.5938 35.1203 55.0048 35.5602 55.4669C35.8904 55.8175 35.9386 56.4488 36.1124 56.9552ZM35.1056 57.2239C35.1296 55.8806 35.0013 55.4683 34.2713 55.2332C33.6612 55.037 33.0196 54.9595 32.3807 55.0048C32.025 55.0344 31.5905 55.3527 31.3779 55.6684C30.4272 57.0761 30.6906 59.0467 31.9127 60.1925C32.9155 61.1328 33.0532 61.118 33.8327 60.034C33.8973 59.9431 33.9689 59.8573 34.0466 59.7774C34.7994 59.0306 35.2112 58.1507 35.1056 57.2239Z" fill="#FAF4F0"></path> <path d="M91.0464 70.7142C91.5358 70.2722 91.9343 70.1366 92.4998 70.4146C92.8515 70.5879 93.3221 70.5489 93.7393 70.5489C95.0843 70.5489 95.7716 70.9519 96.2529 72.2105C96.5203 72.9131 96.654 73.668 96.868 74.3933C97.1421 75.3094 97.4175 76.2242 97.733 77.1268C97.9389 77.7125 97.7023 78.4486 97.1608 78.7387C96.769 78.9456 96.5297 78.7186 96.4468 78.4056C96.2436 77.644 96.1032 76.8649 95.9401 76.0912C95.7689 75.2852 95.5964 74.4793 95.432 73.6733C95.1793 72.4362 94.7153 72.1031 93.4946 71.9795C92.8261 71.9123 92.1803 71.6195 91.5559 71.3522C91.3366 71.2515 91.2136 70.9304 91.0464 70.7142Z" fill="#FAF4F0"></path> <path d="M25.6687 64.3498C25.7476 64.3713 25.8291 64.3874 25.9053 64.4156C26.8587 64.7635 26.9522 64.7206 27.3761 63.8045C27.4986 63.5171 27.6477 63.2419 27.8213 62.9824C28.6035 61.8876 28.4805 60.6989 28.1556 59.5141C27.935 58.7082 26.9215 58.3146 25.7222 58.461C24.8584 58.5644 24.3758 58.9983 24.3263 59.8862C24.2808 60.7002 24.361 61.5209 24.3971 62.3376C24.4065 62.5714 24.452 62.8037 24.48 63.0375L24.2728 63.1087C23.9185 62.3027 23.3903 61.5411 23.2419 60.7042C22.8368 58.4408 24.9266 57.4697 26.5565 57.7813C27.1856 57.9107 27.7817 58.168 28.308 58.5376C28.6883 58.8295 28.9638 59.2378 29.0929 59.7008C29.4432 60.9863 29.4231 62.2611 28.6089 63.4189C28.4832 63.6282 28.3877 63.8543 28.3254 64.0906C27.9684 65.1934 26.9242 65.5158 25.9361 64.8495C25.781 64.7604 25.6191 64.6836 25.4521 64.6198L25.6687 64.3498Z" fill="#FAF4F0"></path> <path d="M48.3825 65.9899C47.7741 66.6226 47.139 67.2324 46.5654 67.8947C45.703 68.8927 44.7979 68.3715 43.9208 67.99C43.6854 67.8866 43.4662 67.5642 43.3953 67.3009C43.2536 66.7636 43.2308 66.2062 43.1346 65.6608C42.8912 64.2746 43.3137 63.059 44.0638 61.9266C44.1434 61.82 44.2445 61.7317 44.3606 61.6673C45.7231 60.8386 47.6779 61.0709 48.8077 62.1939C48.8558 62.2409 48.9227 62.2839 48.9414 62.3417C49.0403 62.6788 49.277 63.2645 49.1927 63.3169C48.7395 63.5949 48.5042 63.2013 48.2795 62.8521C47.7073 61.9615 46.7673 61.8648 45.8621 61.8581C45.0452 61.8514 44.6882 62.5176 44.358 63.1892C43.6894 64.5513 44.1093 65.8596 44.5157 67.1518C44.6748 67.6583 45.2016 67.6247 45.5974 67.4017C46.2659 67.0216 46.9091 66.5769 47.5615 66.1605L48.1819 65.7575L48.3825 65.9899Z" fill="#FAF4F0"></path> </g> <defs> <clipPath id="clip0_1_107"> <rect width="89.8511" height="25.4802" fill="white" transform="translate(23.0547 54.313)"></rect> </clipPath> </defs> </svg> 