<?xml version="1.0" encoding="UTF-8"?> <svg xmlns="http://www.w3.org/2000/svg" width="135" height="134" viewBox="0 0 135 134" fill="none"> <rect x="0.184082" width="134.106" height="133.436" rx="20" fill="#8E8E8E"></rect> <path fill-rule="evenodd" clip-rule="evenodd" d="M22.3116 66.7179V111.979H66.9019H111.492V66.7179V21.457H66.9019H22.3116V66.7179ZM55.8695 53.1403C56.5279 53.3904 57.0285 53.8536 57.3535 54.5136L57.6271 55.0694V59.4421V63.8147L63.1786 63.8405L68.7301 63.8664L69.1848 64.0754C69.7179 64.3203 70.2801 64.8773 70.5731 65.4506L70.7812 65.8579L70.8053 72.0465L70.8295 78.235L70.6179 78.7039C70.1553 79.7299 69.3579 80.2969 68.2794 80.3672C67.4332 80.4223 66.8708 80.2318 66.2753 79.6884C66.026 79.4609 65.7137 79.0666 65.5816 78.8123L65.3412 78.3499L65.3157 73.937L65.2902 69.524H61.4572H57.6242L57.6289 73.7795C57.6317 76.3793 57.5984 78.167 57.5434 78.3748C57.214 79.6162 56.0257 80.45 54.6989 80.3706C53.9361 80.325 53.3707 80.0402 52.8125 79.4202C52.0403 78.5625 52.0859 79.4143 52.116 66.401L52.1425 54.9953L52.3801 54.5427C53.0747 53.2191 54.5333 52.6329 55.8695 53.1403ZM79.776 53.1426C80.4234 53.3885 81.0149 53.934 81.3218 54.5686L81.5721 55.0858L81.5957 66.5524L81.6194 78.019L81.4266 78.542C81.1694 79.2396 80.6031 79.8429 79.9081 80.1595C79.4261 80.379 79.2817 80.4036 78.6833 80.3675C77.6158 80.3033 76.8298 79.7837 76.3618 78.8328L76.0875 78.2758L76.0861 68.5364C76.0853 63.1799 76.0536 58.7474 76.0155 58.6867C75.9625 58.6019 74.6054 58.5702 70.1979 58.5509L64.4494 58.5257L63.9751 58.259C62.6705 57.5254 62.1401 55.9652 62.7424 54.6332C63.0114 54.0385 63.3068 53.681 63.77 53.3901C64.4577 52.9581 64.291 52.9667 72.0041 52.9626C79.1177 52.9587 79.3028 52.9629 79.776 53.1426Z" fill="#FAF4F0"></path> </svg> 