<?xml version="1.0" encoding="UTF-8"?> <svg xmlns="http://www.w3.org/2000/svg" width="135" height="135" viewBox="0 0 135 135" fill="none"> <rect x="0.256836" width="134.106" height="134.106" rx="20" fill="#8E8E8E"></rect> <path fill-rule="evenodd" clip-rule="evenodd" d="M66.1668 30.3067C60.5744 30.8816 56.4667 32.048 52.0873 34.3048C47.8851 36.4701 43.9404 39.6067 41.0125 43.1108C32.9426 52.7695 30.2492 65.1346 33.578 77.2438L34.1355 79.2719L33.5844 80.5326C32.4816 83.0555 31.7239 85.7515 31.7239 87.1525C31.7239 88.2913 31.8054 88.584 32.2491 89.0385C33.6075 90.4309 36.8328 89.2696 43.6445 84.9347C45.3461 83.8521 46.7782 83.0073 46.8274 83.0575C46.8764 83.1077 46.7607 83.8558 46.5703 84.7199C46.3773 85.5958 46.2834 86.6142 46.3578 87.0218C46.5279 87.9499 47.2837 88.6822 48.2355 88.8405C50.1036 89.1512 54.7548 87.0906 59.2673 83.9532C60.7494 82.9225 62.0899 82.029 62.2461 81.9676C62.7794 81.758 62.5304 82.5081 61.0408 85.5973C59.1229 89.5756 58.3641 91.8113 57.8177 95.0933C57.1977 98.8162 57.1736 101.005 57.7435 101.795C58.344 102.626 58.8968 102.864 61.1591 103.265C77.6386 106.188 92.6284 99.3797 100.725 85.2943C103.668 80.175 105.53 73.0936 105.53 67.0241C105.53 64.7351 104.953 60.2959 104.344 57.9094C101.763 47.7846 94.8368 39.0525 85.6373 34.3245C79.631 31.2375 72.1432 29.6924 66.1668 30.3067ZM75.7937 32.7727C88.1835 35.4442 98.1127 44.3603 101.953 56.2632C103.179 60.0609 103.498 62.3343 103.494 67.2131C103.489 71.9875 103.221 73.9266 102.058 77.5929C101.383 79.7214 101.36 79.7578 100.367 80.2735C99.8135 80.5609 98.0411 81.5929 96.428 82.5668C92.5315 84.9194 90.7841 85.8036 89.4553 86.0957C88.1084 86.3919 87.0242 86.1172 86.2635 85.2873C85.746 84.7227 85.7451 84.715 86.1694 84.3934C86.4047 84.2149 87.1682 83.7558 87.8658 83.3728C89.3937 82.5346 91.8698 80.0917 93.0227 78.2853C95.4722 74.4471 95.9877 70.467 94.1608 69.4988C92.4542 68.5944 89.2662 69.8329 85.7672 72.7595C81.0658 76.692 78.1102 81.7135 78.4221 85.2386C78.5677 86.8856 79.2294 87.8008 80.8729 88.6278C81.978 89.184 82.3697 89.2557 84.6825 89.3239C87.0296 89.3934 87.4127 89.3472 88.9612 88.8093C90.9888 88.1051 95.4236 86.1728 97.4917 85.0924C98.3065 84.6668 99.0136 84.3596 99.0626 84.4101C99.2224 84.5736 96.9049 87.9547 95.3684 89.7997C90.5716 95.5601 83.5173 99.7838 75.9064 101.452C73.744 101.926 66.3337 102.235 64.6894 101.921L63.7468 101.74L65.3312 100.507C69.9196 96.9352 75.3541 91.0376 76.6154 88.2612C77.3458 86.6537 77.3898 84.4 76.7164 83.1088C75.8023 81.3559 73.8172 79.904 71.3011 79.1476C69.7681 78.6867 69.73 78.6598 70.4454 78.5414C70.8572 78.4734 72.2172 78.3695 73.4676 78.3105C75.1936 78.2292 75.9785 78.0888 76.7275 77.7279C78.8249 76.7176 79.6552 74.7871 78.3209 74.0233C77.7225 73.6808 77.9065 73.6643 72.3173 74.5622C71.9053 74.6284 71.729 74.5622 71.729 74.341C71.729 73.3502 78.741 63.404 80.4685 61.9447C81.6265 60.9662 82.5939 61.0392 83.8198 62.1971C85.0599 63.3687 86.2263 63.5637 87.3428 62.786C89.124 61.5457 89.0846 59.2501 87.2463 57.1646C86.0986 55.8627 84.8413 55.3106 83.0494 55.3222C81.7885 55.3301 81.3397 55.4514 79.9157 56.167C77.236 57.5143 73.4907 61.602 71.1007 65.788C69.4446 68.6884 67.4221 72.3337 66.8171 73.5087C65.9907 75.1129 65.463 75.521 63.9806 75.7008C63.1322 75.8038 62.6951 76.0081 62.0535 76.6023C60.4148 78.1198 60.5229 78.8275 62.3956 78.8417L63.4927 78.8499L62.6369 79.6164C58.9802 82.8915 54.3084 84.9738 53.3294 83.7648C52.5984 82.8619 53.8091 79.7052 56.5174 75.4515C57.3562 74.134 58.1568 72.6659 58.2963 72.1888C58.5294 71.3909 58.5115 71.2896 58.0712 70.9244C57.5176 70.4648 57.1248 70.5652 54.3747 71.8682C52.4502 72.7799 51.7592 73.4995 50.9721 75.4113C49.9598 77.8709 49.1954 78.8909 47.4974 80.0481C43.9479 82.4671 39.8772 84.3147 38.0969 84.3147C37.5473 84.3147 37.5 84.248 37.5 83.4721C37.5 81.6043 39.2326 77.913 43.6437 70.3835C45.9066 66.5203 48.6687 61.4001 50.9124 56.9083C51.3039 56.1245 51.6856 55.1512 51.7604 54.7456C51.8894 54.0475 51.8691 54.0161 51.3837 54.1622C50.85 54.3229 47.4059 55.7539 44.9711 56.8267L43.5643 57.4468L43.3316 59.3358C43.074 61.4273 42.23 63.3534 38.679 69.9537C37.7058 71.7626 36.5318 73.9531 36.0699 74.8218L35.23 76.4008L34.9728 75.4153C34.4812 73.5315 34.0771 69.752 34.0771 67.0386C34.0771 53.8462 41.3762 41.8674 53.01 35.9672C56.2782 34.3096 58.829 33.4034 61.9046 32.8071C65.2266 32.1631 65.1102 32.1719 69.4827 32.2322C72.6979 32.2765 74.017 32.3894 75.7937 32.7727ZM57.549 64.5448C56.8685 64.7463 55.9685 65.1942 55.5487 65.5406C54.6269 66.3014 53.5448 67.9906 53.5448 68.6687C53.5448 69.822 55.4328 70.1901 57.4059 69.4218C59.576 68.5766 60.8164 67.1587 60.8177 65.5216C60.8189 64.08 59.9735 63.8272 57.549 64.5448ZM91.507 74.4569C91.4886 76.1941 89.333 79.2963 86.8349 81.1812C86.1411 81.7045 85.5372 82.0954 85.4927 82.0498C85.285 81.8369 85.9755 79.4357 86.67 77.9564C87.708 75.7448 89.9887 73.2828 90.9007 73.3896C91.4815 73.4576 91.517 73.5199 91.507 74.4569ZM68.5504 83.0345C69.6575 83.3743 71.0543 84.6328 71.5395 85.7276C72.3477 87.5513 71.8411 90.6769 70.3857 92.8447C68.458 95.7162 64.9448 98.0865 63.3739 97.5757C62.694 97.3545 62.3158 96.3185 62.3186 94.6853C62.3224 92.4505 62.7433 91.1705 64.9174 86.7813C67.0606 82.4548 66.9695 82.5488 68.5504 83.0345ZM16.3043 92.4101C15.78 92.9475 15.679 93.2279 15.679 94.1472C15.679 95.6649 16.4205 96.5928 17.6331 96.5928C18.2466 96.5928 18.6242 96.4446 19.0046 96.0545C19.6389 95.4047 19.6652 95.1455 19.1118 94.9971C18.8292 94.9214 18.5848 95.0554 18.3581 95.4101C17.6696 96.4867 16.7487 95.7995 16.7487 94.2093C16.7487 93.639 16.8642 93.0541 17.0054 92.9094C17.4228 92.4816 18.2714 92.5884 18.3981 93.0848C18.4706 93.3685 18.6899 93.5233 19.02 93.5233C19.6877 93.5233 19.681 93.0006 19.0046 92.3075C18.246 91.5298 17.1216 91.5726 16.3043 92.4101ZM20.3855 94.8388C20.3855 96.4465 20.4212 96.5928 20.8134 96.5928C21.1974 96.5928 21.2412 96.4465 21.2412 95.1676C21.2412 93.7936 21.2605 93.7425 21.7761 93.7425C22.2916 93.7425 22.3109 93.7936 22.3109 95.1676C22.3109 96.4465 22.3547 96.5928 22.7387 96.5928C23.1309 96.5928 23.1666 96.4465 23.1666 94.8388V93.0848H21.7761H20.3855V94.8388ZM24.4658 93.6625C23.5836 94.8118 24.2423 96.5928 25.5494 96.5928C26.4372 96.5928 26.9128 96.2845 27.2279 95.5048C27.9585 93.6973 25.6307 92.1446 24.4658 93.6625ZM28.164 93.4145C28.1123 93.5526 28.0979 94.5945 28.132 95.7298C28.1839 97.4584 28.2524 97.805 28.5538 97.8642C28.8215 97.9166 28.9312 97.7517 28.9817 97.2218C29.0457 96.5507 29.0996 96.5084 29.9054 96.4961C30.7083 96.484 30.7794 96.429 31.0555 95.6061C31.3114 94.8436 31.3063 94.6228 31.0155 93.9135C30.6831 93.1019 30.6758 93.0981 29.4697 93.1308C28.7844 93.1492 28.2173 93.2724 28.164 93.4145ZM31.7239 93.4136C31.7239 93.5963 31.914 93.7425 32.1517 93.7425C32.5362 93.7425 32.5796 93.8887 32.5796 95.183C32.5796 96.5511 32.6038 96.6197 33.0609 96.5533C33.4734 96.4932 33.5463 96.3422 33.5709 95.4965C33.6206 93.7831 33.6323 93.7425 34.0771 93.7425C34.3148 93.7425 34.505 93.5963 34.505 93.4136C34.505 93.1551 34.2078 93.0848 33.1144 93.0848C32.021 93.0848 31.7239 93.1551 31.7239 93.4136ZM34.9328 94.8388C34.9328 96.3924 34.9775 96.5928 35.3243 96.5928C35.5464 96.5928 36.0331 96.1413 36.4475 95.5513L37.1791 94.5099L37.2444 95.5513C37.2983 96.4139 37.3811 96.5928 37.7257 96.5928C38.1033 96.5928 38.1418 96.4301 38.1418 94.8388C38.1418 93.3143 38.0928 93.0848 37.7674 93.0852C37.5567 93.0854 37.1273 93.5167 36.785 94.0718C36.4507 94.6143 36.0898 95.058 35.9828 95.058C35.8761 95.058 35.7886 94.614 35.7886 94.0714C35.7886 93.231 35.7252 93.0848 35.3607 93.0848C34.9686 93.0848 34.9328 93.231 34.9328 94.8388ZM39.2115 94.8388V96.5928H40.4523C41.1347 96.5928 41.8086 96.4744 41.9498 96.3297C42.2996 95.9712 42.2726 95.3871 41.8916 95.0631C41.6143 94.8271 41.6143 94.7565 41.8916 94.4724C42.6209 93.725 41.92 93.0848 40.3729 93.0848H39.2115V94.8388ZM43.0622 94.8388C43.0622 96.4275 43.1014 96.5928 43.4766 96.5928C43.7877 96.5928 43.9075 96.4152 43.9579 95.8802C44.0138 95.2865 44.1231 95.156 44.6132 95.0984C45.1596 95.0339 45.2015 95.0859 45.2015 95.826C45.2015 96.5274 45.2595 96.6149 45.6829 96.5533C46.1332 96.4878 46.1642 96.377 46.1642 94.8388C46.1642 93.3005 46.1332 93.1898 45.6829 93.1242C45.2715 93.0644 45.2015 93.1543 45.2015 93.7418C45.2015 94.3625 45.1444 94.4226 44.6132 94.3599C44.1511 94.3055 44.0104 94.1613 43.9573 93.6877C43.9094 93.2617 43.7682 93.0848 43.476 93.0848C43.1014 93.0848 43.0622 93.2509 43.0622 94.8388ZM47.463 93.4292C46.9592 93.9458 47.0396 94.0021 48.0592 93.8453C48.7847 93.734 49.0189 93.7754 49.1152 94.033C49.251 94.3957 48.8657 94.6195 48.1052 94.6195C47.8389 94.6195 47.4465 94.8173 47.233 95.0589C46.3925 96.0109 47.9026 97.208 48.8223 96.3187C49.0491 96.0995 49.1255 96.0995 49.2038 96.3187C49.2577 96.4696 49.4864 96.5928 49.7118 96.5928C50.0734 96.5928 50.1219 96.4261 50.1219 95.1832C50.1219 93.5029 49.8237 93.0848 48.6244 93.0848C48.1596 93.0848 47.6525 93.2352 47.463 93.4292ZM51.3521 93.3215C50.915 93.5824 50.8677 94.2257 51.2404 94.8372C51.456 95.1913 51.4348 95.3867 51.1212 95.9304C50.7479 96.5783 50.749 96.5928 51.1741 96.5928C51.4404 96.5928 51.7369 96.3382 51.9404 95.935C52.1391 95.5412 52.4416 95.2773 52.6947 95.2773C53.0214 95.2773 53.117 95.4264 53.117 95.935C53.117 96.4465 53.212 96.5928 53.5448 96.5928C53.937 96.5928 53.9727 96.4465 53.9727 94.8388V93.0848L52.8496 93.0913C52.232 93.0951 51.5581 93.1985 51.3521 93.3215ZM26.3328 94.748C26.376 95.3538 26.2894 95.7355 26.0654 95.926C25.5622 96.3538 25.092 95.8333 25.092 94.8484C25.092 93.9012 25.2323 93.7002 25.832 93.7881C26.1773 93.8388 26.2821 94.0398 26.3328 94.748ZM30.1836 94.75C30.2251 95.3294 30.1388 95.7366 29.9386 95.9067C29.2444 96.4974 28.5448 94.6765 29.2057 93.9992C29.7014 93.4912 30.1162 93.8098 30.1836 94.75ZM41.2438 94.181C41.2438 94.3768 41.0057 94.5379 40.6555 94.5792C40.1765 94.6357 40.0672 94.5618 40.0672 94.181C40.0672 93.8002 40.1765 93.7263 40.6555 93.7828C41.0057 93.8241 41.2438 93.9852 41.2438 94.181ZM53.117 94.1955C53.117 94.5601 53.0025 94.6351 52.5306 94.5792C52.1768 94.5375 51.9158 94.3575 51.873 94.1262C51.8178 93.8282 51.9489 93.7425 52.4596 93.7425C52.9814 93.7425 53.117 93.8359 53.117 94.1955ZM49.1565 95.0534C49.3452 95.3663 48.8775 96.1543 48.5031 96.1543C47.992 96.1543 47.8622 95.4713 48.3097 95.1358C48.7804 94.7831 48.9817 94.7636 49.1565 95.0534ZM41.3508 95.4965C41.3508 95.8377 41.2081 95.935 40.709 95.935C40.2099 95.935 40.0672 95.8377 40.0672 95.4965C40.0672 95.1554 40.2099 95.058 40.709 95.058C41.2081 95.058 41.3508 95.1554 41.3508 95.4965ZM35.4848 98.766C35.1331 99.1641 35.1341 99.1898 35.5051 99.2755C35.7199 99.3251 36.0605 99.2231 36.262 99.0488C36.6798 98.6877 37.2861 98.8377 37.2861 99.3021C37.2861 99.4884 36.9639 99.6752 36.4838 99.7671C35.4383 99.9675 35.1468 100.236 35.1468 101C35.1468 101.491 35.2666 101.658 35.6974 101.769C36.0001 101.847 36.4781 101.803 36.7594 101.672C37.0813 101.521 37.3179 101.511 37.398 101.644C37.4679 101.76 37.6639 101.855 37.8335 101.855C38.2297 101.855 38.2751 99.0096 37.8851 98.6099C37.4681 98.1826 35.9105 98.2839 35.4848 98.766ZM39.2115 100.649C39.2115 102.805 39.2386 102.951 39.6393 102.951C39.9713 102.951 40.0672 102.805 40.0672 102.299C40.0672 101.69 40.11 101.655 40.7147 101.779C41.6909 101.979 42.2065 101.393 42.2065 100.082C42.2065 98.9221 41.8257 98.3468 41.0575 98.3468C40.7952 98.3468 40.4651 98.4652 40.3239 98.6099C40.1243 98.8144 40.0672 98.8144 40.0672 98.6099C40.0672 98.4652 39.8746 98.3468 39.6393 98.3468C39.2386 98.3468 39.2115 98.493 39.2115 100.649ZM43.4653 98.7618C43.084 99.0782 42.9649 99.397 42.9649 100.101C42.9649 100.805 43.084 101.123 43.4653 101.44C44.0724 101.944 44.9405 101.974 45.5817 101.513C46.1726 101.089 46.1933 100.759 45.6294 100.759C45.3941 100.759 45.2015 100.864 45.2015 100.992C45.2015 101.121 44.9367 101.195 44.6132 101.157C44.1901 101.107 44.0249 100.964 44.0249 100.649C44.0249 100.274 44.1892 100.201 45.1587 100.144C46.213 100.082 46.2832 100.043 46.1563 99.5956C45.8228 98.4176 44.4083 97.9793 43.4653 98.7618ZM47.1057 98.9337C47.0078 101.805 47.0003 101.745 47.4478 101.745C47.7741 101.745 47.8915 101.576 47.9426 101.033C47.9976 100.448 48.1009 100.32 48.5175 100.32C48.934 100.32 49.0373 100.448 49.0923 101.033C49.1434 101.576 49.2609 101.745 49.5871 101.745C49.9728 101.745 50.0212 101.578 50.0775 100.046C50.1397 98.3553 50.1371 98.3468 49.5961 98.3468C49.1344 98.3468 49.0523 98.4461 49.0523 99.0045C49.0523 99.5551 48.9676 99.6623 48.5316 99.6623C48.1232 99.6623 47.9965 99.5327 47.9433 99.0613C47.847 98.2051 47.1344 98.0966 47.1057 98.9337ZM51.3225 98.7581C50.9907 99.1339 50.9892 99.1815 51.3052 99.3058C51.4956 99.3805 51.7953 99.2942 51.9716 99.1135C52.359 98.7164 52.5246 98.7044 52.8603 99.0484C53.2794 99.4779 53.1638 99.6156 52.2529 99.7734C50.8014 100.025 50.3128 101.456 51.5683 101.779C51.8708 101.857 52.2985 101.8 52.5327 101.65C52.8346 101.456 53.019 101.447 53.185 101.618C53.3123 101.748 53.5416 101.855 53.6946 101.855C54.063 101.855 54.082 98.985 53.716 98.6099C53.3031 98.1867 51.7416 98.2834 51.3225 98.7581ZM41.0941 99.0484C41.3897 99.3514 41.4308 100.509 41.1614 100.944C41.0609 101.107 40.7975 101.205 40.5763 101.162C39.8652 101.024 39.9743 98.7853 40.6923 98.7853C40.7721 98.7853 40.9529 98.9037 41.0941 99.0484ZM45.1613 99.281C45.2167 99.5763 45.0847 99.6623 44.5754 99.6623C43.8741 99.6623 43.7562 99.4772 44.1809 99.042C44.5345 98.6796 45.073 98.8109 45.1613 99.281ZM37.2861 100.532C37.2861 100.998 36.7008 101.417 36.2699 101.259C35.6722 101.039 36.1835 100.101 36.901 100.101C37.1412 100.101 37.2861 100.263 37.2861 100.532ZM53.0515 100.461C53.2111 100.888 52.5787 101.443 52.1335 101.268C51.7656 101.123 51.7461 100.716 52.0901 100.364C52.4523 99.9927 52.8928 100.037 53.0515 100.461Z" fill="#FAF4F0"></path> </svg> 