<?xml version="1.0" encoding="UTF-8"?> <svg xmlns="http://www.w3.org/2000/svg" width="135" height="135" viewBox="0 0 135 135" fill="none"> <rect x="0.893555" width="134.106" height="134.106" rx="20" fill="#8E8E8E"></rect> <g clip-path="url(#clip0_1_165)"> <path fill-rule="evenodd" clip-rule="evenodd" d="M39.228 30.2554C38.9574 31.7612 38.6495 33.4445 38.5439 33.996C38.3242 35.1426 38.5085 35.3777 39.5557 35.287C40.2571 35.226 40.2217 35.298 40.7077 32.9483C40.7976 32.5134 40.9742 32.4481 42.2206 32.3895L43.6318 32.3229L43.7019 31.4847L43.7722 30.6465H42.3978H41.0236L41.1758 30.0319C41.3797 29.2082 41.5063 29.1532 43.0127 29.2332C44.5443 29.3148 44.7575 29.2058 44.947 28.2437L45.0898 27.5173H42.405H39.7203L39.228 30.2554ZM46.1314 28.0202C45.801 29.5531 44.8939 34.6946 44.8789 35.1185C44.8769 35.1808 45.3328 35.1958 45.8922 35.152C46.7861 35.0816 46.9095 35.0083 46.9095 34.5469C46.9095 34.2581 47.1057 32.9859 47.3455 31.7197C47.5851 30.4532 47.8485 28.9898 47.9305 28.4672L48.0795 27.5173H47.1598C46.3887 27.5173 46.2225 27.5987 46.1314 28.0202ZM50.5956 27.8452C49.6594 28.2478 49.0246 29.4876 48.7018 31.5444C48.369 33.6654 48.551 34.5731 49.3949 35.0047C50.6661 35.6547 52.8414 35.2988 53.747 34.2926C53.9642 34.0509 54.2307 33.3833 54.3395 32.8089L54.5368 31.7641H53.3227C52.6549 31.7641 52.0322 31.761 51.9391 31.7572C51.8459 31.7534 51.7374 32.0049 51.6981 32.316C51.6481 32.7105 51.7336 32.8817 51.9806 32.8817C52.5211 32.8817 52.4022 33.308 51.784 33.5865C50.7044 34.0729 50.4453 33.7215 50.6081 31.9915C50.7853 30.1063 51.1126 29.3367 51.8111 29.1633C52.569 28.9753 53.0808 29.4715 52.9248 30.2429C52.8027 30.8466 52.8319 30.8701 53.7022 30.8701C54.4646 30.8701 54.6407 30.7802 54.8268 30.2967C55.1874 29.3586 55.0842 28.8606 54.3864 28.1706C53.8182 27.6087 53.5573 27.5184 52.5215 27.526C51.8592 27.5309 50.9926 27.6744 50.5956 27.8452ZM56.5307 27.718C56.4618 27.8284 56.2954 28.7084 56.1609 29.6738C56.0264 30.6392 55.7717 32.1144 55.5949 32.9521C55.1374 35.1191 55.1367 35.1169 56.1533 35.1169C57.1243 35.1169 57.1914 35.0301 57.4282 33.4691L57.585 32.4347H58.6058H59.6265L59.4732 33.7758L59.3197 35.1169H60.2198C61.2056 35.1169 61.2393 35.0695 61.4861 33.3288C61.5646 32.7756 61.7673 31.5686 61.9366 30.6465C62.106 29.7245 62.3022 28.6376 62.3725 28.231L62.5006 27.4918L61.551 27.5604L60.6016 27.6291L60.3502 28.8752C59.9574 30.8234 59.9225 30.8701 58.8662 30.8701H57.9243L58.0592 29.9201C58.1334 29.3975 58.2616 28.6432 58.3443 28.2437C58.4941 27.5189 58.4924 27.5173 57.5753 27.5173C57.0698 27.5173 56.5997 27.6076 56.5307 27.718ZM63.2918 28.2158C63.0958 29.0973 63.4288 29.341 64.7106 29.2549C65.4472 29.2055 65.6698 29.269 65.6644 29.5274C65.6537 30.0256 64.8225 34.6925 64.7319 34.7624C64.6892 34.7953 64.1456 34.9533 63.524 35.1138C61.7526 35.5704 59.111 37.0164 57.8728 38.2073C57.1442 38.9078 56.3133 39.444 55.535 39.7157C53.0098 40.5976 51.666 43.3835 52.6464 45.7036C53.0857 46.7439 53.8408 47.2523 55.9855 47.9533C58.361 48.7296 59.116 49.2461 59.116 50.0946C59.116 50.4478 59.0143 50.7989 58.8899 50.8749C58.7656 50.9509 58.6639 50.8174 58.6639 50.5785C58.6639 49.9875 57.8318 49.4934 55.5542 48.7321C52.592 47.7421 51.4458 46.6182 51.4209 44.6794L51.4117 43.9458L50.6298 44.8214C49.6853 45.879 49.6684 45.7619 50.3008 42.5411C50.9704 39.1313 51.0683 39.3637 48.9617 39.3637C46.907 39.3637 47.2253 38.9209 46.5525 42.7165C45.4303 49.0494 45.1429 50.1875 44.5344 50.7072C43.8201 51.3174 42.1641 51.4033 41.6134 50.859C41.0908 50.342 41.1674 49.1697 42.0508 44.1698C42.4853 41.7113 42.8406 39.6203 42.8406 39.5229C42.8406 39.4254 42.0054 39.3749 40.9848 39.4107L39.1289 39.4755L38.8561 41.1518C38.706 42.0739 38.3204 44.3082 37.9994 46.1171C37.2935 50.0937 37.2654 51.3841 37.8602 52.5365C38.5345 53.8437 39.8615 54.3926 42.346 54.3926C43.6506 54.3924 44.6061 54.2699 45.1924 54.0276C45.6776 53.8271 46.1098 53.6977 46.1527 53.7402C46.1956 53.7824 45.9684 54.4552 45.6479 55.2353C44.9924 56.8305 44.1565 59.8934 43.5136 63.0566C43.2762 64.2245 42.7753 66.2864 42.4006 67.6387C41.8876 69.4894 41.7244 70.5395 41.7407 71.8856C41.764 73.8201 41.5573 75.2975 41.2011 75.7412C41.078 75.8948 40.5885 76.0206 40.1138 76.0206C39.6389 76.0206 39.1782 76.1364 39.0896 76.2781C38.8697 76.6299 38.9682 79.2983 39.2386 80.3073C39.3595 80.7596 39.8127 81.5487 40.2454 82.0607C40.8322 82.7552 41.0311 83.1998 41.028 83.8091C41.0239 84.614 39.9596 86.9784 39.0048 88.3045C38.7494 88.6592 38.2236 89.5356 37.8366 90.2522L37.1327 91.5551L37.0843 98.8194C37.0579 102.815 36.9589 106.357 36.8644 106.69C36.705 107.253 36.7964 107.362 38.1278 108.203C42.141 110.737 48.4138 113.445 53.1258 114.678C64.5457 117.665 74.9022 117.308 86.4437 113.528C89.3177 112.587 96.5902 109.148 97.8833 108.119L98.5614 107.579V103.144C98.5614 99.693 98.4889 98.5833 98.2359 98.149C98.0574 97.8412 97.8954 97.1804 97.8762 96.6799C97.857 96.1792 97.6316 95.3242 97.375 94.78C96.276 92.4501 95.5254 89.591 95.4721 87.5318C95.4422 86.3928 95.5268 85.3263 95.6669 85.0731C96.0201 84.4343 96.5839 81.9588 96.7481 80.3242C96.8966 78.8426 96.8788 78.807 95.3989 77.6146C95.165 77.4264 95.0662 77.1284 95.1422 76.8414C95.3235 76.1577 94.8856 73.1935 94.3944 71.7738C94.1599 71.0976 93.7493 69.5889 93.4813 68.421C92.9501 66.1062 91.316 59.93 90.9977 59.0333C90.8885 58.726 90.5847 57.7453 90.3223 56.854L89.8453 55.2335H88.3669C86.963 55.2335 86.892 55.2082 86.9605 54.7306C87.031 54.2404 87.1185 54.2248 90.4235 54.1159C93.4595 54.0158 93.9322 53.9458 94.9432 53.4453C96.3045 52.771 97.4106 51.3973 97.8819 49.7944C98.0695 49.1551 98.4221 47.4293 98.6645 45.9593C99.3078 42.0616 98.9076 40.7695 96.753 39.7862C95.9938 39.4397 95.2631 39.3727 92.1996 39.3687C89.2304 39.3646 88.5272 39.4236 88.4257 39.6854C88.357 39.8622 88.0763 41.3709 87.8016 43.0381C87.5269 44.7052 87.2252 46.0693 87.1311 46.0693C87.0371 46.0693 86.6924 45.7548 86.3655 45.3705C86.0384 44.9863 85.7396 44.7098 85.7012 44.7559C85.6627 44.8021 85.2283 47.1533 84.7355 49.9808L83.8397 55.1217L81.7928 55.1857L79.746 55.2495L79.8554 54.6828C79.96 54.1414 80.0349 54.1159 81.5211 54.1159C83.0659 54.1159 83.077 54.1114 83.0849 53.5012C83.0892 53.1633 83.2427 52.0819 83.426 51.0984C83.6093 50.115 84.1181 47.2483 84.5572 44.7281C84.9959 42.208 85.4087 39.9701 85.4744 39.7549C85.5818 39.4037 85.3976 39.3637 83.6778 39.3637H81.7616L81.4922 40.9429C81.3441 41.8115 81.1644 42.4644 81.093 42.3938C81.0213 42.3231 80.6328 41.6892 80.2292 40.9854C79.5543 39.8077 79.4851 39.7498 79.3642 40.261C79.1395 41.2102 76.7516 54.7281 76.7491 55.0658C76.7484 55.1579 75.8252 55.2335 74.6974 55.2335C72.7008 55.2335 72.6493 55.2203 72.7195 54.7306C72.7864 54.2661 72.9234 54.2227 74.5152 54.1629L76.2384 54.098L76.3623 53.2687C76.4773 52.4994 77.6625 45.7461 78.4466 41.3922C78.6331 40.3564 78.8327 39.4625 78.8904 39.4058C79.3257 38.9752 76.3618 36.6377 74.1481 35.6659L73.2439 35.2689L74.1965 35.1229C75.3813 34.9417 76.0033 34.4021 76.3051 33.2941C76.5508 32.3915 76.3039 31.5406 75.7962 31.5406C75.6545 31.5406 75.7716 31.2954 76.0564 30.9957C76.372 30.6633 76.6177 30.0672 76.6862 29.467C76.7857 28.5944 76.728 28.4286 76.1773 28.0003C75.648 27.5884 75.2635 27.5173 73.5679 27.5173C71.865 27.5173 71.5637 27.5736 71.4722 27.9085C71.3481 28.3629 70.7221 31.8109 70.4679 33.4405L70.2936 34.5581H68.5487C67.5892 34.5581 66.8035 34.5004 66.8027 34.4298C66.7989 34.0246 67.5648 30.0075 67.7257 29.5889C67.8948 29.1494 68.0356 29.1029 68.8857 29.2066C70.0501 29.3488 70.3123 29.1941 70.521 28.2437L70.6803 27.5173H67.0636H63.4468L63.2918 28.2158ZM79.2098 28.1226C78.6564 29.5229 76.7574 34.9774 76.8071 35.0237C76.8815 35.0928 77.9143 35.1717 78.3537 35.1417C78.559 35.1276 78.8079 34.801 78.9261 34.3905C79.1151 33.7358 79.2299 33.6573 80.0891 33.5954L81.0426 33.5266V34.3218C81.0426 35.1158 81.0439 35.1169 82.0652 35.1169H83.0878L83.0259 31.373L82.9639 27.6291L81.2101 27.5638C79.4754 27.4992 79.4537 27.5052 79.2098 28.1226ZM86.5807 27.7442C85.5832 28.1823 85.1202 28.7808 84.7843 30.0674C84.311 31.8792 84.1245 33.4191 84.2961 34.0952C84.5913 35.2582 86.9236 35.7325 88.4944 34.9488C89.3401 34.527 89.949 33.6457 90.193 32.4906L90.3464 31.7641H88.8591C87.4234 31.7641 87.3719 31.7836 87.3719 32.3229C87.3719 32.6707 87.5001 32.8817 87.711 32.8817C88.1443 32.8817 88.1457 33.1955 87.7139 33.5498C87.5131 33.7145 87.1361 33.7657 86.7781 33.677C86.1905 33.531 86.1813 33.5002 86.3122 32.1432C86.4989 30.2055 86.8511 29.3309 87.5104 29.1673C88.2912 28.9735 88.798 29.463 88.6377 30.2556C88.5103 30.8862 88.522 30.8944 89.4587 30.8269C90.3123 30.7652 90.43 30.685 90.6164 30.0393C90.8813 29.121 90.4832 28.1139 89.7194 27.7699C89.0627 27.4739 87.2302 27.459 86.5807 27.7442ZM92.8478 27.9652C91.4884 28.7849 91.249 30.4827 92.3623 31.409C92.7448 31.7273 93.2075 31.9877 93.3906 31.9877C93.5737 31.9877 94.0301 32.1443 94.4044 32.3359C94.8991 32.5889 95.0662 32.8178 95.015 33.1741C94.9119 33.8918 93.4587 33.8817 93.139 33.1611C92.9645 32.7677 92.7306 32.6582 92.0653 32.6582C91.2325 32.6582 91.2147 32.6756 91.2181 33.4964C91.2223 34.5282 91.3874 34.7995 92.1946 35.1028C93.7649 35.6931 96.3571 35.1265 96.8348 34.0885C97.1831 33.3337 97.1589 32.1636 96.785 31.6584C96.6165 31.4304 95.8794 31.0335 95.1465 30.7766C94.0055 30.3765 93.8142 30.2297 93.8142 29.7547C93.8142 29.145 94.275 28.9516 95.1885 29.178C95.5879 29.2773 95.7358 29.4675 95.7358 29.8819C95.7358 30.4018 95.8076 30.444 96.5831 30.3806C97.402 30.3137 97.4333 30.2798 97.4994 29.3866C97.557 28.6067 97.4724 28.3881 96.9599 27.9896C96.1261 27.3412 93.9051 27.328 92.8478 27.9652ZM74.6723 29.9349C74.725 30.2903 74.5833 30.4829 74.1491 30.6461C72.9322 31.1036 72.6655 30.8513 73.1192 29.6716C73.3027 29.1941 73.4241 29.1383 73.9669 29.2809C74.3767 29.3886 74.6258 29.6195 74.6723 29.9349ZM81.1395 29.9387C81.0609 32.293 81.0889 32.2112 80.3644 32.2112C79.5941 32.2112 79.5629 32.101 80.0032 30.9304C80.1775 30.4671 80.3811 29.9034 80.4555 29.678C80.6366 29.1293 81.1599 29.3287 81.1395 29.9387ZM74.1296 32.1233C74.5528 32.2838 74.5989 32.9054 74.216 33.2841C74.0668 33.4316 73.609 33.5523 73.1987 33.5523C72.6142 33.5523 72.4528 33.4595 72.4528 33.1236C72.4528 32.088 73.0685 31.7208 74.1296 32.1233ZM72.4528 38.5189C72.888 38.648 73.6255 38.9433 74.0916 39.1751C74.7693 39.5119 74.9393 39.7225 74.9393 40.2252C74.9393 41.1119 74.7146 41.2313 74.1075 40.6671C73.6838 40.2735 73.3504 40.1885 72.4006 40.2312C71.7514 40.2605 71.1806 40.3237 71.1322 40.3716C71.0836 40.4194 70.957 40.7907 70.8508 41.1963C70.707 41.7455 70.6889 41.6054 70.7803 40.6489L70.903 39.3637H69.1028C67.4016 39.3637 67.2953 39.3925 67.1694 39.8895C67.0485 40.3657 66.8762 40.4283 65.3282 40.5578C63.7357 40.691 63.5596 40.6606 62.7156 40.1082C62.12 39.7185 61.8867 39.4404 62.0334 39.2954C62.3752 38.9574 65.0671 38.4714 67.7058 38.2714C70.2002 38.0825 71.1503 38.1319 72.4528 38.5189ZM105.848 39.3702C103.968 39.8371 102.558 40.8998 101.742 42.4639C101.158 43.584 100.206 48.954 100.293 50.6386C100.389 52.5003 100.793 53.1735 102.256 53.9026C103.045 54.2954 103.631 54.3926 105.215 54.3926C108.36 54.3926 110.311 53.2864 111.341 50.9189C111.853 49.7426 112.621 46.0451 112.844 43.6921C113.107 40.8944 111.545 39.3597 108.296 39.2251C107.418 39.1887 106.316 39.254 105.848 39.3702ZM25.5544 39.8666C25.4911 40.1434 25.3453 40.9731 25.2302 41.7107C25.1154 42.4483 24.7015 44.812 24.3104 46.9633C23.9194 49.1147 23.4693 51.604 23.3102 52.4954L23.0211 54.1159H27.1383C32.6705 54.1159 33.5408 53.8168 34.6198 51.5454C35.3556 49.9965 35.3612 48.1268 34.632 47.4492C34.3442 47.1819 33.9882 46.9633 33.8408 46.9633C33.6932 46.9633 33.5728 46.8628 33.5728 46.7398C33.5728 46.6169 33.7077 46.5163 33.8724 46.5163C34.4369 46.5163 35.1329 45.5049 35.483 44.1756C35.9276 42.4876 35.923 41.9652 35.4548 40.9896C34.8008 39.6268 33.8657 39.3745 29.4517 39.3687C25.7126 39.3637 25.6683 39.3696 25.5544 39.8666ZM70.575 42.8799C70.5176 43.0974 70.467 42.9735 70.4625 42.6047C70.4579 42.2359 70.5047 42.058 70.5667 42.2094C70.6286 42.3607 70.6324 42.6624 70.575 42.8799ZM59.7941 42.7165C60.2989 43.2156 60.3595 43.6542 60.0123 44.2959C59.7899 44.7067 59.869 44.7281 61.6134 44.7281C62.9807 44.7281 63.4247 44.7995 63.3551 45.0076C63.2918 45.196 62.6139 45.3082 61.2741 45.352C59.5125 45.4095 59.3027 45.3754 59.4284 45.0518C59.8054 44.0798 59.8007 43.6682 59.4065 43.1866C59.0769 42.7842 58.762 42.6792 57.8838 42.6792C57.1393 42.6792 56.8822 42.6132 57.0988 42.4778C57.7071 42.0971 59.3115 42.2393 59.7941 42.7165ZM108.677 42.9742C109.172 43.5529 109.17 43.6709 108.623 46.835C107.986 50.5215 107.518 51.2101 105.652 51.2101C104.379 51.2101 104.1 50.8907 104.1 49.4388C104.1 47.9017 104.884 43.9197 105.288 43.4072C106.209 42.2395 107.867 42.0278 108.677 42.9742ZM31.2619 42.841C31.7682 43.1917 31.9531 44.3265 31.5914 44.8623C31.2759 45.3296 30.4341 45.6223 29.4058 45.6223C28.2308 45.6223 28.2009 45.5464 28.6184 43.6215L28.8633 42.493H29.8113C30.3328 42.493 30.9856 42.6496 31.2619 42.841ZM94.6702 43.185C95.042 43.6379 95.0925 43.951 94.988 45.1752C94.8153 47.2097 94.1911 49.7734 93.7317 50.3344C93.4311 50.7014 93.0061 50.834 91.8275 50.9274L90.3105 51.0479V50.3581C90.3105 49.9786 90.5083 48.6321 90.7499 47.3659C90.9918 46.0994 91.259 44.5605 91.344 43.9458C91.4287 43.3312 91.5495 42.7416 91.6116 42.6354C91.674 42.5292 92.2884 42.4885 92.9767 42.5451C93.9496 42.6248 94.3269 42.7672 94.6702 43.185ZM70.2951 44.6063C70.2086 45.1763 70.0917 45.5972 70.0352 45.5413C69.9787 45.4854 70.0031 44.9731 70.0895 44.403C70.1761 43.833 70.2929 43.4121 70.3494 43.4679C70.406 43.5238 70.3815 44.0361 70.2951 44.6063ZM31.0862 48.528C31.652 49.0874 31.6608 49.6699 31.1134 50.3384C30.7559 50.775 30.428 50.8718 29.0445 50.9491L27.4007 51.041L27.5538 49.7542C27.6379 49.0465 27.761 48.3805 27.8275 48.2743C27.894 48.1679 28.5524 48.0809 29.2912 48.0809C30.3328 48.0809 30.7356 48.1813 31.0862 48.528ZM73.357 49.0867C73.357 49.3584 72.9939 49.422 71.4462 49.422H69.5355L69.3001 50.2602C69.1706 50.7214 69.0641 51.2911 69.0635 51.5269C69.0627 51.7625 68.9988 51.8928 68.9215 51.8163C68.8442 51.7399 68.9066 51.0191 69.0603 50.2144L69.3392 48.7515H71.3481C72.9831 48.7515 73.357 48.8139 73.357 49.0867ZM51.7677 52.9152C52.2727 53.6773 53.263 54.1031 55.0451 54.3244C57.9498 54.6849 60.851 54.0158 61.9425 52.733C62.6451 51.9073 62.6799 52.2265 61.9981 53.2446C61.6841 53.7136 60.9705 54.2608 60.1332 54.6747C58.8432 55.3124 58.6388 55.3453 55.9514 55.3453C53.5729 55.3453 52.9849 55.2744 52.2363 54.8982C50.9424 54.2483 50.4602 53.4715 50.3416 51.8465C50.2561 50.6809 50.307 50.4169 50.6659 50.1565C51.0656 49.8666 51.1013 49.9249 51.2571 51.1212C51.3481 51.8215 51.5778 52.6288 51.7677 52.9152ZM68.7658 53.1659C68.709 53.3812 68.6625 53.2051 68.6625 52.7748C68.6625 52.3445 68.709 52.1684 68.7658 52.3836C68.8227 52.5989 68.8227 52.9507 68.7658 53.1659ZM68.5148 54.6843C68.3796 55.2165 68.3127 55.2335 66.3452 55.2335C65.2286 55.2335 64.3151 55.1412 64.3151 55.0283C64.3151 54.2332 64.5945 54.1159 66.4867 54.1159C67.8443 54.1159 68.3889 54.0363 68.4018 53.8365C68.4154 53.6231 68.4472 53.6253 68.537 53.8461C68.6014 54.005 68.5914 54.3823 68.5148 54.6843ZM73.0179 62.053C88.5349 65.642 94.6276 84.1667 84.318 96.4108C82.7752 98.2432 79.7462 100.533 77.3128 101.708C69.547 105.457 59.6951 103.983 53.3615 98.1244C49.5685 94.6159 47.3336 90.1523 46.6473 84.7134C46.4018 82.769 46.4138 82.1171 46.7345 79.9664C47.4995 74.8389 49.1238 71.4705 52.5534 67.9003C55.192 65.1537 58.2299 63.3512 62.0616 62.2591C65.7358 61.2117 69.1064 61.1484 73.0179 62.053ZM65.0202 64.1811C63.5321 64.395 61.8537 64.8474 61.7129 65.0727C61.6556 65.1643 61.796 65.4773 62.0248 65.7683C62.6964 66.6224 63.0246 67.9172 62.8673 69.0907C62.7547 69.9296 62.7972 70.1859 63.0662 70.2878C63.5766 70.4814 64.3133 71.797 64.3142 72.5165L64.3151 73.1473L63.7393 72.6996C62.9043 72.0501 61.9796 71.9085 61.1943 72.3102C60.4196 72.7063 60.2462 73.0561 60.2462 74.2235C60.2462 75.144 60.6726 76.2804 61.3227 77.0928L61.7334 77.6061L63.6458 77.007C65.8018 76.3317 66.6477 75.6214 67.5625 73.7184C68.0799 72.6422 68.0989 72.6281 68.2483 73.217C68.4398 73.9714 69.2953 75.3201 69.9495 75.899C70.2215 76.1393 71.2751 76.6119 72.2911 76.9491C74.4072 77.6512 74.5033 77.6195 75.3503 75.9424C76.3853 73.8929 75.657 72.0921 73.8125 72.1399C73.2304 72.1551 72.6135 72.3498 72.2077 72.6464C71.7001 73.0176 71.5486 73.053 71.5486 72.8008C71.5486 72.2045 72.0215 71.2233 72.5961 70.6276C73.0855 70.1202 73.1682 69.8156 73.2033 68.3924C73.2385 66.9662 73.329 66.6349 73.876 65.9279L74.508 65.1109L73.4239 64.7618C71.0732 64.0048 67.8148 63.7797 65.0202 64.1811ZM59.5046 65.9717C55.3989 67.9481 51.9343 71.7483 50.3121 76.0546C48.8037 80.0594 48.814 85.4041 50.3372 89.2082C50.88 90.5636 52.7044 93.8253 53.0315 94.0252C53.3645 94.2288 53.2702 93.2529 52.8778 92.4351C52.5184 91.6858 52.5202 91.6792 53.3736 90.6494C54.1064 89.765 54.2443 89.4225 54.3282 88.2754C54.402 87.264 54.5573 86.7953 54.9606 86.3648C55.6252 85.6558 55.959 84.5109 55.7943 83.506L55.6684 82.7396L56.6272 83.1976C57.7568 83.7374 58.5023 83.6249 59.0249 82.8362C59.5215 82.0867 59.301 81.6631 58.3188 81.4809C57.2382 81.2804 57.1288 80.8917 57.8497 79.8148C58.4483 78.9206 58.8251 78.7641 59.5265 79.119C59.7359 79.2249 60.1813 79.3763 60.5166 79.4554C61.0451 79.5804 60.9631 79.4469 59.8961 78.4492C58.2939 76.9509 57.4566 75.2801 57.4634 73.5952C57.47 71.9497 57.9347 70.919 59.3263 69.4644C59.9508 68.8113 60.6167 67.9105 60.8062 67.4622C61.174 66.5917 61.2592 65.6056 60.9809 65.4422C60.8878 65.3875 60.2234 65.6257 59.5046 65.9717ZM74.9852 66.5053C75.0781 67.6133 75.1984 67.8379 76.3698 69.0889C77.9505 70.7769 78.5568 72.031 78.5538 73.6055C78.5509 75.2327 77.7667 76.7969 76.181 78.3403C75.4708 79.0314 74.9334 79.5969 74.9872 79.5969C75.0408 79.5969 75.5656 79.4348 76.1534 79.2368C77.1641 78.8964 77.247 78.8993 77.686 79.2923C77.9414 79.5207 78.2898 79.9744 78.4602 80.3003C78.8239 80.9955 78.6686 81.183 77.393 81.5891C76.442 81.8918 76.4283 82.3515 77.3447 83.2027C77.8942 83.7134 77.9085 83.7145 78.9926 83.3336C80.3674 82.8508 80.3221 82.8444 80.1942 83.5053C80.0186 84.4146 80.3428 85.5719 80.9842 86.3261C81.4436 86.8657 81.5717 87.2331 81.5248 87.8758C81.465 88.6927 82.0292 90.1313 82.674 90.8063C83.4895 91.6601 83.5901 91.8837 83.3085 92.2194C83.1566 92.4002 82.9466 92.9284 82.8417 93.3928L82.6509 94.2373L83.3039 93.455C84.3035 92.2576 85.702 89.3019 86.267 87.1929C86.9822 84.5226 86.9838 80.4338 86.2706 77.9802C84.9625 73.4801 82.497 69.9487 78.8951 67.4163C77.6435 66.5363 75.3803 65.2917 75.0317 65.2917C74.9501 65.2917 74.9292 65.8378 74.9852 66.5053ZM67.2745 76.8488C66.3654 77.9393 66.3654 78.5624 67.275 78.935C68.0627 79.2576 68.9816 79.0459 69.3562 78.4554C69.5315 78.1792 69.3982 77.8552 68.7788 77.053L67.9734 76.0101L67.2745 76.8488ZM60.2462 84.2592C60.2462 84.4879 59.8288 85.144 59.3186 85.7171C58.5547 86.5751 58.4397 86.8177 58.668 87.0896C59.0841 87.5854 61.8987 87.526 63.4798 86.9879C64.1784 86.7503 65.2369 86.4848 65.8323 86.3981C67.0213 86.2249 67.2451 86.0299 67.2503 85.1634C67.2535 84.6225 67.1389 84.5583 65.552 84.2134C64.616 84.01 63.0393 83.8437 62.0483 83.8437C60.4424 83.8437 60.2462 83.8889 60.2462 84.2592ZM70.1923 84.2543C69.3702 84.4716 68.733 84.7621 68.7456 84.9137C68.7581 85.0628 68.7834 85.4233 68.8021 85.7148C68.8317 86.1784 68.9832 86.2642 70.011 86.399C70.6571 86.4837 71.7507 86.7524 72.441 86.996C74.0204 87.5534 76.8593 87.629 77.3671 87.127C77.6708 86.8266 77.6078 86.6869 76.787 85.8422C76.2805 85.321 75.8356 84.6833 75.7983 84.4251C75.7357 83.9917 75.5736 83.9521 73.696 83.9108C72.3472 83.8811 71.1664 83.9968 70.1923 84.2543ZM63.1849 88.5124C62.874 88.6122 61.8907 89.011 60.9995 89.3981C59.7639 89.935 59.0529 90.1022 58.0043 90.1022C56.684 90.1022 56.6295 90.1246 56.6295 90.6682C56.6295 90.9796 56.7821 91.5953 56.9686 92.0366C57.3827 93.0169 57.3827 93.0079 56.986 93.0079C56.809 93.0079 56.3512 93.2684 55.9688 93.5867C53.9041 95.3044 56.7337 98.4498 61.9715 100.259C65.2419 101.388 69.2151 101.512 72.8312 100.597C76.1697 99.7534 79.7783 97.5498 80.3782 95.9895C80.8018 94.8878 80.6395 93.9671 79.934 93.4702C79.5728 93.216 79.1126 93.0079 78.911 93.0079C78.5786 93.0079 78.5764 92.9469 78.8861 92.3546C79.0739 91.9954 79.2545 91.3666 79.2875 90.9576L79.3472 90.214L77.9091 90.1534C76.8322 90.1081 76.042 89.8966 74.7612 89.3114C71.988 88.0445 70.4832 88.0593 69.6202 89.3619C69.2065 89.986 69.2945 90.298 69.7357 89.7723C70.1742 89.25 71.3888 89.3463 71.9614 89.9489C72.5905 90.6112 72.5891 91.5238 71.958 92.1052C71.307 92.7048 71.1361 92.68 71.2667 92.0048C71.5163 90.7138 69.917 91.2562 69.6272 92.5609C69.4183 93.5015 68.7962 93.9434 67.7974 93.8609C67.0001 93.7952 66.8952 93.6995 66.2939 92.491C65.8307 91.56 65.5384 91.2131 65.2638 91.2676C65.0129 91.3175 64.8834 91.5544 64.889 91.9522C64.8995 92.6635 64.7602 92.7033 64.1268 92.1698C62.525 90.8204 64.5859 88.5928 66.3229 89.796C66.8236 90.1427 66.8378 90.1398 66.6201 89.7376C66.0143 88.6183 64.5158 88.0839 63.1849 88.5124ZM61.0035 92.1139C61.0831 92.5073 61.2818 92.7845 61.4838 92.7845C61.9416 92.7845 61.9269 93.3699 61.4648 93.5453C60.9648 93.7348 61.2194 95.0375 62.0148 96.3608L62.6198 97.3665L62.7554 96.3608C62.8878 95.3777 62.8917 95.3737 62.9249 96.1826C62.9434 96.6379 63.0782 97.2691 63.224 97.5856C63.6526 98.5158 63.1449 98.7702 62.3966 98C61.7171 97.3004 60.6983 95.2485 60.6983 94.5795C60.6983 93.845 60.3209 93.8718 59.2462 94.683C58.1205 95.5326 57.7598 95.6448 57.7598 95.145C57.7598 94.9682 58.37 94.451 59.116 93.9957C60.2234 93.3198 60.4723 93.0589 60.4723 92.5739C60.4723 92.2471 60.3502 91.8591 60.201 91.7116C59.9901 91.503 60.034 91.4433 60.3989 91.4433C60.7393 91.4433 60.9052 91.6273 61.0035 92.1139ZM76.6911 91.8345C76.743 91.9883 76.6437 92.1139 76.4706 92.1139C76.2976 92.1139 75.9585 92.2616 75.7171 92.4424C75.3198 92.74 75.3468 92.7462 76.0045 92.5084C76.4037 92.364 76.7953 92.3102 76.8747 92.3886C77.1068 92.6181 76.756 93.0079 76.3173 93.0079C76.0953 93.0079 75.7415 93.1959 75.5313 93.4255C75.1665 93.8243 75.1757 93.8381 75.7325 93.7328L76.3157 93.6226L76.249 95.3829C76.2083 96.4615 76.0951 97.0997 75.9565 97.0313C75.8322 96.9698 75.7601 96.3404 75.796 95.6325L75.8616 94.3455L74.9391 94.7105C73.8468 95.1426 73.6416 95.0332 74.1382 94.2838C74.4725 93.7793 74.4727 93.7208 74.142 93.5954C73.689 93.4235 73.9221 93.0079 74.4714 93.0079C74.6968 93.0079 75.1231 92.6548 75.4187 92.223C75.9466 91.4525 76.5051 91.282 76.6911 91.8345ZM74.9393 92.4492C74.9393 92.6336 74.8484 92.7845 74.7374 92.7845C74.6265 92.7845 74.4771 92.6336 74.4054 92.4492C74.3263 92.2449 74.4052 92.1139 74.6072 92.1139C74.7899 92.1139 74.9393 92.2648 74.9393 92.4492ZM59.8084 92.6897C60.0535 92.9818 60.0487 93.0768 59.7797 93.2451C59.237 93.5846 58.9908 93.4822 58.9418 92.8962C58.8882 92.2556 59.3514 92.1452 59.8084 92.6897ZM72.9144 93.2489C73.1847 93.7484 73.0382 94.457 72.7064 94.2543C72.4467 94.0954 72.2482 92.7845 72.484 92.7845C72.5823 92.7845 72.776 92.9935 72.9144 93.2489ZM63.056 93.6532C63.2037 93.8895 62.5558 94.472 62.3602 94.2789C62.1719 94.0924 62.4443 93.455 62.7125 93.455C62.8332 93.455 62.988 93.5441 63.056 93.6532ZM73.3536 94.6284C73.3516 94.7823 73.2553 95.0561 73.1393 95.2373C73.0007 95.4541 73.0204 95.6226 73.1972 95.7307C73.3963 95.8522 73.3617 96.069 73.0633 96.5683L72.661 97.2418L73.2916 97.416C73.6384 97.5116 74.8148 97.5838 75.9059 97.5762C77.6168 97.5644 77.8458 97.6059 77.5698 97.8791C77.0194 98.4231 75.8175 98.5292 74.1798 98.1785C73.0025 97.9262 72.4718 97.9044 71.9758 98.09C71.1317 98.4048 71.0855 97.9867 71.8876 97.2966C72.5445 96.7317 72.6368 95.7608 72.0721 95.3524C71.7286 95.1041 71.7564 95.0422 72.3547 94.7221C73.1685 94.2865 73.3579 94.2686 73.3536 94.6284ZM67.9319 94.9022C67.9319 95.1432 68.1145 95.2034 68.61 95.1258C68.983 95.0675 69.5784 94.9747 69.9332 94.9199C70.5332 94.8274 71.0965 95.1088 71.0965 95.5011C71.0965 95.5938 70.4098 95.6995 69.5707 95.7358L68.0449 95.8019L67.9742 96.5284C67.9149 97.1359 67.9796 97.2548 68.3697 97.2548C68.6932 97.2548 68.8361 97.3989 68.8361 97.7257C68.8361 98.0534 68.7325 98.1574 68.4949 98.0675C68.3075 97.9965 67.8839 98.0394 67.5539 98.1631C66.7736 98.4568 66.2584 98.0443 66.8581 97.6062C67.0758 97.4472 67.2537 97.0518 67.2537 96.7273C67.2537 95.9982 66.7971 95.9598 65.5583 96.5842C64.4781 97.1289 64.0321 97.1522 64.129 96.6591C64.175 96.4246 64.7462 96.1054 65.6714 95.7972C66.7625 95.4338 67.1235 95.2131 67.0742 94.9403C67.0304 94.6975 67.1649 94.5726 67.4698 94.5726C67.7263 94.5726 67.9319 94.7192 67.9319 94.9022ZM59.7941 95.1104C59.7941 95.3147 59.9524 95.384 60.2462 95.3079C60.8534 95.1508 60.8202 95.5516 60.1897 95.9865L59.6811 96.3373L60.3028 96.3491C60.6445 96.3553 60.9206 96.436 60.9158 96.5284C60.9031 96.7745 58.4035 98.4125 58.2589 98.2699C58.1913 98.2031 58.2675 97.9051 58.4282 97.6079C58.5891 97.3107 58.6743 96.755 58.6176 96.3728C58.5522 95.9335 58.6043 95.7099 58.7587 95.7644C58.8931 95.8118 58.9738 96.1902 58.9384 96.6055C58.887 97.2049 58.9313 97.3033 59.1533 97.0838C59.315 96.924 59.4065 96.3824 59.3705 95.8017C59.3328 95.1949 59.4042 94.7961 59.551 94.7961C59.6847 94.7961 59.7941 94.9376 59.7941 95.1104ZM75.3914 95.2431C75.3914 95.4577 75.2757 95.5071 74.6568 95.556C74.5014 95.5683 74.3114 95.8801 74.2345 96.2489C74.098 96.9041 74.0939 96.9005 74.065 96.0976C74.0428 95.4872 74.1368 95.2496 74.4307 95.1736C75.1246 94.9944 75.3914 95.0136 75.3914 95.2431ZM75.2508 96.4166C75.3783 96.9417 75.3294 97.0313 74.916 97.0313C74.5248 97.0313 74.4827 96.9707 74.6965 96.7159C74.8964 96.4778 74.8972 96.3614 74.7001 96.2409C74.5087 96.124 74.5191 96.0324 74.739 95.8978C75.0955 95.6801 75.0645 95.6486 75.2508 96.4166Z" fill="#FCF9F9"></path> </g> <defs> <clipPath id="clip0_1_165"> <rect width="89.8511" height="89.1806" fill="white" transform="translate(23.0211 27.4918)"></rect> </clipPath> </defs> </svg> 