<?xml version="1.0" encoding="UTF-8"?> <svg xmlns="http://www.w3.org/2000/svg" width="176" height="242" viewBox="0 0 176 242" fill="none"> <path d="M70.8001 66.2072C68.0248 67.6152 52.9863 76.0994 35.288 86.2522L0.076004 106.45M70.8001 66.2072L71.2597 217.434M70.8001 66.2072C70.8078 66.2504 70.8177 66.3253 70.8288 66.4394C70.8371 66.5247 70.8454 66.6254 70.8538 66.7416M70.8001 66.2072L70.8538 66.7416M0.076004 106.45L0.0379944 122.2C0.0202991 129.499 0.120475 135.68 0.270905 137.445C0.275601 137.443 0.280538 137.44 0.285723 137.438C0.365126 137.398 0.482035 137.337 0.636912 137.254C0.673636 137.235 0.7123 137.214 0.752885 137.192M0.076004 106.45L0.324787 106.884L0.575306 106.74M0.076004 106.45L0.576003 106.451L0.575306 106.74M0.752885 137.192C0.763688 137.346 0.774607 137.474 0.785536 137.575C0.793435 137.648 0.800526 137.698 0.806069 137.731C2.87257 136.631 11.8166 131.529 22.322 125.45C32.8688 119.348 41.8997 114.23 43.999 113.157C43.9963 113.141 43.9943 113.13 43.993 113.125M0.752885 137.192C1.05338 137.03 1.45909 136.806 1.96066 136.527C3.0986 135.893 4.72227 134.976 6.71218 133.844C10.6916 131.579 16.1318 128.454 22.0716 125.017C28.0136 121.579 33.4752 118.453 37.4881 116.187C39.4943 115.053 41.1398 114.134 42.3027 113.498C42.8837 113.18 43.347 112.931 43.6754 112.761C43.839 112.677 43.9736 112.609 44.0746 112.562C44.1243 112.539 44.1722 112.517 44.2144 112.501C44.2351 112.493 44.2612 112.483 44.2894 112.475L44.2906 112.474C44.3079 112.469 44.3725 112.45 44.452 112.45C44.6483 112.45 44.7736 112.558 44.825 112.613C44.8777 112.67 44.906 112.726 44.9185 112.753C44.9451 112.81 44.9589 112.864 44.9659 112.893C44.9817 112.96 44.9936 113.041 45.0034 113.122C45.0238 113.29 45.0432 113.529 45.0623 113.83C45.1005 114.435 45.1389 115.322 45.1771 116.457C45.2535 118.729 45.3296 122.012 45.401 126.059C45.544 134.156 45.6685 145.322 45.74 157.604L45.9984 201.986M0.752885 137.192C0.742636 137.045 0.732492 136.875 0.722544 136.682C0.681831 135.89 0.645922 134.739 0.616768 133.313C0.558491 130.463 0.527499 126.53 0.537993 122.201L0.575306 106.74M43.993 113.125C43.9944 113.13 43.9976 113.14 44.0033 113.155C44.2664 113.02 44.4196 112.95 44.452 112.95C44.4785 112.95 44.5056 113.118 44.533 113.443C44.5362 113.443 44.5388 113.442 44.541 113.442C44.5498 113.44 44.5572 113.438 44.563 113.437C44.5675 113.435 44.571 113.434 44.5733 113.434C44.5782 113.432 44.5814 113.431 44.5825 113.431C44.5835 113.43 44.5825 113.431 44.5791 113.432C44.5701 113.436 44.5554 113.442 44.5337 113.452C44.8057 116.698 45.1102 135.313 45.24 157.607L45.5 202.264M43.993 113.125C43.993 113.124 43.9929 113.124 43.9928 113.124L43.993 113.125ZM45.5 202.264L58 210.091C63.9537 213.819 69.2226 216.966 70.7961 217.748C70.7966 217.746 70.7971 217.743 70.7976 217.74C70.8057 217.699 70.8166 217.62 70.8288 217.493C70.8365 217.414 70.8442 217.321 70.8519 217.215M45.5 202.264L46 202.261L45.9984 201.986M45.5 202.264L45.7654 201.84L45.9984 201.986M70.8519 217.215C70.93 217.256 71.0007 217.291 71.0639 217.322C71.1671 217.373 71.2434 217.407 71.2951 217.428C71.3167 217.437 71.3296 217.441 71.3354 217.443M70.8519 217.215C70.8683 216.991 70.8849 216.706 70.9014 216.362C70.9498 215.353 70.9967 213.86 71.0416 211.932C71.1311 208.078 71.212 202.501 71.2799 195.616C71.4158 181.846 71.5 162.849 71.5 141.95C71.5 121.051 71.4158 102.059 71.2799 88.2952C71.212 81.4131 71.1311 75.8401 71.0416 71.9903C70.9967 70.0648 70.9498 68.5738 70.9014 67.5668C70.8855 67.2365 70.8696 66.9614 70.8538 66.7416M70.8519 217.215C70.6761 217.125 70.4627 217.01 70.2136 216.873C69.4958 216.477 68.502 215.904 67.303 215.194C64.9059 213.775 61.7003 211.818 58.2654 209.667L45.9984 201.986M71.3354 217.443C71.3244 217.441 71.2968 217.435 71.2597 217.434M71.3354 217.443C71.7085 213.123 72 180.827 72 141.95C72 103.113 71.7091 70.8561 71.3366 66.502C71.3056 66.5158 71.2637 66.5354 71.2096 66.5618C71.1174 66.6066 70.9988 66.6665 70.8538 66.7416M71.3354 217.443L70.8538 66.7416M71.2597 217.434L71.2609 217.434C71.2605 217.434 71.2601 217.434 71.2597 217.434ZM70.8538 66.7416C70.7804 66.7796 70.7002 66.8214 70.6134 66.8671C70.0976 67.1385 69.3591 67.5384 68.421 68.0539C66.5455 69.0844 63.8806 70.5723 60.6221 72.4071C54.1055 76.0765 45.2195 81.1313 35.5368 86.6859L0.575306 106.74M116.251 191.247L116.006 191.388L116 191.67L115.5 216.764L115.017 241.008L102.542 233.727L89.5817 226.163L89.79 141.121L89.9993 56.0795L118.751 39.3886C126.726 34.7591 133.995 30.5409 139.283 27.4742C141.927 25.9408 144.075 24.6954 145.568 23.8303C146.315 23.3978 146.898 23.0605 147.297 22.8298C147.475 22.7264 147.612 22.6474 147.71 22.5912C147.73 22.6005 147.751 22.6107 147.774 22.6217C147.965 22.7129 148.244 22.852 148.605 23.0351C149.325 23.4007 150.356 23.936 151.624 24.6013C154.16 25.9317 157.635 27.7791 161.436 29.8226L161.673 29.3822L161.436 29.8226L175.001 37.1137L175.236 97.1341L175.47 157.162L145.987 174.132L116.251 191.247ZM147.751 142.609L147.998 142.465L148 142.179L148.26 98.0661C148.332 85.9332 148.312 74.9114 148.221 66.9276C148.176 62.9363 148.113 59.7013 148.035 57.4654C147.996 56.3487 147.953 55.475 147.906 54.8792C147.883 54.5836 147.858 54.3439 147.83 54.1735C147.816 54.0924 147.798 54.0031 147.771 53.9254C147.759 53.8908 147.734 53.8224 147.684 53.7541C147.647 53.7022 147.488 53.5065 147.204 53.5383L147.204 53.5383C147.131 53.5465 147.067 53.5684 147.036 53.5793C146.995 53.5937 146.951 53.6114 146.907 53.6303C146.819 53.6684 146.708 53.7206 146.58 53.7839C146.322 53.9111 145.973 54.0935 145.545 54.3233C144.688 54.7836 143.501 55.4421 142.071 56.2493C139.212 57.864 135.373 60.0785 131.247 62.5031L131.5 62.9342L131.247 62.5031L116.247 71.3171L116.002 71.4611L116 71.7452L115.74 115.846C115.668 127.975 115.654 139.002 115.689 146.997C115.707 150.995 115.737 154.236 115.778 156.479C115.799 157.6 115.822 158.475 115.848 159.072C115.862 159.369 115.876 159.604 115.891 159.769C115.899 159.848 115.908 159.925 115.92 159.989C115.926 160.016 115.937 160.067 115.958 160.12C115.967 160.144 115.991 160.2 116.038 160.259C116.079 160.31 116.209 160.45 116.434 160.45C116.472 160.45 116.505 160.446 116.531 160.441C116.555 160.437 116.572 160.432 116.58 160.43C116.607 160.423 116.631 160.415 116.65 160.408C116.687 160.394 116.726 160.377 116.765 160.36C116.843 160.325 116.944 160.275 117.064 160.215C117.304 160.093 117.64 159.915 118.057 159.688C118.892 159.235 120.067 158.581 121.497 157.775C124.355 156.163 128.235 153.94 132.445 151.496L147.751 142.609ZM116.902 159.796C116.902 159.796 116.902 159.796 116.902 159.796L116.902 159.796ZM71.3359 66.4945C71.3077 66.1673 71.279 66.0001 71.25 66.0022C71.2145 66.0046 71.0628 66.074 70.8028 66.2058C70.8034 66.2073 70.804 66.2088 70.8046 66.2104C70.8089 66.2211 70.8282 66.2699 70.8725 66.3242C70.9112 66.3715 71.0492 66.517 71.2838 66.501C71.2842 66.501 71.2846 66.501 71.285 66.5009C71.3052 66.4995 71.3226 66.4969 71.3359 66.4945ZM0.798471 137.726C0.79951 137.729 0.800488 137.731 0.801407 137.733C0.533728 137.876 0.382678 137.95 0.360001 137.95C0.329259 137.95 0.299795 137.779 0.272031 137.458C0.293029 137.454 0.323771 137.45 0.360001 137.45C0.55805 137.45 0.679765 137.563 0.723937 137.612C0.770136 137.664 0.792013 137.712 0.798471 137.726ZM17.4999 80.1372L0.5 89.9569V75.0122V59.4899L51.4999 30.0602C65.5938 21.9273 78.4333 14.5282 87.766 9.15868C92.4323 6.47392 96.2218 4.29668 98.8528 2.78887C100.168 2.03493 101.194 1.44858 101.895 1.04991C102.245 0.850496 102.514 0.698451 102.696 0.595989C102.738 0.572381 102.775 0.551562 102.808 0.533508C102.852 0.550323 102.906 0.572212 102.971 0.599797C103.193 0.694107 103.505 0.840006 103.9 1.03311C104.688 1.41839 105.778 1.97973 107.071 2.66195C109.656 4.02572 113.037 5.86516 116.398 7.72738C119.758 9.58962 123.095 11.4729 125.59 12.9244C126.838 13.6505 127.872 14.2664 128.592 14.7167C128.827 14.8636 129.026 14.9911 129.186 15.0979C129.067 15.1775 128.926 15.2697 128.764 15.3745C128.137 15.7786 127.21 16.3552 126.011 17.0863C123.615 18.5481 120.147 20.6205 115.866 23.1515C107.304 28.2131 95.493 35.1052 82.5 42.6061C56.512 57.6081 27.262 74.4972 17.4999 80.1372Z" stroke="url(#paint0_angular_219_4)"></path> <defs> <radialGradient id="paint0_angular_219_4" cx="0" cy="0" r="1" gradientUnits="userSpaceOnUse" gradientTransform="translate(87.9855 120.935) rotate(90) scale(120.935 87.9855)"> <stop stop-color="#9001F5"></stop> <stop offset="1" stop-color="#00CDFF"></stop> </radialGradient> </defs> </svg> 