<?xml version="1.0" encoding="UTF-8"?> <svg xmlns="http://www.w3.org/2000/svg" width="994" height="989" viewBox="0 0 994 989" fill="none"> <path d="M845.23 0H148.148C66.3282 0 0 66.3282 0 148.148V840.267C0 922.087 66.3282 988.415 148.148 988.415H845.23C927.05 988.415 993.378 922.087 993.378 840.267V148.148C993.378 66.3282 927.05 0 845.23 0Z" fill="#8E8E8E"></path> <path fill-rule="evenodd" clip-rule="evenodd" d="M504.824 269.458C499.599 272.461 492.174 276.739 488.324 278.964C484.474 281.19 471.199 288.799 458.824 295.874C446.449 302.949 432.724 310.868 428.324 313.471C423.924 316.074 416.949 320.08 412.824 322.375C408.699 324.669 397.899 330.834 388.824 336.074C379.749 341.314 370.074 346.85 367.324 348.375C364.574 349.901 358.274 353.511 353.324 356.397C348.374 359.283 339.374 364.483 333.324 367.952C305.642 383.825 303.981 384.924 303.43 387.733C303.141 389.214 301.957 397.176 300.8 405.426C299.644 413.676 297.585 427.91 296.226 437.056C294.866 446.203 292.436 463.978 290.824 476.556C289.213 489.135 286.541 508.651 284.886 519.926C282.143 538.614 280.761 548.608 274.792 592.926C273.717 600.901 272.835 608.438 272.831 609.676L272.824 611.926H498.324H723.824V608.048C723.824 605.916 723.262 603.732 722.574 603.196C721.365 602.254 647.905 596.498 597.824 593.421C563.706 591.325 529.74 588.896 527.138 588.366C525.078 587.946 524.934 587.301 524.638 577.173C524.465 571.262 524.395 566.28 524.482 566.101C524.569 565.923 533.344 567.134 543.982 568.794C554.62 570.453 577.049 573.674 593.824 575.951C610.599 578.228 634.449 581.597 646.824 583.439C659.199 585.28 675.174 587.541 682.324 588.463C689.474 589.385 700.93 590.96 707.783 591.963C714.635 592.965 720.55 593.595 720.928 593.362C721.546 592.98 720.197 584.965 719.376 584.145C719.191 583.959 710.103 582.015 699.181 579.826C688.26 577.636 676.849 575.214 673.824 574.443C670.799 573.673 658.424 571.008 646.324 568.523C634.224 566.037 619.149 562.862 612.824 561.466C606.499 560.071 592.549 557.154 581.824 554.984C571.099 552.814 557.599 549.942 551.824 548.601C546.049 547.261 537.387 545.365 532.574 544.389L523.824 542.613L523.818 538.52C523.815 536.268 523.518 530.642 523.158 526.018C522.713 520.303 522.836 517.815 523.542 518.252C524.113 518.605 532.623 521.154 542.452 523.918C552.282 526.681 564.824 530.302 570.324 531.965C575.824 533.627 585.724 536.492 592.324 538.331C598.924 540.17 617.824 545.622 634.324 550.446C650.824 555.27 669.724 560.722 676.324 562.562C682.924 564.402 692.599 567.234 697.824 568.855C717.66 575.011 717.824 575.045 717.824 572.997C717.824 571.995 717.548 569.794 717.21 568.104C716.538 564.745 717.248 565.072 687.324 554.368C680.724 552.007 665.874 546.634 654.324 542.427C633.355 534.791 621.38 530.464 589.324 518.947C579.974 515.587 568.949 511.533 564.824 509.937C560.699 508.342 549.975 504.468 540.993 501.329C532.012 498.19 524.024 494.983 523.243 494.203C522.2 493.159 521.824 490.032 521.824 482.388V471.993L529.574 475.327C533.836 477.16 546.324 482.595 557.324 487.405C568.324 492.215 581.824 498.087 587.324 500.455C592.824 502.823 605.649 508.436 615.824 512.928C625.999 517.42 638.374 522.802 643.324 524.889C648.274 526.976 657.274 530.93 663.324 533.676C669.374 536.422 675.449 539.01 676.824 539.427C678.199 539.844 681.574 541.323 684.324 542.714C689.491 545.328 708.984 553.699 712.074 554.631C713.503 555.062 713.824 554.531 713.824 551.734C713.824 549.85 713.262 547.598 712.574 546.729C711.887 545.861 695.574 537.168 676.324 527.411C637.017 507.488 596.901 487.012 558.324 467.18C544.024 459.829 529.737 452.641 526.574 451.207L520.824 448.599V438.203C520.824 432.486 521.161 428.004 521.574 428.244C521.987 428.484 526.599 431.143 531.824 434.153C537.049 437.162 548.074 443.596 556.324 448.45C564.574 453.304 573.799 458.693 576.824 460.427C579.849 462.16 593.799 470.266 607.824 478.439C621.849 486.612 636.474 495.089 640.324 497.276C644.174 499.463 650.024 502.921 653.324 504.961C656.624 507 665.399 512.181 672.824 516.473C680.249 520.765 691.921 527.563 698.762 531.58C705.602 535.597 711.394 538.689 711.632 538.451C711.87 538.213 711.768 536.085 711.405 533.722L710.744 529.426L691.534 516.807C652.445 491.13 626.843 474.293 608.824 462.413C586.556 447.731 558.155 429.034 536.074 414.518L519.824 403.836V392.822C519.824 384.287 520.105 381.973 521.074 382.541C522.208 383.206 527.117 386.792 548.324 402.449C552.174 405.291 560.724 411.586 567.324 416.438C573.924 421.29 582.699 427.741 586.824 430.775C590.949 433.808 597.474 438.598 601.324 441.419C605.174 444.24 612.599 449.707 617.824 453.567C635.927 466.942 647.357 475.37 654.324 480.482C665.918 488.988 694.628 510.108 701.416 515.122C704.912 517.706 707.96 519.506 708.19 519.122C708.42 518.739 708.317 516.66 707.962 514.502C707.366 510.887 706.091 509.589 691.754 498.002C683.195 491.085 671.536 481.601 665.845 476.926C660.154 472.251 649.35 463.476 641.835 457.426C631.106 448.788 587.689 413.554 550.324 383.162C548.124 381.373 540.137 374.904 532.574 368.787L518.824 357.666V345.724V333.782L529.65 343.604C535.605 349.006 548.306 360.401 557.876 368.926C567.445 377.451 577.761 386.703 580.799 389.486C583.838 392.269 594.649 401.928 604.824 410.95C614.999 419.973 628.274 431.893 634.324 437.439C640.374 442.986 649.374 451.073 654.324 455.411C659.274 459.75 667.824 467.423 673.324 472.464C693.066 490.559 705.317 500.947 705.669 499.892C705.865 499.302 705.744 497.314 705.399 495.475C704.881 492.714 698.02 485.534 666.048 454.294C610.294 399.817 591.747 381.719 570.328 360.895C559.88 350.737 543.843 335.069 534.69 326.076L518.049 309.726L517.6 299.576C517.354 293.994 517.343 289.201 517.576 288.926C517.809 288.651 520.954 291.576 524.565 295.426C538.047 309.801 565.514 338.779 575.276 348.926C580.832 354.701 589.172 363.476 593.809 368.426C598.446 373.376 610.582 386.201 620.776 396.926C630.971 407.651 642.717 420.026 646.879 424.426C674.242 453.354 691.583 471.611 698.171 478.426L703.005 483.426L702.318 478.926C701.442 473.182 701.159 472.769 688.191 458.303C682.214 451.635 673.499 441.768 668.824 436.376C660.636 426.932 637.114 400.218 620.375 381.351C615.947 376.36 608.274 367.626 603.324 361.941C598.374 356.256 590.499 347.269 585.824 341.97C581.149 336.67 572.995 327.405 567.704 321.38C562.412 315.355 552.341 303.901 545.324 295.926C538.306 287.951 529.135 277.506 524.944 272.715C520.753 267.923 516.649 264.002 515.824 264C514.999 263.999 510.049 266.455 504.824 269.458ZM292.88 644.016C288.36 644.903 275.93 650.47 272.359 653.207C270.459 654.664 270.587 654.934 276.193 661.32C282.242 668.209 283.711 668.972 285.885 666.353C290.431 660.875 303.463 658.779 309.837 662.501C313.925 664.889 317.824 670.264 317.824 673.513V675.803L305.324 675.213L292.824 674.622V683.215C292.824 687.941 293.162 692.005 293.574 692.246C293.986 692.487 299.499 692.355 305.824 691.954C312.149 691.553 317.509 691.379 317.734 691.569C318.837 692.495 315.512 699.85 312.829 702.421C310.264 704.879 308.793 705.397 303.406 705.74C295.688 706.231 291.456 704.953 285.336 700.28L280.7 696.74L274.512 702.583C271.109 705.797 268.19 708.716 268.026 709.07C267.452 710.31 276.499 716.879 282.918 719.883C293.941 725.041 307.346 725.071 320.985 719.967C331.233 716.132 338.261 708.933 341.805 698.638C347.328 682.591 344.372 664.474 334.641 654.743C325.336 645.438 308.148 641.023 292.88 644.016ZM454.324 643.624C445.991 644.729 428.824 651.72 428.824 654.008C428.824 655.752 437.126 667.926 438.315 667.926C439.012 667.926 442.091 666.778 445.157 665.374C457.147 659.884 469.136 659.927 471.661 665.468C474.037 670.683 473.341 671.73 467.074 672.365C449.718 674.125 440.509 676.936 434.083 682.437C428.426 687.278 425.824 693.056 425.824 700.774C425.824 708.581 427.427 712.441 432.612 717.12C442.215 725.785 461.429 726.122 475.594 717.874L478.864 715.97L483.339 719.386C488.439 723.278 494.713 724.656 501.153 723.297L505.324 722.417V713.967C505.324 705.861 505.226 705.493 502.914 704.947C501.589 704.634 499.564 703.119 498.414 701.58C496.506 699.025 496.281 697.066 495.824 679.029C495.328 659.448 495.3 659.24 492.524 655.048C486.21 645.51 472.044 641.273 454.324 643.624ZM521.574 643.615C520.063 644.01 519.824 645.362 519.824 653.499V662.926L522.574 662.959C525.885 662.999 528.161 664.817 533.172 671.426C535.257 674.176 538.619 677.436 540.643 678.671C542.668 679.906 543.718 680.918 542.978 680.921C540.049 680.932 535.313 685.644 529.998 693.833C523.804 703.378 522.353 704.848 519.074 704.894C516.919 704.925 516.824 705.286 516.824 713.451C516.824 721.681 516.913 722.009 519.389 722.951C526.54 725.669 538.012 722.167 543.395 715.623C545.006 713.664 548.745 707.484 551.703 701.889C556.126 693.525 557.676 691.468 560.421 690.321C562.257 689.554 564.224 688.926 564.792 688.926C565.46 688.926 565.824 694.75 565.824 705.426V721.926H577.824H589.824V705.451V688.976L593.074 689.588C597.729 690.465 599.425 692.313 603.893 701.376C606.075 705.804 609.389 711.504 611.256 714.043C617.043 721.915 628.37 725.95 636.259 722.951C638.729 722.012 638.824 721.666 638.824 713.658V705.34L635.576 704.383C633.058 703.641 631.185 701.679 627.245 695.657C621.129 686.31 617.209 682.061 613.945 681.241C611.578 680.647 611.611 680.579 615.12 678.778C617.106 677.76 619.539 675.747 620.527 674.305C624.909 667.915 629.475 663.745 632.843 663.058L636.324 662.349L636.613 653.628C636.898 645.04 636.862 644.891 634.298 643.916C623.983 639.995 612.044 646.303 602.524 660.704C597.62 668.123 595.44 670.349 592.074 671.375L589.824 672.061V658.493V644.926H577.824H565.824V658.493V672.061L563.574 671.371C560.245 670.35 559.332 669.413 553.353 660.881C546.227 650.711 541.687 646.408 536.059 644.49C531.693 643.003 525.378 642.621 521.574 643.615ZM352.824 653.926V662.926H362.824H372.824V692.426V721.926H384.824H396.824V692.426V662.926H406.824H416.824V653.926V644.926H384.824H352.824V653.926ZM652.824 683.426V721.926H664.324H675.824V716.627V711.328L689.273 697.377L702.722 683.426L702.773 702.676L702.824 721.926H714.324H725.824V683.426V644.926H714.324H702.824V650.557V656.188L690.219 669.557C683.286 676.91 677.211 682.926 676.719 682.926C676.224 682.926 675.824 674.433 675.824 663.926V644.926H664.324H652.824V683.426ZM472.824 693.827C472.824 699.548 472.713 699.794 469.208 701.862C467.218 703.036 463.593 704.53 461.15 705.184C455.824 706.608 451.92 704.985 450.421 700.723C448.568 695.452 454.113 690.692 464.027 689.041C473.325 687.494 472.824 687.221 472.824 693.827Z" fill="white"></path> </svg> 