<svg width="123" height="118" viewBox="0 0 123 118" fill="none" xmlns="http://www.w3.org/2000/svg">
<path d="M64.4197 1.93372L80.1297 38.6337L120 42.1937C120.629 42.2453 121.229 42.4821 121.725 42.8742C122.22 43.2663 122.588 43.7962 122.783 44.3971C122.977 44.9981 122.99 45.6432 122.818 46.2512C122.647 46.8592 122.299 47.4029 121.82 47.8137L91.6397 74.1137L100.54 113.114C100.633 113.523 100.644 113.948 100.572 114.362C100.501 114.776 100.348 115.172 100.123 115.527C99.8986 115.882 99.6058 116.189 99.262 116.43C98.9181 116.672 98.5299 116.843 98.1197 116.934C97.2711 117.113 96.3862 116.947 95.6597 116.474L61.4097 96.0337L27.0697 116.574C26.7109 116.791 26.3127 116.936 25.8979 116.999C25.4831 117.062 25.0599 117.042 24.6528 116.941C24.2456 116.839 23.8626 116.658 23.5256 116.408C23.1887 116.158 22.9046 115.844 22.6897 115.484C22.4744 115.131 22.3309 114.739 22.2674 114.331C22.2039 113.922 22.2217 113.505 22.3197 113.104L31.2297 74.1037L1.08967 47.8137C0.456146 47.2516 0.0679064 46.4638 0.00809547 45.619C-0.0517154 44.7741 0.221658 43.9395 0.769671 43.2937C1.37365 42.6749 2.19524 42.3161 3.05967 42.2937L42.7797 38.7337L58.4897 1.93372C58.7431 1.35854 59.1583 0.869493 59.6847 0.526151C60.2112 0.182808 60.8262 0 61.4547 0C62.0832 0 62.6981 0.182808 63.2246 0.526151C63.751 0.869493 64.1663 1.35854 64.4197 1.93372Z" fill="#636363"/>
</svg>
