<?xml version="1.0" encoding="UTF-8"?> <svg xmlns="http://www.w3.org/2000/svg" width="512" height="512" viewBox="0 0 512 512" fill="none"> <path fill-rule="evenodd" clip-rule="evenodd" d="M231.645 0.593757C144.807 8.97576 67.2455 61.5918 27.9415 138.782C14.0415 166.082 5.8285 192.405 1.3345 224.058C-0.657503 238.095 -0.368503 274.408 1.8615 290.058C5.8215 317.85 14.0155 344.185 26.5735 369.484C51.4885 419.675 91.2905 459.472 141.583 484.481C223.112 525.021 319.465 519.447 395.509 469.79C425.242 450.374 453.421 421.59 472.658 390.984C479.969 379.351 491.008 356.737 496.022 343.123C501.074 329.403 506.965 305.592 509.15 290.058C511.364 274.323 511.664 237.921 509.693 224.058C503.79 182.531 490.62 147.177 468.757 114.159C459.459 100.117 450.173 88.7878 437.236 75.7028C397.352 35.3628 347.739 10.3438 291.009 1.96276C278.776 0.155757 244.397 -0.637243 231.645 0.593757ZM274.944 175.058C277.109 176.158 279.809 178.331 280.944 179.887C282.93 182.606 283.012 183.991 283.059 215.887C283.111 250.954 283.665 256.153 287.652 258.946C290.354 260.838 292.067 260.169 297.333 255.166C309.11 243.978 324.494 219.714 333.682 197.835C336.539 191.03 339.953 184.387 341.267 183.073C344.603 179.737 349.484 179.326 381.033 179.727C404.485 180.025 408.432 180.3 411.245 181.832C415.69 184.253 416.26 187.452 413.674 195.462C410.584 205.036 404.806 214.286 385.604 240.4C363.559 270.38 361.622 274.027 364.635 279.874C365.254 281.075 373.285 289.708 382.482 299.058C398.482 315.324 409.448 328.599 413.585 336.708C417.267 343.924 415.292 350.55 408.397 354.116C404.389 356.188 387.2 356.881 365.44 355.846C341.214 354.695 339.914 354.043 319.917 333.012C304.194 316.476 300.559 313.558 295.68 313.558C289.619 313.558 287.786 317.323 284.486 336.558C282.664 347.175 282.256 348.299 279.154 351.191C276.164 353.98 274.897 354.404 267.651 355.045C241.223 357.385 212.654 349.579 191.009 334.105C168.891 318.293 145.337 287.771 122.01 244.695C111.581 225.436 95.5095 190.723 95.5095 187.456C95.5095 186.01 96.4425 183.642 97.5825 182.193L99.6545 179.558H124.639C139.38 179.558 151.401 180.006 153.959 180.65C160.204 182.222 163.699 186.489 169.035 199.058C180.64 226.394 201.967 258.129 210.103 260.171C215.426 261.507 217.659 257.641 219.662 243.618C220.873 235.146 220.073 204.183 218.496 198.472C217.215 193.833 212.957 189.88 206.912 187.717C203.955 186.659 201.885 185.273 201.681 184.213C200.929 180.31 206.603 175.357 214.009 173.452C215.659 173.027 229.159 172.765 244.009 172.869C268.813 173.043 271.329 173.221 274.944 175.058Z" fill="white"></path> </svg> 